<?xml version="1.0" encoding="utf-8"?>
<!-- Generator: Adobe Illustrator 22.1.0, SVG Export Plug-In . SVG Version: 6.00 Build 0)  -->
<svg version="1.1" id="Capa_1" xmlns="http://www.w3.org/2000/svg" xmlns:xlink="http://www.w3.org/1999/xlink" x="0px" y="0px"
	 viewBox="0 0 142.9 48.6" style="enable-background:new 0 0 142.9 48.6;" xml:space="preserve">
<style type="text/css">
	.st0{fill:#FFFFFF;}
	.st1{fill:#884099;}
	.st2{fill:#FEED00;}
	.st3{fill:#1F201D;}
</style>
<rect class="st0" width="142.8" height="48.5"/>
<g>
	<rect x="58.8" y="11" class="st1" width="77.4" height="20.8"/>
	
		<rect x="64.5" y="13.5" transform="matrix(0.9958 -9.174339e-02 9.174339e-02 0.9958 -1.6651 6.7273)" width="15.7" height="15.9"/>
	<path class="st0" d="M63.8,21.9c-0.1-0.8-0.1-1.5-0.2-2.1s-0.1-1.3-0.2-2c-0.1-0.7-0.1-1.4-0.2-2c-0.1-0.6-0.1-1.3-0.2-2.1
		c0.8-0.1,1.6-0.1,2.2-0.2c0.7-0.1,1.3-0.1,2.1-0.2c0.7-0.1,1.4-0.1,2.1-0.2c0.7-0.1,1.4-0.1,2.2-0.2c0,0.2,0,0.4,0.1,0.6
		c0,0.2,0,0.4,0.1,0.6c-0.7,0.1-1.4,0.1-1.9,0.2c-0.6,0.1-1.2,0.1-1.8,0.2c-0.6,0.1-1.2,0.1-1.8,0.2c-0.6,0.1-1.2,0.1-1.9,0.2
		c0.1,0.7,0.1,1.3,0.2,1.8c0,0.5,0.1,1.1,0.2,1.7c0.1,0.6,0.1,1.2,0.2,1.7c0,0.5,0.1,1.1,0.2,1.8L63.8,21.9z M64.1,25.1l-0.6-6.2
		l1.2-0.1c0.1,0.6,0.1,1.1,0.1,1.5c0,0.4,0.1,0.9,0.1,1.5s0.1,1.1,0.1,1.5c0,0.4,0.1,0.9,0.1,1.5L64.1,25.1z M65.1,22.6
		c0.1,0.7,0.1,1.3,0.2,1.8c0,0.5,0.1,1.1,0.2,1.7c0.1,0.6,0.1,1.2,0.2,1.7c0,0.5,0.1,1.1,0.2,1.8c0.7-0.1,1.4-0.1,1.9-0.2
		c0.6-0.1,1.2-0.1,1.8-0.2c0.6-0.1,1.2-0.1,1.8-0.2c0.6-0.1,1.2-0.1,1.9-0.2c0,0.2,0,0.4,0.1,0.6c0,0.2,0,0.4,0.1,0.6
		c-0.8,0.1-1.6,0.1-2.2,0.2s-1.3,0.1-2.1,0.2c-0.7,0.1-1.4,0.1-2.1,0.2c-0.7,0.1-1.4,0.1-2.2,0.2c-0.1-0.8-0.1-1.5-0.2-2.1
		c-0.1-0.6-0.1-1.3-0.2-2c-0.1-0.7-0.1-1.4-0.2-2c-0.1-0.6-0.1-1.3-0.2-2.1L65.1,22.6z M72.9,29.5c-0.3-0.2-0.5-0.3-0.8-0.4
		c-0.2-0.7-0.4-1.3-0.6-1.8c-0.2-0.5-0.4-1.1-0.6-1.7c-0.2-0.6-0.4-1.2-0.6-1.7c-0.2-0.5-0.4-1.1-0.6-1.8c0.4-0.1,0.7-0.3,1.1-0.4
		c0.2,0.7,0.4,1.3,0.6,1.9c0.2,0.5,0.4,1.1,0.6,1.7c0.2,0.6,0.4,1.2,0.6,1.7c0.2,0.5,0.4,1.2,0.6,1.9C73.2,29.1,73.1,29.3,72.9,29.5
		z M71.6,13.5c0.3,0.1,0.5,0.3,0.8,0.4c0.2,0.7,0.4,1.3,0.6,1.8c0.2,0.5,0.4,1.1,0.6,1.7c0.2,0.6,0.4,1.2,0.6,1.7
		c0.2,0.5,0.4,1.1,0.6,1.8c-0.4,0.1-0.7,0.2-1.1,0.4c-0.2-0.7-0.4-1.3-0.6-1.9c-0.2-0.5-0.4-1.1-0.6-1.7c-0.2-0.6-0.4-1.2-0.6-1.7
		c-0.2-0.5-0.4-1.2-0.6-1.9C71.3,13.9,71.4,13.7,71.6,13.5z M79.4,20.4c-0.1-0.7-0.1-1.3-0.2-1.8c0-0.5-0.1-1.1-0.2-1.7
		c-0.1-0.6-0.1-1.2-0.2-1.7c0-0.5-0.1-1.1-0.2-1.8c-0.7,0.1-1.4,0.1-1.9,0.2c-0.6,0.1-1.2,0.1-1.8,0.2c-0.6,0.1-1.2,0.1-1.8,0.2
		c-0.6,0.1-1.2,0.1-1.9,0.2c0-0.2,0-0.4-0.1-0.6s0-0.4-0.1-0.6c0.8-0.1,1.6-0.1,2.2-0.2c0.7-0.1,1.3-0.1,2.1-0.2
		c0.7-0.1,1.4-0.1,2.1-0.2c0.7-0.1,1.4-0.1,2.2-0.2c0.1,0.8,0.1,1.5,0.2,2.1c0.1,0.6,0.1,1.3,0.2,2c0.1,0.7,0.1,1.4,0.2,2
		c0.1,0.6,0.1,1.3,0.2,2.1L79.4,20.4z M80.6,21.2c0.1,0.8,0.1,1.5,0.2,2.1c0.1,0.6,0.1,1.3,0.2,2c0.1,0.7,0.1,1.4,0.2,2
		c0.1,0.6,0.1,1.3,0.2,2.1c-0.8,0.1-1.6,0.1-2.2,0.2c-0.6,0.1-1.3,0.1-2.1,0.2c-0.7,0.1-1.4,0.1-2.1,0.2s-1.4,0.1-2.2,0.2
		c0-0.2,0-0.4-0.1-0.6c0-0.2,0-0.4-0.1-0.6c0.7-0.1,1.4-0.1,1.9-0.2c0.6-0.1,1.2-0.1,1.8-0.2c0.6-0.1,1.2-0.1,1.8-0.2
		c0.6-0.1,1.2-0.1,1.9-0.2C80,27.6,80,27,79.9,26.5c0-0.5-0.1-1.1-0.2-1.7c-0.1-0.6-0.1-1.2-0.2-1.7c0-0.5-0.1-1.1-0.2-1.8
		L80.6,21.2z M80.9,23.5l-1.2,0.1c-0.1-0.6-0.1-1.1-0.1-1.5c0-0.4-0.1-0.9-0.1-1.5c-0.1-0.6-0.1-1.1-0.1-1.5c0-0.4-0.1-0.9-0.1-1.5
		l1.2-0.1L80.9,23.5z"/>
	<polyline points="38.3,36.8 57.7,36.8 61.1,33.5 41.6,33.5 	"/>
	<rect x="41.7" y="9.4" width="19.4" height="24.1"/>
	<rect x="43.1" y="11" width="18.1" height="20.7"/>
	<rect x="41.1" y="11" class="st2" width="18.9" height="20.7"/>
	<polygon points="41.7,33.5 38.3,36.8 38.3,12.8 41.7,9.5 	"/>
	<polygon class="st0" points="39.5,35.5 41.8,33.8 59,33.6 57,35.4 	"/>
	<rect x="46.5" y="13.8" class="st0" width="13.1" height="15.5"/>
	<path d="M45.5,20.3c0-0.7,0-1.3,0-1.8s0-1.1,0-1.7c0-0.6,0-1.2,0-1.7s0-1.1,0-1.8c0.8,0,1.4,0,2,0c0.6,0,1.2,0,1.9,0
		c0.7,0,1.3,0,1.9,0c0.6,0,1.3,0,2,0c0,0.2,0,0.4,0,0.6s0,0.4,0,0.6c-0.9,0-1.7,0-2.3,0c-0.7,0-1.3,0-2,0c-0.7,0-1.4,0-2.3,0
		c0,0.8,0,1.5,0,2.1c0,0.6,0,1.2,0,1.8s0,1.3,0,2.1H45.5z M45.5,24.6v-6h1.1c0,0.6,0,1.1,0,1.5c0,0.4,0,0.9,0,1.5c0,0.6,0,1.1,0,1.5
		c0,0.4,0,0.9,0,1.5H45.5z M53,29.9c-0.4,0-0.9,0-1.5,0c-0.6,0-1.3,0-2,0s-1.3,0-1.9,0c-0.6,0-1.3,0-2.1,0v-7.3h1.1v6.2
		c0.7,0,1.2,0,1.7,0c0.4,0,1,0,1.7,0c0.7,0,1.2,0,1.7,0c0.4,0,1,0,1.7,0c0-0.1,0-0.3,0-0.5c0-0.2,0-0.6,0-1.2c0-0.6,0-1.3,0-2.3
		c0.8,0,1.6,0,2.2,0c0.6,0,1.2,0,1.9,0c0.6,0,1.4,0,2.2,0c0-0.6,0-1.1,0-1.6s0-0.9,0-1.3s0-1,0-1.6h1.1v9.7c-0.7,0-1.2,0-1.8,0
		c-0.5,0-1.1,0-1.7,0c-0.6,0-1.2,0-1.7,0s-1,0-1.3,0c-0.3,0-0.5,0-0.6,0C53.6,29.9,53.4,29.9,53,29.9z M59.5,20.3c0-0.8,0-1.5,0-2.1
		s0-1.2,0-1.8c0-0.6,0-1.3,0-2.1c-0.9,0-1.7,0-2.3,0c-0.7,0-1.3,0-2,0s-1.4,0-2.3,0c0-0.2,0-0.4,0-0.6s0-0.4,0-0.6c0.7,0,1.4,0,2,0
		c0.6,0,1.2,0,1.9,0c0.7,0,1.3,0,1.9,0c0.6,0,1.3,0,2,0c0,0.7,0,1.3,0,1.8s0,1.1,0,1.7c0,0.6,0,1.2,0,1.7s0,1.1,0,1.8H59.5z
		 M54.6,19C54.6,19,54.6,18.9,54.6,19c0,0,0.1,0,0.1,0c0.8,0,1.5,0,2,0c0.6,0,1.2,0,1.7,0c0.6,0,1.3,0,2,0c0,0,0.1,0,0.1,0
		c0,0,0,0,0,0c0,0,0,0,0,0.1c0,0.1,0,0.2,0,0.3s0,0.2,0,0.3s0,0.2,0,0.3c0,0.1,0,0.1,0,0.1c0,0,0,0-0.1,0c-0.8,0-1.5,0-2,0
		c-0.6,0-1.2,0-1.7,0c-0.6,0-1.3,0-2,0c0,0-0.1,0-0.1,0c0,0,0,0,0,0c0,0,0,0,0-0.1C54.6,19.7,54.6,19.3,54.6,19
		C54.6,19,54.6,19,54.6,19z"/>
	<polygon class="st3" points="47.7,41.2 45.4,39.2 42.8,41.2 42.8,34.7 47.7,34.7 	"/>
	<rect x="6.1" y="12.8" class="st2" width="32.1" height="24"/>
</g>
</svg>
