<?xml version="1.0" encoding="utf-8"?>
<!-- Generator: Adobe Illustrator 22.1.0, SVG Export Plug-In . SVG Version: 6.00 Build 0)  -->
<svg version="1.1" id="Capa_1" xmlns="http://www.w3.org/2000/svg" xmlns:xlink="http://www.w3.org/1999/xlink" x="0px" y="0px"
	 viewBox="0 0 142.9 48.6" style="enable-background:new 0 0 142.9 48.6;" xml:space="preserve">
<style type="text/css">
	.st0{fill:#FFFFFF;}
	.st1{fill:#FEED00;}
	.st2{fill:#884099;}
	.st3{fill:#1F201D;}
</style>
<rect class="st0" width="142.8" height="48.5"/>
<g>
	<rect x="59.5" y="10.7" class="st1" width="76.8" height="20.6"/>
	
		<rect x="65.1" y="13.1" transform="matrix(0.9958 -9.174339e-02 9.174339e-02 0.9958 -1.6196 6.7818)" width="15.6" height="15.8"/>
	<path class="st0" d="M64.5,21.4c-0.1-0.8-0.1-1.5-0.2-2.1s-0.1-1.3-0.2-2c-0.1-0.7-0.1-1.3-0.2-2c-0.1-0.6-0.1-1.3-0.2-2.1
		c0.8-0.1,1.5-0.1,2.2-0.2s1.3-0.1,2.1-0.2c0.7-0.1,1.4-0.1,2.1-0.2s1.4-0.1,2.2-0.2c0,0.2,0,0.4,0.1,0.6c0,0.2,0,0.4,0.1,0.6
		c-0.7,0.1-1.3,0.1-1.9,0.2s-1.1,0.1-1.8,0.2s-1.2,0.1-1.8,0.2c-0.6,0.1-1.2,0.1-1.9,0.2c0.1,0.7,0.1,1.3,0.2,1.8
		c0,0.5,0.1,1.1,0.2,1.7c0.1,0.6,0.1,1.2,0.2,1.7c0,0.5,0.1,1.1,0.2,1.8L64.5,21.4z M64.8,24.6l-0.6-6.1l1.2-0.1
		c0.1,0.6,0.1,1.1,0.1,1.5c0,0.4,0.1,0.9,0.1,1.5c0.1,0.6,0.1,1.1,0.1,1.5c0,0.4,0.1,0.9,0.1,1.5L64.8,24.6z M65.8,22.1
		c0.1,0.7,0.1,1.3,0.2,1.8c0,0.5,0.1,1.1,0.2,1.7c0.1,0.6,0.1,1.2,0.2,1.7c0,0.5,0.1,1.1,0.2,1.8c0.7-0.1,1.3-0.1,1.9-0.2
		s1.1-0.1,1.8-0.2c0.6-0.1,1.2-0.1,1.8-0.2c0.6-0.1,1.2-0.1,1.9-0.2c0,0.2,0,0.4,0.1,0.6c0,0.2,0,0.4,0.1,0.6
		c-0.8,0.1-1.5,0.1-2.2,0.2c-0.6,0.1-1.3,0.1-2.1,0.2c-0.7,0.1-1.4,0.1-2.1,0.2s-1.4,0.1-2.2,0.2c-0.1-0.8-0.1-1.5-0.2-2.1
		c-0.1-0.6-0.1-1.3-0.2-2c-0.1-0.7-0.1-1.3-0.2-2s-0.1-1.3-0.2-2.1L65.8,22.1z M73.6,29c-0.3-0.2-0.5-0.3-0.8-0.4
		c-0.2-0.7-0.4-1.3-0.6-1.8c-0.2-0.5-0.4-1.1-0.6-1.7c-0.2-0.6-0.4-1.1-0.6-1.7c-0.2-0.5-0.4-1.1-0.6-1.8c0.3-0.1,0.7-0.3,1.1-0.4
		c0.2,0.7,0.4,1.3,0.6,1.9c0.2,0.5,0.4,1.1,0.6,1.7c0.2,0.6,0.4,1.2,0.6,1.7c0.2,0.5,0.4,1.2,0.6,1.9C73.8,28.6,73.7,28.8,73.6,29z
		 M72.2,13.1c0.3,0.1,0.5,0.3,0.8,0.4c0.2,0.7,0.4,1.3,0.6,1.8s0.4,1.1,0.6,1.7s0.4,1.1,0.6,1.7c0.2,0.5,0.4,1.1,0.6,1.8
		c-0.4,0.1-0.7,0.2-1.1,0.4c-0.2-0.7-0.4-1.3-0.6-1.9c-0.2-0.5-0.4-1.1-0.6-1.7c-0.2-0.6-0.4-1.2-0.6-1.7c-0.2-0.5-0.4-1.2-0.6-1.9
		C72,13.5,72.1,13.3,72.2,13.1z M80,20c-0.1-0.7-0.1-1.3-0.2-1.8c0-0.5-0.1-1.1-0.2-1.7c-0.1-0.6-0.1-1.2-0.2-1.7s-0.1-1.1-0.2-1.8
		c-0.7,0.1-1.3,0.1-1.9,0.2c-0.6,0.1-1.1,0.1-1.8,0.2c-0.6,0.1-1.2,0.1-1.8,0.2c-0.6,0.1-1.2,0.1-1.9,0.2c0-0.2,0-0.4-0.1-0.6
		c0-0.2,0-0.4-0.1-0.6c0.8-0.1,1.5-0.1,2.2-0.2s1.3-0.1,2.1-0.2c0.7-0.1,1.4-0.1,2.1-0.2c0.6-0.1,1.4-0.1,2.2-0.2
		c0.1,0.8,0.1,1.5,0.2,2.1c0.1,0.6,0.1,1.3,0.2,2c0.1,0.7,0.1,1.3,0.2,2s0.1,1.3,0.2,2.1L80,20z M81.2,20.7c0.1,0.8,0.1,1.5,0.2,2.1
		c0.1,0.6,0.1,1.3,0.2,2c0.1,0.7,0.1,1.3,0.2,2c0.1,0.6,0.1,1.3,0.2,2.1c-0.8,0.1-1.5,0.1-2.2,0.2c-0.6,0.1-1.3,0.1-2.1,0.2
		c-0.7,0.1-1.4,0.1-2.1,0.2s-1.4,0.1-2.2,0.2c0-0.2,0-0.4-0.1-0.6c0-0.2,0-0.4-0.1-0.6c0.7-0.1,1.3-0.1,1.9-0.2
		c0.6-0.1,1.1-0.1,1.8-0.2c0.6-0.1,1.2-0.1,1.8-0.2c0.6-0.1,1.2-0.1,1.9-0.2c-0.1-0.7-0.1-1.3-0.2-1.8c0-0.5-0.1-1.1-0.2-1.7
		c-0.1-0.6-0.1-1.2-0.2-1.7c0-0.5-0.1-1.1-0.2-1.8L81.2,20.7z M81.4,23.1l-1.2,0.1c-0.1-0.6-0.1-1.1-0.1-1.5c0-0.4-0.1-0.9-0.1-1.5
		s-0.1-1.1-0.1-1.5c0-0.4-0.1-0.9-0.1-1.5l1.2-0.1L81.4,23.1z"/>
	<polyline points="39.2,36.2 58.4,36.2 61.8,33 42.5,33 	"/>
	<rect x="42.6" y="9.1" width="19.3" height="23.9"/>
	<rect x="43.9" y="10.6" width="17.9" height="20.6"/>
	<rect x="41.9" y="10.6" class="st2" width="18.8" height="20.6"/>
	<polygon points="42.6,32.9 39.2,36.2 39.2,12.4 42.6,9.1 	"/>
	<polygon class="st0" points="40.4,35 42.7,33.2 59.7,33.1 57.8,34.8 	"/>
	<rect x="47.3" y="13.4" class="st0" width="13" height="15.3"/>
	<path d="M46.3,19.9c0-0.7,0-1.3,0-1.8s0-1.1,0-1.7c0-0.6,0-1.2,0-1.7s0-1.1,0-1.8c0.7,0,1.4,0,2,0c0.6,0,1.2,0,1.9,0
		c0.7,0,1.3,0,1.9,0c0.6,0,1.2,0,2,0c0,0.2,0,0.4,0,0.6s0,0.4,0,0.6c-0.9,0-1.7,0-2.3,0c-0.6,0-1.3,0-2,0c-0.6,0-1.4,0-2.3,0
		c0,0.8,0,1.5,0,2.1s0,1.2,0,1.8s0,1.3,0,2.1H46.3z M46.3,24.1v-5.9h1.1c0,0.6,0,1.1,0,1.5c0,0.4,0,0.9,0,1.5c0,0.6,0,1.1,0,1.5
		c0,0.4,0,0.9,0,1.5H46.3z M53.7,29.4c-0.4,0-0.9,0-1.5,0c-0.6,0-1.3,0-1.9,0s-1.3,0-1.9,0s-1.3,0-2,0v-7.3h1.1v6.2
		c0.7,0,1.2,0,1.6,0c0.4,0,1,0,1.6,0c0.7,0,1.2,0,1.6,0c0.4,0,1,0,1.6,0c0-0.1,0-0.3,0-0.5c0-0.2,0-0.6,0-1.2s0-1.3,0-2.3
		c0.8,0,1.6,0,2.2,0c0.6,0,1.2,0,1.9,0c0.6,0,1.3,0,2.2,0c0-0.6,0-1.1,0-1.6c0-0.4,0-0.9,0-1.3c0-0.4,0-1,0-1.6h1.1v9.6
		c-0.6,0-1.2,0-1.8,0c-0.5,0-1.1,0-1.7,0s-1.1,0-1.7,0c-0.5,0-1,0-1.3,0c-0.3,0-0.5,0-0.6,0C54.4,29.4,54.1,29.4,53.7,29.4z
		 M60.2,19.9c0-0.8,0-1.5,0-2.1s0-1.2,0-1.8s0-1.3,0-2.1c-0.9,0-1.7,0-2.3,0c-0.6,0-1.3,0-2,0c-0.6,0-1.4,0-2.3,0c0-0.2,0-0.4,0-0.6
		s0-0.4,0-0.6c0.7,0,1.4,0,2,0c0.6,0,1.2,0,1.9,0c0.7,0,1.3,0,1.9,0c0.6,0,1.2,0,2,0c0,0.7,0,1.3,0,1.8s0,1.1,0,1.7
		c0,0.6,0,1.2,0,1.7s0,1.1,0,1.8H60.2z M55.4,18.5C55.4,18.5,55.4,18.5,55.4,18.5c0,0,0.1,0,0.1,0c0.8,0,1.4,0,2,0
		c0.6,0,1.1,0,1.7,0c0.6,0,1.2,0,2,0c0,0,0.1,0,0.1,0c0,0,0,0,0,0c0,0,0,0,0,0.1c0,0.1,0,0.2,0,0.3c0,0.1,0,0.2,0,0.3s0,0.2,0,0.3
		c0,0.1,0,0.1,0,0.1c0,0,0,0-0.1,0c-0.8,0-1.4,0-2,0c-0.6,0-1.1,0-1.7,0c-0.6,0-1.2,0-2,0c0,0-0.1,0-0.1,0c0,0,0,0,0,0
		c0,0,0,0,0-0.1C55.4,19.2,55.4,18.9,55.4,18.5C55.4,18.6,55.4,18.5,55.4,18.5z"/>
	<polygon class="st3" points="48.5,40.6 46.2,38.6 43.7,40.6 43.7,34.2 48.5,34.2 	"/>
	<rect x="7.3" y="12.4" class="st2" width="31.9" height="23.8"/>
</g>
</svg>
