<?xml version="1.0" encoding="utf-8"?>
<!-- Generator: Adobe Illustrator 22.1.0, SVG Export Plug-In . SVG Version: 6.00 Build 0)  -->
<svg version="1.1" id="Capa_1" xmlns="http://www.w3.org/2000/svg" xmlns:xlink="http://www.w3.org/1999/xlink" x="0px" y="0px"
	 viewBox="0 0 142.9 48.6" style="enable-background:new 0 0 142.9 48.6;" xml:space="preserve">
<style type="text/css">
	.st0{fill:#FEED00;}
	.st1{fill:#FFFFFF;}
	.st2{fill:#1F201D;}
</style>
<g>
	<polyline points="38.2,36.5 57.6,36.5 61,33.2 41.5,33.2 	"/>
	<rect x="41.6" y="9.2" width="19.4" height="24.1"/>
	<rect x="42.9" y="10.7" width="18.1" height="20.7"/>
	<rect x="41" y="10.7" class="st0" width="18.9" height="20.7"/>
	<polygon points="41.6,33.2 38.2,36.5 38.2,12.5 41.6,9.2 	"/>
	<polygon class="st1" points="39.4,35.3 41.7,33.5 58.8,33.4 56.9,35.1 	"/>
	<polygon class="st2" points="47.6,40.9 45.2,38.9 42.7,40.9 42.7,34.4 47.6,34.4 	"/>
	<rect x="12.8" y="12.5" class="st0" width="25.2" height="24"/>
	<rect x="51.1" y="10" width="9.4" height="21.6"/>
	<rect x="46.4" y="13.5" class="st1" width="13.1" height="15.5"/>
	<path d="M45.4,20c0-0.7,0-1.3,0-1.8s0-1.1,0-1.7s0-1.2,0-1.7s0-1.1,0-1.8c0.8,0,1.4,0,2,0s1.2,0,1.9,0s1.3,0,1.9,0c0.6,0,1.3,0,2,0
		c0,0.2,0,0.4,0,0.6c0,0.2,0,0.4,0,0.6c-0.9,0-1.7,0-2.3,0c-0.7,0-1.3,0-2,0s-1.4,0-2.3,0c0,0.8,0,1.5,0,2.1s0,1.2,0,1.8
		c0,0.6,0,1.3,0,2.1h-1.2C45.4,20.2,45.4,20,45.4,20z M45.4,24.3v-6h1.1c0,0.6,0,1.1,0,1.5s0,0.9,0,1.5s0,1.1,0,1.5s0,0.9,0,1.5
		H45.4z M52.8,29.6c-0.4,0-0.9,0-1.5,0s-1.3,0-2,0s-1.3,0-1.9,0c-0.6,0-1.3,0-2.1,0v-7.3h1.1v6.2c0.7,0,1.2,0,1.7,0c0.4,0,1,0,1.7,0
		s1.2,0,1.7,0c0.4,0,1,0,1.7,0c0-0.1,0-0.3,0-0.5s0-0.6,0-1.2s0-1.3,0-2.3c0.8,0,1.6,0,2.2,0c0.6,0,1.2,0,1.9,0c0.6,0,1.4,0,2.2,0
		c0-0.6,0-1.1,0-1.6s0-0.9,0-1.3s0-1,0-1.6h1.1v9.7c-0.7,0-1.2,0-1.8,0c-0.5,0-1.1,0-1.7,0c-0.6,0-1.2,0-1.7,0s-1,0-1.3,0
		s-0.5,0-0.6,0C53.5,29.6,53.2,29.6,52.8,29.6z M59.4,20c0-0.8,0-1.5,0-2.1s0-1.2,0-1.8c0-0.6,0-1.3,0-2.1c-0.9,0-1.7,0-2.3,0
		c-0.7,0-1.3,0-2,0s-1.4,0-2.3,0c0-0.2,0-0.4,0-0.6c0-0.2,0-0.4,0-0.6c0.7,0,1.4,0,2,0s1.2,0,1.9,0s1.3,0,1.9,0c0.6,0,1.3,0,2,0
		c0,0.7,0,1.3,0,1.8s0,1.1,0,1.7c0,0.6,0,1.2,0,1.7s0,1.1,0,1.8h-1.2C59.4,19.8,59.4,20,59.4,20z M54.5,18.7
		C54.5,18.7,54.5,18.6,54.5,18.7L54.5,18.7c0.9,0,1.6,0,2.1,0c0.6,0,1.2,0,1.7,0c0.6,0,1.3,0,2,0h0.1l0,0c0,0,0,0,0,0.1s0,0.2,0,0.3
		s0,0.2,0,0.3s0,0.2,0,0.3c0,0.1,0,0.1,0,0.1s0,0-0.1,0c-0.8,0-1.5,0-2,0c-0.6,0-1.2,0-1.7,0c-0.6,0-1.3,0-2,0h-0.1l0,0
		c0,0,0,0,0-0.1C54.5,19.4,54.5,19.1,54.5,18.7L54.5,18.7z"/>
</g>
</svg>
