<?xml version="1.0" encoding="utf-8"?>
<!-- Generator: Adobe Illustrator 22.1.0, SVG Export Plug-In . SVG Version: 6.00 Build 0)  -->
<svg version="1.1" id="Capa_1" xmlns="http://www.w3.org/2000/svg" xmlns:xlink="http://www.w3.org/1999/xlink" x="0px" y="0px"
	 viewBox="0 0 142.9 48.6" style="enable-background:new 0 0 142.9 48.6;" xml:space="preserve">
<style type="text/css">
	.st0{fill:#FFFFFF;}
</style>
<rect class="st0" width="142.8" height="48.5"/>
<polyline points="4.4,39 28.4,39.1 32.7,35 8.6,35 "/>
<rect x="8.7" y="5.2" width="24" height="29.7"/>
<rect x="31.6" y="7.2" width="104.5" height="25.6"/>
<rect x="11.2" y="7.2" class="st0" width="19.4" height="25.6"/>
<polygon points="8.7,34.9 4.4,39 4.4,9.3 8.7,5.2 "/>
<polygon class="st0" points="6,37.5 8.8,35.3 30,35.1 27.6,37.3 "/>
<rect x="14.6" y="10.6" class="st0" width="16.2" height="19.1"/>
<path d="M13.3,18.6c0-0.8,0-1.6,0-2.3c0-0.7,0-1.4,0-2.1c0-0.8,0-1.5,0-2.1c0-0.7,0-1.4,0-2.3c0.9,0,1.8,0,2.5,0c0.7,0,1.5,0,2.3,0
	c0.8,0,1.6,0,2.3,0c0.7,0,1.5,0,2.5,0c0,0.2,0,0.5,0,0.7c0,0.2,0,0.5,0,0.7c-1.1,0-2.1,0-2.9,0c-0.8,0-1.6,0-2.4,0
	c-0.8,0-1.8,0-2.9,0c0,1,0,1.8,0,2.6c0,0.7,0,1.5,0,2.2c0,0.7,0,1.6,0,2.6H13.3z M13.3,23.9v-7.4h1.4c0,0.7,0,1.4,0,1.8s0,1.1,0,1.8
	c0,0.7,0,1.4,0,1.8c0,0.5,0,1.1,0,1.8H13.3z M22.6,30.5c-0.5,0-1.1,0-1.9,0c-0.8,0-1.6,0-2.4,0s-1.6,0-2.4,0c-0.8,0-1.6,0-2.5,0
	v-9.1h1.4v7.7c0.8,0,1.5,0,2,0c0.5,0,1.2,0,2,0c0.8,0,1.5,0,2,0c0.5,0,1.2,0,2,0c0-0.1,0-0.3,0-0.6s0-0.8,0-1.5c0-0.7,0-1.6,0-2.9
	c1,0,2,0,2.7,0c0.8,0,1.5,0,2.3,0c0.8,0,1.7,0,2.7,0c0-0.8,0-1.4,0-2s0-1.1,0-1.7s0-1.2,0-2h1.4v11.9c-0.8,0-1.5,0-2.2,0
	c-0.6,0-1.3,0-2.1,0c-0.7,0-1.4,0-2.1,0s-1.2,0-1.6,0c-0.4,0-0.7,0-0.7,0C23.3,30.5,23.1,30.5,22.6,30.5z M30.6,18.6
	c0-1,0-1.8,0-2.6c0-0.7,0-1.5,0-2.2c0-0.7,0-1.6,0-2.6c-1.1,0-2.1,0-2.9,0s-1.6,0-2.4,0c-0.8,0-1.8,0-2.9,0c0-0.2,0-0.5,0-0.7
	c0-0.2,0-0.5,0-0.7c0.9,0,1.8,0,2.5,0c0.7,0,1.5,0,2.3,0c0.8,0,1.6,0,2.3,0c0.7,0,1.5,0,2.5,0c0,0.8,0,1.6,0,2.3c0,0.7,0,1.4,0,2.1
	c0,0.8,0,1.5,0,2.1c0,0.7,0,1.4,0,2.3H30.6z M24.6,17C24.6,16.9,24.6,16.9,24.6,17c0.1,0,0.1,0,0.1,0c1,0,1.8,0,2.5,0
	c0.7,0,1.4,0,2.1,0c0.7,0,1.6,0,2.5,0c0,0,0.1,0,0.1,0c0,0,0,0,0,0c0,0,0,0.1,0,0.1c0,0.2,0,0.3,0,0.4s0,0.2,0,0.3s0,0.2,0,0.4
	c0,0.1,0,0.1,0,0.1c0,0-0.1,0-0.1,0c-1,0-1.8,0-2.5,0c-0.7,0-1.4,0-2.1,0c-0.7,0-1.6,0-2.5,0c0,0-0.1,0-0.1,0c0,0,0,0,0,0
	c0,0,0-0.1,0-0.1C24.6,17.8,24.6,17.4,24.6,17C24.6,17,24.6,17,24.6,17z"/>
<polygon points="16.1,44.4 13.2,41.9 10,44.4 10,36.5 16.1,36.5 "/>
<rect x="31.8" y="10.3" class="st0" width="18.1" height="19.4"/>
<rect x="49.9" y="14.2" class="st0" width="19.4" height="15.5"/>
<path d="M40.2,19V9.9c0.7,0,1.4,0,1.9,0s1.1,0,1.7,0s1,0,1.4,0c0.4,0,0.6,0,0.6,0c0,0,0.2,0,0.6,0c0.4,0,0.8,0,1.3,0
	c0.5,0,1,0,1.5,0s1.1,0,1.8,0V19h-1.4v-7.7c-0.8,0-1.5,0-2,0c-0.5,0-0.9,0-1.2,0c-0.3,0-0.5,0-0.7,0c-0.9,0-1.6,0-2.1,0
	c-0.6,0-1.3,0-2.1,0V19H40.2z M40.2,15h1.4c0,1.9,0,3.8,0,6v0.2v0.2c0,2.3,0,4.5,0,6.7h-1.4V15z M40.2,21h1.4v5.2
	c0,0,0.1,0.2,0.3,0.4c0.2,0.2,0.4,0.4,0.7,0.7c0.3,0.3,0.5,0.5,0.8,0.8c0.3,0.3,0.5,0.5,0.7,0.7c0.2,0.2,0.3,0.3,0.4,0.3
	c0.7,0,1.3,0,1.9,0c0.5,0,1,0,1.6,0c0.5,0,1.1,0,1.9,0c0-0.5,0-1,0-1.5s0-1,0-1.5s0-1,0-1.5s0-1,0-1.5V21h1.4v9.5
	c-0.7,0-1.4,0-1.9,0c-0.5,0-1.1,0-1.6,0s-1,0-1.4,0c-0.4,0-0.6,0-0.6,0c0,0-0.2,0-0.6,0s-0.8,0-1.4,0c-0.5,0-1.1,0-1.6,0
	c-0.5,0-1.1,0-1.9,0V21z M51.1,17.9V26h-1.4c0-0.5,0-0.9,0-1.2c0-0.3,0-0.5,0-0.7s0-0.5,0-0.8s0-0.8,0-1.3c0-0.6,0-1,0-1.4
	c0-0.4,0-0.7,0-1.1c0-0.4,0-0.9,0-1.5H51.1z"/>
<path d="M49.7,23.3c0-1,0-1.8,0-2.5c0-0.7,0-1.5,0-2.4c0-0.8,0-1.6,0-2.4c0-0.7,0-1.6,0-2.5c1,0,1.8,0,2.6,0c0.8,0,1.6,0,2.4,0
	c0.8,0,1.7,0,2.4,0c0.8,0,1.4,0,2,0c0.5,0,0.8,0,0.9,0c0,0.2,0,0.5,0,0.7c0,0.2,0,0.5,0,0.7c-0.8,0-1.5,0-2.1,0s-1.2,0-1.8,0
	s-1.3,0-2.1,0c0,0-0.2,0.1-0.4,0.3c-0.2,0.2-0.4,0.4-0.7,0.7c-0.3,0.3-0.6,0.5-0.8,0.8c-0.3,0.3-0.5,0.5-0.7,0.7
	c-0.2,0.2-0.3,0.3-0.3,0.4v5.6H49.7z M49.7,26v-8.1h1.4c0,0.5,0,0.9,0,1.2c0,0.3,0,0.5,0,0.7s0,0.5,0,0.8c0,0.3,0,0.8,0,1.3
	c0,0.6,0,1,0,1.4s0,0.7,0,1.1c0,0.4,0,0.9,0,1.5H49.7z M51.1,20.7v5.6c0,0,0.1,0.2,0.3,0.4c0.2,0.2,0.4,0.4,0.7,0.7
	c0.3,0.3,0.5,0.5,0.8,0.8c0.3,0.3,0.5,0.5,0.7,0.7c0.2,0.2,0.3,0.3,0.4,0.3c0.8,0,1.5,0,2.1,0s1.2,0,1.8,0s1.3,0,2.1,0
	c0,0.2,0,0.5,0,0.7c0,0.2,0,0.5,0,0.7c-0.1,0-0.4,0-0.9,0c-0.5,0-1.2,0-2,0c-0.8,0-1.6,0-2.4,0c-0.9,0-1.7,0-2.4,0
	c-0.8,0-1.6,0-2.6,0c0-1,0-1.8,0-2.5c0-0.7,0-1.5,0-2.4c0-0.8,0-1.6,0-2.4s0-1.6,0-2.5H51.1z M59.1,22c0-0.6,0-1.3,0-2.2
	c0-0.1,0-0.1,0-0.1c0,0,0.1,0,0.1,0c0.1,0,0.3,0,0.4,0s0.2,0,0.4,0c0.1,0,0.2,0,0.4,0c0.1,0,0.1,0,0.1,0c0,0,0,0.1,0,0.1
	c0,0.9,0,1.6,0,2.2c0,0.6,0,1.3,0,2.2c0,0.1,0,0.1,0,0.1c0,0-0.1,0-0.1,0c-0.2,0-0.4,0-0.6,0s-0.4,0-0.6,0c-0.1,0-0.1,0-0.1,0
	s0-0.1,0-0.1C59.1,23.3,59.1,22.5,59.1,22z M68.4,23.3v-5.6c0,0-0.1-0.2-0.3-0.4c-0.2-0.2-0.4-0.4-0.7-0.7c-0.3-0.3-0.5-0.5-0.8-0.8
	c-0.3-0.3-0.5-0.5-0.7-0.7c-0.2-0.2-0.3-0.3-0.4-0.3c-0.8,0-1.5,0-2.1,0c-0.6,0-1.2,0-1.8,0s-1.3,0-2.1,0c0-0.2,0-0.5,0-0.7
	c0-0.2,0-0.5,0-0.7c0.1,0,0.4,0,0.9,0c0.5,0,1.2,0,2,0c0.8,0,1.6,0,2.4,0c0.9,0,1.7,0,2.4,0c0.8,0,1.6,0,2.6,0c0,1,0,1.8,0,2.5
	c0,0.7,0,1.5,0,2.4c0,0.8,0,1.6,0,2.4c0,0.7,0,1.6,0,2.5H68.4z M69.8,20.7c0,0.9,0,1.8,0,2.5s0,1.5,0,2.4c0,0.8,0,1.6,0,2.4
	c0,0.7,0,1.6,0,2.5c-1,0-1.8,0-2.6,0c-0.8,0-1.6,0-2.4,0c-0.9,0-1.7,0-2.4,0c-0.8,0-1.4,0-2,0c-0.5,0-0.8,0-0.9,0c0-0.2,0-0.5,0-0.7
	c0-0.2,0-0.5,0-0.7c0.8,0,1.5,0,2.1,0s1.2,0,1.8,0c0.6,0,1.3,0,2.1,0c0,0,0.2-0.1,0.4-0.3c0.2-0.2,0.4-0.4,0.7-0.7
	c0.3-0.3,0.6-0.5,0.8-0.8c0.3-0.3,0.5-0.5,0.7-0.7c0.2-0.2,0.3-0.3,0.3-0.4v-5.6H69.8z M69.8,26h-1.4c0-0.6,0-1.2,0-1.5
	c0-0.4,0-0.8,0-1.1s0-0.8,0-1.4c0-0.6,0-1,0-1.3c0-0.3,0-0.6,0-0.8s0-0.4,0-0.7c0-0.3,0-0.7,0-1.2h1.4V26z"/>
<path d="M30.6,18.6c0-0.5,0-1,0-1.6c0-0.6,0-1.2,0-1.8c0-0.6,0-1.2,0-1.9s0-1.2,0-1.8c0-0.6,0-1.2,0-1.7c0.7,0,1.4,0,1.9,0
	s1.1,0,1.6,0c0.5,0,1.2,0,1.9,0c0.1,0.2,0.1,0.4,0.1,0.7c0,0.3,0,0.5-0.1,0.7c-0.2,0-0.5,0-0.8,0c-0.3,0-0.6,0-1,0
	c-0.3,0-0.7,0-1.1,0s-0.8,0-1.2,0c0,1,0,1.8,0,2.6c0,0.7,0,1.5,0,2.2c0,0.7,0,1.6,0,2.6H30.6z M30.6,19.7c0-0.3,0-0.8,0-1.3
	s0-1.1,0-1.8c0-0.6,0-1.2,0-1.8c0-0.6,0-1,0-1.4c0,0,0.1,0,0.1,0c0,0,0.1,0,0.1,0c0,0,0.1,0,0.1,0c0.1,0,0.2,0,0.3,0s0.3,0,0.5,0
	c0.2,0,0.3,0,0.4,0c0.4,0,0.8,0,1.1,0c0.3,0,0.6,0,0.9,0c0.3,0,0.5,0,0.7,0c0.2,0,0.4,0,0.5,0c0.2,0,0.3,0,0.4,0c0.1,0,0.2,0,0.3,0
	c0,0.3,0,0.5,0,0.7s0,0.4,0,0.7c-0.6,0-1,0-1.4,0c-0.4,0-0.8,0-1.2,0c-0.4,0-0.9,0-1.4,0c0,0.4,0,0.7,0,1c0,0.2,0,0.4,0,0.5
	c0,0.1,0,0.2,0,0.3c0,0.4,0,0.7,0,1.1s0,0.7,0,1c0,0.4,0,0.7,0,1.1H30.6z M30.6,17.9h1.4c0,0.6,0,1.2,0,1.5c0,0.4,0,0.8,0,1.1
	s0,0.8,0,1.4c0,0.6,0,1,0,1.3c0,0.3,0,0.6,0,0.8c0,0.2,0,0.4,0,0.7c0,0.3,0,0.7,0,1.2h-1.4V17.9z M30.6,21.7h1.4c0,1,0,1.8,0,2.6
	s0,1.5,0,2.2c0,0.7,0,1.6,0,2.6c0.4,0,0.8,0,1.2,0s0.7,0,1.1,0c0.3,0,0.7,0,1,0c0.3,0,0.6,0,0.8,0c0.1,0.2,0.1,0.4,0.1,0.7
	c0,0.3,0,0.5-0.1,0.7c-0.7,0-1.4,0-1.9,0c-0.5,0-1.1,0-1.6,0s-1.2,0-1.9,0c0-0.5,0-1.1,0-1.7s0-1.2,0-1.8c0-0.6,0-1.2,0-1.9
	c0-0.6,0-1.2,0-1.8C30.6,22.8,30.6,22.2,30.6,21.7z M41.6,18.6h-1.4c0-1,0-1.8,0-2.6c0-0.7,0-1.5,0-2.2c0-0.7,0-1.6,0-2.6
	c-0.4,0-0.8,0-1.2,0c-0.4,0-0.8,0-1.1,0c-0.3,0-0.7,0-1,0c-0.3,0-0.6,0-0.8,0C36,11.1,36,10.9,36,10.6c0-0.3,0-0.5,0.1-0.7
	c0.7,0,1.4,0,1.9,0s1.1,0,1.6,0s1.2,0,1.9,0c0,0.5,0,1.1,0,1.7c0,0.6,0,1.2,0,1.8s0,1.2,0,1.9c0,0.6,0,1.2,0,1.8
	C41.6,17.6,41.6,18.2,41.6,18.6z M41.6,21.7c0,0.5,0,1,0,1.6c0,0.6,0,1.2,0,1.8c0,0.6,0,1.2,0,1.9c0,0.6,0,1.2,0,1.8s0,1.2,0,1.7
	c-0.7,0-1.4,0-1.9,0s-1.1,0-1.6,0s-1.2,0-1.9,0C36,30.3,36,30.1,36,29.8c0-0.3,0-0.5,0.1-0.7c0.2,0,0.5,0,0.8,0c0.3,0,0.6,0,1,0
	c0.3,0,0.7,0,1.1,0c0.4,0,0.8,0,1.2,0c0-1,0-1.8,0-2.6c0-0.7,0-1.5,0-2.2s0-1.6,0-2.6H41.6z M41.6,19.7h-1.4c0-0.4,0-0.7,0-1.1
	c0-0.4,0-0.7,0-1s0-0.7,0-1.1c0-0.1,0-0.2,0-0.3c0-0.1,0-0.3,0-0.5c0-0.2,0-0.6,0-1c-0.8,0-1.5,0-2,0c-0.5,0-1.2,0-2,0
	c0-0.3,0-0.5,0-0.7s0-0.4,0-0.7c0.2,0,0.3,0,0.5,0c0.2,0,0.4,0,0.7,0c0.3,0,0.7,0,1.1,0c0.4,0,0.9,0,1.5,0c0.1,0,0.2,0,0.4,0
	c0.2,0,0.3,0,0.5,0c0.2,0,0.3,0,0.3,0c0,0,0.1,0,0.1,0c0,0,0.1,0,0.1,0c0,0,0.1,0,0.1,0c0,0.4,0,0.8,0,1.4c0,0.6,0,1.2,0,1.8
	c0,0.6,0,1.2,0,1.8S41.6,19.4,41.6,19.7z M41.6,17.9V26h-1.4c0-0.5,0-0.9,0-1.2c0-0.3,0-0.5,0-0.7c0-0.2,0-0.5,0-0.8
	c0-0.3,0-0.8,0-1.3c0-0.6,0-1,0-1.4s0-0.7,0-1.1c0-0.4,0-0.9,0-1.5H41.6z"/>
<path class="st0" d="M70.8,20.6c-0.1-1-0.2-1.9-0.3-2.7c-0.1-0.8-0.2-1.7-0.2-2.6c-0.1-0.9-0.2-1.8-0.2-2.6
	c-0.1-0.8-0.2-1.7-0.3-2.8c1.1-0.1,2-0.2,2.9-0.3s1.7-0.2,2.7-0.2c1-0.1,1.8-0.2,2.7-0.2S79.9,9,81,8.9c0,0.2,0,0.5,0.1,0.8
	s0,0.5,0.1,0.8c-0.9,0.1-1.8,0.2-2.5,0.2s-1.5,0.1-2.3,0.2C75.5,11,74.7,11,74,11.1c-0.7,0.1-1.6,0.1-2.5,0.2
	c0.1,0.9,0.2,1.7,0.2,2.3c0.1,0.7,0.1,1.4,0.2,2.2c0.1,0.8,0.1,1.5,0.2,2.2c0.1,0.7,0.1,1.5,0.2,2.3L70.8,20.6z M71.2,24.7l-0.7-8
	l1.5-0.1c0.1,0.8,0.1,1.5,0.2,2c0,0.5,0.1,1.2,0.2,2c0.1,0.8,0.1,1.5,0.2,2c0,0.5,0.1,1.2,0.2,2L71.2,24.7z M72.4,21.5
	c0.1,0.9,0.2,1.7,0.2,2.3c0.1,0.7,0.1,1.4,0.2,2.2c0.1,0.8,0.1,1.5,0.2,2.2c0.1,0.7,0.1,1.5,0.2,2.4c0.9-0.1,1.8-0.2,2.5-0.2
	c0.7-0.1,1.5-0.1,2.3-0.2c0.8-0.1,1.6-0.1,2.3-0.2c0.7-0.1,1.6-0.1,2.5-0.2c0,0.2,0,0.5,0.1,0.8c0,0.3,0,0.5,0.1,0.8
	c-1.1,0.1-2,0.2-2.9,0.3c-0.8,0.1-1.7,0.2-2.7,0.2c-1,0.1-1.8,0.2-2.7,0.2c-0.8,0.1-1.8,0.2-2.9,0.3c-0.1-1-0.2-1.9-0.3-2.8
	c-0.1-0.8-0.2-1.7-0.2-2.6c-0.1-0.9-0.2-1.8-0.2-2.6c-0.1-0.8-0.2-1.7-0.3-2.7L72.4,21.5z M82.6,30.4c-0.4-0.2-0.7-0.4-1-0.6
	c-0.3-0.9-0.6-1.6-0.8-2.3c-0.2-0.7-0.5-1.4-0.7-2.2c-0.3-0.8-0.5-1.5-0.7-2.2c-0.2-0.7-0.5-1.5-0.8-2.3c0.5-0.2,0.9-0.3,1.4-0.5
	c0.3,0.9,0.6,1.7,0.8,2.4c0.2,0.7,0.5,1.5,0.8,2.3c0.3,0.8,0.5,1.5,0.8,2.3c0.2,0.7,0.5,1.5,0.8,2.4C82.9,30,82.8,30.2,82.6,30.4z
	 M80.8,9.7c0.3,0.2,0.7,0.4,1,0.6c0.3,0.9,0.6,1.6,0.8,2.3c0.2,0.7,0.5,1.4,0.7,2.2c0.3,0.8,0.5,1.5,0.7,2.2
	c0.2,0.7,0.5,1.5,0.8,2.3c-0.5,0.2-0.9,0.3-1.4,0.5c-0.3-0.9-0.6-1.7-0.8-2.4c-0.2-0.7-0.5-1.5-0.8-2.3c-0.3-0.8-0.5-1.5-0.8-2.3
	c-0.2-0.7-0.5-1.5-0.8-2.4C80.5,10.2,80.7,9.9,80.8,9.7z M91,18.7c-0.1-0.9-0.2-1.7-0.2-2.3c-0.1-0.7-0.1-1.4-0.2-2.2
	c-0.1-0.8-0.1-1.5-0.2-2.2c-0.1-0.7-0.1-1.5-0.2-2.3c-0.9,0.1-1.8,0.2-2.5,0.2S86.2,10,85.4,10c-0.8,0.1-1.6,0.1-2.3,0.2
	c-0.7,0.1-1.6,0.1-2.5,0.2c0-0.3,0-0.5-0.1-0.8s0-0.5-0.1-0.8c1.1-0.1,2-0.2,2.9-0.3S85,8.5,86,8.4c1-0.1,1.8-0.2,2.7-0.2
	c0.8-0.1,1.8-0.2,2.9-0.3c0.1,1,0.2,1.9,0.3,2.8c0.1,0.8,0.2,1.7,0.2,2.6c0.1,0.9,0.2,1.8,0.2,2.6c0.1,0.8,0.2,1.7,0.3,2.7L91,18.7z
	 M92.6,19.6c0.1,1,0.2,1.9,0.3,2.7c0.1,0.8,0.2,1.7,0.2,2.6c0.1,0.9,0.2,1.8,0.2,2.6c0.1,0.8,0.2,1.7,0.3,2.8
	c-1.1,0.1-2,0.2-2.9,0.3c-0.8,0.1-1.7,0.2-2.7,0.2c-1,0.1-1.8,0.2-2.7,0.2c-0.8,0.1-1.8,0.2-2.9,0.3c0-0.3,0-0.5-0.1-0.8
	c0-0.3,0-0.5-0.1-0.8c0.9-0.1,1.8-0.2,2.5-0.2c0.7-0.1,1.5-0.1,2.3-0.2c0.8-0.1,1.6-0.1,2.3-0.2s1.6-0.1,2.5-0.2
	c-0.1-0.9-0.2-1.7-0.2-2.4c-0.1-0.7-0.1-1.4-0.2-2.2c-0.1-0.8-0.1-1.5-0.2-2.2c-0.1-0.7-0.1-1.5-0.2-2.3L92.6,19.6z M92.9,22.7
	l-1.5,0.1c-0.1-0.8-0.1-1.5-0.2-2s-0.1-1.2-0.2-2c-0.1-0.8-0.1-1.5-0.2-2c0-0.5-0.1-1.2-0.2-2l1.5-0.1L92.9,22.7z"/>
<path class="st0" d="M91.4,22.6c-0.1-1-0.2-1.9-0.3-2.8C91,19,91,18.2,90.9,17.3s-0.2-1.8-0.2-2.6c-0.1-0.8-0.2-1.7-0.3-2.8
	c1-0.1,1.9-0.2,2.8-0.3s1.7-0.2,2.6-0.2c0.9-0.1,1.8-0.2,2.6-0.2c0.8-0.1,1.6-0.1,2.1-0.2c0.6-0.1,0.9-0.1,1-0.1
	c0,0.2,0,0.5,0.1,0.8c0,0.3,0,0.5,0.1,0.8c-0.9,0.1-1.6,0.2-2.3,0.2s-1.3,0.1-1.9,0.2c-0.6,0.1-1.4,0.1-2.3,0.2c0,0-0.2,0.1-0.4,0.3
	c-0.2,0.2-0.4,0.5-0.7,0.8c-0.3,0.3-0.6,0.6-0.8,1s-0.5,0.6-0.7,0.8c-0.2,0.2-0.3,0.4-0.3,0.4l0.6,6.1L91.4,22.6z M91.6,25.5
	l-0.8-8.8l1.5-0.1c0.1,0.6,0.1,1,0.1,1.3c0,0.3,0.1,0.6,0.1,0.8c0,0.2,0,0.5,0.1,0.8c0,0.3,0.1,0.8,0.1,1.4c0.1,0.6,0.1,1.1,0.1,1.5
	s0.1,0.8,0.1,1.2c0,0.4,0.1,1,0.2,1.7L91.6,25.5z M92.6,19.6l0.6,6.1c0,0,0.1,0.2,0.3,0.4c0.2,0.2,0.5,0.4,0.8,0.7
	c0.3,0.3,0.6,0.5,1,0.8c0.3,0.3,0.6,0.5,0.8,0.7c0.2,0.2,0.4,0.3,0.4,0.2c0.9-0.1,1.6-0.2,2.3-0.2c0.6-0.1,1.3-0.1,1.9-0.2
	c0.6-0.1,1.4-0.1,2.3-0.2c0,0.2,0,0.5,0.1,0.8c0,0.3,0,0.5,0.1,0.8c-0.1,0-0.4,0-1,0.1c-0.6,0.1-1.3,0.1-2.1,0.2
	c-0.8,0.1-1.7,0.2-2.6,0.2c-0.9,0.1-1.8,0.2-2.6,0.2c-0.8,0.1-1.7,0.2-2.8,0.3c-0.1-1-0.2-1.9-0.3-2.8c-0.1-0.8-0.2-1.7-0.2-2.6
	c-0.1-0.9-0.2-1.8-0.2-2.6c-0.1-0.8-0.2-1.7-0.3-2.7L92.6,19.6z M101.3,20.2c-0.1-0.6-0.1-1.4-0.2-2.4c0-0.1,0-0.1,0-0.1
	c0,0,0.1,0,0.1,0c0.1,0,0.3,0,0.4,0c0.1,0,0.3,0,0.4,0c0.1,0,0.3,0,0.4,0c0.1,0,0.1,0,0.1,0c0,0,0,0.1,0,0.1c0.1,1,0.2,1.7,0.2,2.4
	c0.1,0.6,0.1,1.4,0.2,2.4c0,0.1,0,0.1,0,0.1c0,0-0.1,0-0.1,0c-0.2,0-0.4,0-0.6,0.1c-0.2,0-0.4,0-0.6,0.1c-0.1,0-0.1,0-0.1,0
	c0,0,0-0.1,0-0.1C101.4,21.6,101.4,20.8,101.3,20.2z M111.5,20.7l-0.6-6.1c0,0-0.1-0.2-0.3-0.4c-0.2-0.2-0.5-0.4-0.8-0.7
	c-0.3-0.3-0.6-0.5-1-0.8c-0.3-0.3-0.6-0.5-0.8-0.7c-0.2-0.2-0.4-0.3-0.4-0.2c-0.9,0.1-1.6,0.2-2.3,0.2c-0.6,0.1-1.3,0.1-1.9,0.2
	c-0.6,0.1-1.4,0.1-2.3,0.2c0-0.3,0-0.5-0.1-0.8c0-0.3,0-0.5-0.1-0.8c0.1,0,0.4,0,1-0.1c0.6-0.1,1.3-0.1,2.1-0.2
	c0.8-0.1,1.7-0.2,2.6-0.2c0.9-0.1,1.8-0.2,2.6-0.2c0.8-0.1,1.7-0.2,2.8-0.3c0.1,1,0.2,1.9,0.3,2.8c0.1,0.8,0.2,1.7,0.2,2.6
	s0.2,1.8,0.2,2.6c0.1,0.8,0.2,1.7,0.3,2.8L111.5,20.7z M112.8,17.8c0.1,1,0.2,1.9,0.3,2.7c0.1,0.8,0.2,1.7,0.2,2.6
	c0.1,0.9,0.2,1.8,0.2,2.6c0.1,0.8,0.2,1.7,0.3,2.8c-1,0.1-1.9,0.2-2.8,0.3c-0.8,0.1-1.7,0.2-2.6,0.2c-0.9,0.1-1.8,0.2-2.6,0.2
	c-0.8,0.1-1.6,0.1-2.1,0.2c-0.6,0.1-0.9,0.1-1,0.1c0-0.3,0-0.5-0.1-0.8c0-0.3,0-0.5-0.1-0.8c0.9-0.1,1.6-0.2,2.3-0.2
	c0.6-0.1,1.3-0.1,1.9-0.2c0.6-0.1,1.4-0.1,2.3-0.2c0,0,0.2-0.1,0.4-0.3c0.2-0.2,0.4-0.5,0.7-0.8c0.3-0.3,0.5-0.6,0.8-1
	c0.3-0.3,0.5-0.6,0.7-0.8c0.2-0.2,0.3-0.4,0.3-0.4l-0.6-6.1L112.8,17.8z M113.3,23.5l-1.5,0.1c-0.1-0.7-0.1-1.3-0.2-1.7
	c0-0.4-0.1-0.8-0.1-1.2c0-0.4-0.1-0.9-0.1-1.5c-0.1-0.6-0.1-1.1-0.1-1.4c0-0.3-0.1-0.6-0.1-0.8c0-0.2,0-0.5-0.1-0.8
	c0-0.3-0.1-0.7-0.1-1.3l1.5-0.1L113.3,23.5z"/>
<path class="st0" d="M111.6,21.1c-0.1-1.1-0.2-2-0.3-2.8s-0.2-1.7-0.2-2.7c-0.1-0.9-0.2-1.8-0.2-2.7c-0.1-0.8-0.2-1.8-0.3-2.8
	c1.2-0.1,2.3-0.2,3.3-0.3c1-0.1,2-0.2,3.1-0.3c1.1-0.1,2.2-0.2,3.1-0.3c1-0.1,1.8-0.2,2.5-0.2c0.7-0.1,1-0.1,1.1-0.1
	c0,0.3,0,0.5,0.1,0.8c0,0.2,0,0.5,0.1,0.8c-1.1,0.1-2.1,0.2-3,0.3c-0.9,0.1-1.8,0.2-2.8,0.3c-1,0.1-1.9,0.2-2.8,0.3
	c-0.9,0.1-1.9,0.2-3,0.3c0.1,1.3,0.2,2.4,0.3,3.3c0.1,0.9,0.2,1.9,0.3,2.8c0.1,0.9,0.2,2,0.3,3.3L111.6,21.1z M111,15l1.5-0.1
	c0.1,0.7,0.1,1.3,0.2,1.7c0,0.4,0.1,0.8,0.1,1.2c0,0.4,0.1,0.9,0.1,1.5c0.1,0.6,0.1,1.1,0.1,1.4c0,0.3,0.1,0.6,0.1,0.8
	c0,0.2,0,0.5,0.1,0.8c0,0.3,0.1,0.7,0.1,1.3l-1.5,0.1L111,15z M125,27.3c-1.2,0.1-2.3,0.2-3.3,0.3c-1,0.1-2,0.2-3.1,0.3
	c-1.1,0.1-2.1,0.2-3.1,0.3c-1,0.1-2.1,0.2-3.3,0.3c-0.1-1.6-0.3-3-0.4-4.2c-0.1-1.2-0.2-2.3-0.3-3.4s-0.2-2-0.3-3l1.5-0.1l0.6,6.1
	c0,0,0.1,0.2,0.3,0.4c0.2,0.2,0.5,0.4,0.8,0.7c0.3,0.3,0.6,0.5,1,0.8c0.3,0.3,0.6,0.5,0.8,0.7c0.2,0.2,0.4,0.3,0.4,0.2
	c0.8-0.1,1.4-0.1,2-0.2c0.6-0.1,1.1-0.1,1.7-0.2c0.6-0.1,1.2-0.1,2-0.2c0.3-0.5,0.5-0.9,0.7-1.3c0.2-0.4,0.4-0.7,0.6-1.1
	c0.2-0.4,0.4-0.8,0.7-1.3l0.2,0c0.2,0.5,0.4,1,0.5,1.6c0.1,0.6,0.2,1.1,0.2,1.7C125.2,26.3,125.1,26.8,125,27.3z M119,10.5
	c0.4,0,0.8-0.1,1.2-0.1c0,0,0.1,0,0.1,0c0,0,0,0,0,0c0,0,0,0,0,0c0,0,0,0,0,0.1c0.1,0.8,0.1,1.5,0.2,2.1c0.1,0.6,0.1,1.3,0.2,2
	c0.1,0.7,0.1,1.4,0.2,2c0.1,0.6,0.1,1.3,0.2,2.1c0,0.1,0,0.1,0,0.1c0,0,0,0,0,0c0,0-0.1,0-0.1,0c-0.4,0-0.8,0.1-1.2,0.1
	c-0.1,0-0.1,0-0.1,0c0,0,0,0,0,0c0,0,0-0.1,0-0.1c-0.1-0.8-0.1-1.5-0.2-2.1c-0.1-0.6-0.1-1.3-0.2-2c-0.1-0.7-0.1-1.4-0.2-2
	c-0.1-0.6-0.1-1.3-0.2-2.1c0,0,0-0.1,0-0.1c0,0,0,0,0,0C118.8,10.5,118.8,10.5,119,10.5C118.9,10.5,118.9,10.5,119,10.5z
	 M135.5,18.9c-0.1-1.3-0.2-2.4-0.3-3.3c-0.1-0.9-0.2-1.9-0.3-2.8c-0.1-0.9-0.2-2-0.3-3.3c-1.1,0.1-2.1,0.2-3,0.3
	c-0.9,0.1-1.8,0.2-2.8,0.3c-1,0.1-1.9,0.2-2.8,0.3s-1.9,0.2-3,0.3c0-0.3-0.1-0.5-0.1-0.8c0-0.2,0-0.5-0.1-0.8c0.1,0,0.4,0,1.1-0.1
	s1.5-0.1,2.5-0.2c1-0.1,2-0.2,3.2-0.3c1.1-0.1,2.1-0.2,3.1-0.3c1-0.1,2.1-0.2,3.3-0.3c0.1,1.1,0.2,2,0.3,2.8
	c0.1,0.8,0.2,1.7,0.2,2.7c0.1,0.9,0.2,1.8,0.2,2.7s0.2,1.8,0.3,2.8L135.5,18.9z M124.5,25.8c-0.1-0.6-0.2-1.1-0.2-1.7
	c0-0.6,0.1-1.1,0.2-1.6l0.2,0c0.3,0.4,0.6,0.8,0.9,1.1c0.3,0.3,0.5,0.6,0.8,0.9c0.3,0.3,0.6,0.7,0.9,1.1c0.8-0.1,1.4-0.1,2-0.2
	c0.6-0.1,1.1-0.1,1.7-0.2c0.6-0.1,1.2-0.1,2-0.2c0,0,0.2-0.1,0.4-0.3c0.2-0.2,0.4-0.5,0.7-0.8c0.3-0.3,0.5-0.6,0.8-1
	c0.3-0.3,0.5-0.6,0.7-0.8c0.2-0.2,0.3-0.4,0.3-0.4l-0.6-6.1l1.5-0.1c0.1,1,0.2,2,0.3,3c0.1,1,0.2,2.1,0.3,3.4
	c0.1,1.2,0.2,2.6,0.4,4.2c-1.2,0.1-2.3,0.2-3.3,0.3c-1,0.1-2,0.2-3.1,0.3c-1.1,0.1-2.1,0.2-3.1,0.3c-1,0.1-2.1,0.2-3.3,0.3
	C124.8,26.9,124.6,26.3,124.5,25.8z M127.6,9.7C127.6,9.7,127.6,9.7,127.6,9.7C127.6,9.7,127.6,9.7,127.6,9.7
	c0.1,0.1,0.1,0.1,0.1,0.1c0.1,0.8,0.1,1.5,0.2,2.1c0.1,0.6,0.1,1.3,0.2,2c0.1,0.7,0.1,1.4,0.2,2c0.1,0.6,0.1,1.3,0.2,2.1
	c0,0.1,0,0.1,0,0.1s0,0,0,0c0,0-0.1,0-0.1,0c-0.4,0-0.8,0.1-1.2,0.1c-0.1,0-0.1,0-0.1,0c0,0,0,0,0,0c0,0,0-0.1,0-0.1
	c-0.1-0.8-0.1-1.5-0.2-2.1c-0.1-0.6-0.1-1.3-0.2-2c-0.1-0.7-0.1-1.4-0.2-2c-0.1-0.6-0.1-1.3-0.2-2.1c0,0,0-0.1,0-0.1c0,0,0,0,0,0
	c0,0,0,0,0,0c0,0,0,0,0.1,0C126.7,9.8,127.1,9.7,127.6,9.7C127.5,9.7,127.5,9.7,127.6,9.7z M136.5,12.6l0.8,8.8l-1.5,0.1
	c-0.1-0.6-0.1-1-0.1-1.3c0-0.3-0.1-0.6-0.1-0.8s0-0.5-0.1-0.8c0-0.3-0.1-0.8-0.1-1.4c-0.1-0.6-0.1-1.1-0.1-1.5
	c0-0.4-0.1-0.8-0.1-1.2c0-0.4-0.1-1-0.2-1.7L136.5,12.6z"/>
</svg>
