<svg id="Capa_1" data-name="Capa 1" xmlns="http://www.w3.org/2000/svg" viewBox="0 0 188.95 129.1"><defs><style>.cls-1{fill:#884099;}.cls-2{fill:#fff;}.cls-3{fill:#feed00;}</style></defs><title>LOGOTIPO_escoge</title><rect class="cls-1" x="85.22" y="6.65" width="103.72" height="86.47"/><rect x="135.95" y="-22.81" width="65.27" height="66.1" transform="translate(-27.26 55.36) rotate(-5.26)"/><path class="cls-2" d="M133,12.12c-.41-3.33-.41-6.24-.83-8.73s-.41-5.41-.83-8.32-.42-5.82-.83-8.31-.42-5.41-.83-8.73c3.32-.42,6.65-.42,9.14-.83,2.91-.42,5.41-.42,8.73-.84,2.91-.41,5.82-.41,8.73-.83s5.82-.41,9.15-.83a5.38,5.38,0,0,0,.41,2.5,5.21,5.21,0,0,0,.42,2.49c-2.91.42-5.82.42-7.9.83-2.49.42-5,.42-7.48.83s-5,.42-7.48.83-5,.42-7.9.84c.41,2.91.41,5.4.83,7.48a45.84,45.84,0,0,0,.83,7.07c.42,2.49.42,5,.83,7.06a59.5,59.5,0,0,0,.83,7.49Zm1.25,13.3L131.8-.36l5-.41a35.47,35.47,0,0,1,.42,6.23c0,1.67.42,3.75.42,6.24s.41,4.57.41,6.24.42,3.74.42,6.23ZM138.45,15c.41,2.91.41,5.4.83,7.48a45.84,45.84,0,0,0,.83,7.07c.42,2.49.42,5,.83,7.06a59.5,59.5,0,0,0,.83,7.49c2.91-.42,5.82-.42,7.9-.83,2.5-.42,5-.42,7.48-.84s5-.41,7.49-.83,5-.41,7.9-.83a5.38,5.38,0,0,0,.41,2.5,5.21,5.21,0,0,0,.42,2.49c-3.33.42-6.65.42-9.15.83s-5.4.42-8.73.83c-2.91.42-5.82.42-8.73.83s-5.82.42-9.14.84c-.42-3.33-.42-6.24-.84-8.73s-.41-5.41-.83-8.32-.41-5.82-.83-8.31-.41-5.41-.83-8.73Zm32.42,28.68a12.28,12.28,0,0,0-3.32-1.66,77.47,77.47,0,0,0-2.5-7.48c-.83-2.08-1.66-4.58-2.49-7.07s-1.66-5-2.5-7.07A78.63,78.63,0,0,1,157.57,13c1.66-.42,2.91-1.25,4.57-1.67.83,2.91,1.67,5.41,2.5,7.9.83,2.08,1.66,4.58,2.49,7.07s1.66,5,2.5,7.07,1.66,5,2.49,7.9A3.6,3.6,0,0,1,170.87,43.71Zm-5.4-66.51c1.25.41,2.08,1.24,3.32,1.66q1.26,4.37,2.5,7.48c.83,2.08,1.66,4.57,2.49,7.07s1.67,5,2.5,7.07A77.69,77.69,0,0,1,178.77,8a20,20,0,0,0-4.57,1.66c-.83-2.91-1.66-5.4-2.5-7.9-.83-2.08-1.66-4.57-2.49-7.06s-1.66-5-2.49-7.07-1.67-5-2.5-7.9A3.6,3.6,0,0,1,165.47-22.8ZM197.9,5.88c-.42-2.91-.42-5.4-.84-7.48a45.7,45.7,0,0,0-.83-7.07c-.41-2.49-.41-5-.83-7.07a57.56,57.56,0,0,0-.83-7.48c-2.91.42-5.82.42-7.9.83-2.49.42-5,.42-7.48.83s-5,.42-7.49.83-5,.42-7.89.84a5.23,5.23,0,0,0-.42-2.5c-.42-.83,0-1.66-.42-2.49,3.33-.42,6.66-.42,9.15-.83,2.91-.42,5.4-.42,8.73-.84,2.91-.41,5.82-.41,8.73-.83s5.82-.41,9.15-.83c.41,3.33.41,6.24.83,8.73s.41,5.41.83,8.32.42,5.82.83,8.31.42,5.4.83,8.73Zm5,3.33c.42,3.32.42,6.23.84,8.73s.41,5.4.83,8.31.41,5.82.83,8.32.41,5.4.83,8.73c-3.33.41-6.65.41-9.15.83s-5.4.41-8.73.83c-2.91.41-5.82.41-8.73.83s-5.82.42-9.14.83a5.21,5.21,0,0,0-.42-2.49,5.36,5.36,0,0,0-.41-2.5c2.91-.41,5.82-.41,7.89-.83,2.5-.41,5-.41,7.49-.83s5-.42,7.48-.83,5-.42,7.9-.83a37.66,37.66,0,0,0-.42-7.07,45.84,45.84,0,0,0-.83-7.07c-.41-2.49-.41-5-.83-7.07a57.74,57.74,0,0,0-.83-7.48Zm1.25,9.56-5,.41a36.32,36.32,0,0,1-.41-6.23c0-1.67-.42-3.74-.42-6.24A36.32,36.32,0,0,1,197.9.48c0-1.67-.42-3.75-.42-6.24l5-.42Z" transform="translate(-27.03 39.85)"/><polyline points="0 113.91 80.65 113.91 94.78 100.19 13.72 100.19"/><rect x="14.13" width="80.65" height="100.19"/><rect x="19.95" y="6.65" width="75.25" height="86.05"/><rect class="cls-3" x="11.64" y="6.65" width="78.57" height="86.05"/><polygon points="14.13 100.19 0 113.91 0 14.13 14.13 0.42 14.13 100.19"/><polygon class="cls-2" points="4.99 108.5 14.55 101.44 86.06 100.61 77.74 108.09 4.99 108.5"/><rect class="cls-2" x="34.09" y="18.29" width="54.46" height="64.44"/><path d="M57,5.46v-29.1H89.39v5H62v25H57Zm0,17.88V-1.6h4.58V23.34Zm31.18,22H57V15h4.58V40.8H89.81V24.17H116V5.46h4.57V45.79H91.05C90.64,45.37,89.81,45.37,88.14,45.37Zm27-39.91V-19.48H87.73v-5h32.42V4.63h-5ZM94.8.06h24.52V4.63H94.8V.06Z" transform="translate(-27.03 39.85)"/><polygon points="39.08 129.1 29.52 121.74 18.71 129.1 18.71 105.18 39.08 105.18 39.08 129.1"/></svg>