<?xml version="1.0" encoding="utf-8"?>
<!-- Generator: Adobe Illustrator 22.1.0, SVG Export Plug-In . SVG Version: 6.00 Build 0)  -->
<svg version="1.1" id="Capa_1" xmlns="http://www.w3.org/2000/svg" xmlns:xlink="http://www.w3.org/1999/xlink" x="0px" y="0px"
	 viewBox="0 0 142.9 48.6" style="enable-background:new 0 0 142.9 48.6;" xml:space="preserve">
<style type="text/css">
	.st0{fill:#FFFFFF;}
</style>
<rect width="142.8" height="48.5"/>
<g>
	<rect x="33" y="8" class="st0" width="105.9" height="24.7"/>
	<polyline class="st0" points="5.7,39.4 29.6,39.4 33.8,35.3 9.9,35.3 	"/>
	<polygon points="7.3,38.3 10.1,35.7 31.1,35.5 28.7,38.1 	"/>
	<polygon class="st0" points="17.3,44.8 14.4,42.3 11.3,44.8 11.3,36.8 17.3,36.8 	"/>
	<rect x="10" y="5.8" class="st0" width="23.8" height="29.6"/>
	<rect x="12.5" y="7.7" width="19.3" height="25.4"/>
	<polygon class="st0" points="10,35.3 5.7,39.4 5.7,9.9 10,5.8 	"/>
	<polygon points="9.7,33.8 6.5,37.5 6.5,11.3 9.7,7.7 	"/>
	<rect x="15.8" y="11.1" class="st0" width="16" height="19"/>
	<path d="M14.6,19.1c0-0.8,0-1.6,0-2.2s0-1.4,0-2.1c0-0.7,0-1.4,0-2.1c0-0.7,0-1.4,0-2.2c0.9,0,1.7,0,2.5,0c0.7,0,1.5,0,2.3,0
		c0.8,0,1.6,0,2.3,0c0.7,0,1.5,0,2.5,0c0,0.2,0,0.5,0,0.7s0,0.5,0,0.7c-1.1,0-2,0-2.9,0c-0.8,0-1.6,0-2.4,0c-0.8,0-1.8,0-2.8,0
		c0,1,0,1.8,0,2.6s0,1.5,0,2.2c0,0.7,0,1.6,0,2.6H14.6z M14.6,24.3V17H16c0,0.7,0,1.3,0,1.8s0,1.1,0,1.8c0,0.7,0,1.3,0,1.8
		s0,1.1,0,1.8H14.6z M23.8,30.9c-0.5,0-1.1,0-1.9,0c-0.8,0-1.6,0-2.4,0c-0.8,0-1.6,0-2.4,0s-1.6,0-2.5,0v-9H16v7.6c0.8,0,1.5,0,2,0
		c0.5,0,1.2,0,2,0c0.8,0,1.5,0,2,0c0.5,0,1.2,0,2,0c0-0.1,0-0.3,0-0.6s0-0.8,0-1.5c0-0.7,0-1.6,0-2.9c1,0,1.9,0,2.7,0
		c0.8,0,1.5,0,2.3,0c0.8,0,1.7,0,2.7,0c0-0.7,0-1.4,0-1.9c0-0.5,0-1.1,0-1.6c0-0.5,0-1.2,0-1.9h1.4v11.9c-0.8,0-1.5,0-2.2,0
		c-0.6,0-1.3,0-2.1,0s-1.4,0-2.1,0s-1.2,0-1.6,0c-0.4,0-0.7,0-0.7,0C24.5,30.9,24.3,30.9,23.8,30.9z M31.8,19.1c0-1,0-1.8,0-2.6
		c0-0.7,0-1.5,0-2.2s0-1.6,0-2.6c-1.1,0-2,0-2.9,0s-1.6,0-2.4,0c-0.8,0-1.8,0-2.9,0c0-0.2,0-0.5,0-0.7s0-0.5,0-0.7
		c0.9,0,1.7,0,2.5,0s1.5,0,2.3,0c0.8,0,1.6,0,2.3,0c0.7,0,1.5,0,2.5,0c0,0.8,0,1.6,0,2.2c0,0.7,0,1.4,0,2.1c0,0.7,0,1.4,0,2.1
		s0,1.4,0,2.2H31.8z M25.8,17.5C25.8,17.4,25.8,17.4,25.8,17.5c0.1,0,0.1,0,0.1,0c1,0,1.8,0,2.5,0c0.7,0,1.4,0,2.1,0
		c0.7,0,1.5,0,2.5,0c0,0,0.1,0,0.1,0c0,0,0,0,0,0c0,0,0,0,0,0.1c0,0.2,0,0.3,0,0.4c0,0.1,0,0.2,0,0.3c0,0.1,0,0.2,0,0.4
		c0,0.1,0,0.1,0,0.1c0,0-0.1,0-0.1,0c-1,0-1.8,0-2.5,0c-0.7,0-1.4,0-2.1,0c-0.7,0-1.5,0-2.5,0c0,0-0.1,0-0.1,0c0,0,0,0,0,0
		c0,0,0,0,0-0.1C25.8,18.3,25.8,17.9,25.8,17.5C25.8,17.5,25.8,17.5,25.8,17.5z"/>
	<rect x="33" y="10.8" width="18" height="19.3"/>
	<rect x="51.5" y="14.4" width="18" height="15.8"/>
	
		<rect x="72.9" y="10.4" transform="matrix(0.9967 -8.172254e-02 8.172254e-02 0.9967 -1.4141 6.8406)" width="19.9" height="20.5"/>
	<rect x="92.7" y="11.3" transform="matrix(0.9967 -8.172254e-02 8.172254e-02 0.9967 -1.2151 9.4368)" width="44" height="16.6"/>
	<path class="st0" d="M41.3,19.4v-9c0.7,0,1.4,0,1.9,0c0.5,0,1.1,0,1.7,0c0.6,0,1,0,1.4,0c0.4,0,0.6,0,0.6,0c0,0,0.2,0,0.6,0
		s0.8,0,1.3,0c0.5,0,1,0,1.5,0c0.5,0,1.1,0,1.8,0v9h-1.4v-7.6c-0.8,0-1.5,0-2,0c-0.5,0-0.9,0-1.2,0c-0.3,0-0.5,0-0.7,0
		c-0.9,0-1.6,0-2.1,0c-0.6,0-1.3,0-2.1,0v7.6H41.3z M41.3,15.5h1.4c0,1.8,0,3.8,0,5.9v0.2v0.2c0,2.3,0,4.5,0,6.6h-1.4V15.5z
		 M41.3,21.5h1.4v5.2c0,0,0.1,0.2,0.3,0.4c0.2,0.2,0.4,0.4,0.7,0.7c0.3,0.3,0.5,0.5,0.8,0.8c0.3,0.3,0.5,0.5,0.7,0.7
		c0.2,0.2,0.3,0.3,0.4,0.3c0.7,0,1.3,0,1.8,0c0.5,0,1,0,1.6,0c0.5,0,1.1,0,1.8,0c0-0.5,0-1,0-1.5c0-0.5,0-1,0-1.5s0-1,0-1.5
		c0-0.5,0-1,0-1.5v-2.1h1.4v9.4c-0.7,0-1.4,0-1.9,0c-0.5,0-1.1,0-1.6,0s-1,0-1.4,0c-0.4,0-0.6,0-0.6,0c0,0-0.2,0-0.6,0
		c-0.4,0-0.8,0-1.4,0c-0.5,0-1.1,0-1.6,0c-0.5,0-1.1,0-1.8,0V21.5z M52.1,18.4v8h-1.4c0-0.5,0-0.9,0-1.2c0-0.3,0-0.5,0-0.7
		s0-0.5,0-0.8c0-0.3,0-0.7,0-1.3c0-0.6,0-1,0-1.4c0-0.4,0-0.7,0-1.1c0-0.4,0-0.9,0-1.5H52.1z"/>
	<path class="st0" d="M50.7,23.7c0-0.9,0-1.8,0-2.5c0-0.7,0-1.5,0-2.4s0-1.6,0-2.4c0-0.7,0-1.6,0-2.5c0.9,0,1.8,0,2.5,0s1.5,0,2.4,0
		c0.8,0,1.7,0,2.4,0c0.8,0,1.4,0,1.9,0c0.5,0,0.8,0,0.9,0c0,0.2,0,0.5,0,0.7c0,0.2,0,0.5,0,0.7c-0.8,0-1.5,0-2.1,0s-1.2,0-1.8,0
		c-0.6,0-1.3,0-2.1,0c0,0-0.2,0.1-0.4,0.3c-0.2,0.2-0.4,0.4-0.7,0.7c-0.3,0.3-0.6,0.5-0.8,0.8c-0.3,0.3-0.5,0.5-0.7,0.7
		c-0.2,0.2-0.3,0.3-0.3,0.4v5.6H50.7z M50.7,26.4v-8h1.4c0,0.5,0,0.9,0,1.2c0,0.3,0,0.5,0,0.7s0,0.5,0,0.8c0,0.3,0,0.7,0,1.3
		c0,0.6,0,1,0,1.4s0,0.7,0,1.1s0,0.9,0,1.5H50.7z M52.1,21.2v5.6c0,0,0.1,0.2,0.3,0.4c0.2,0.2,0.4,0.4,0.7,0.7
		c0.3,0.3,0.5,0.5,0.8,0.8c0.3,0.3,0.5,0.5,0.7,0.7c0.2,0.2,0.3,0.3,0.4,0.3c0.8,0,1.5,0,2.1,0c0.6,0,1.2,0,1.8,0s1.3,0,2.1,0
		c0,0.2,0,0.5,0,0.7c0,0.2,0,0.5,0,0.7c-0.1,0-0.4,0-0.9,0c-0.5,0-1.2,0-1.9,0c-0.8,0-1.6,0-2.4,0c-0.8,0-1.6,0-2.4,0s-1.6,0-2.5,0
		c0-0.9,0-1.8,0-2.5c0-0.7,0-1.5,0-2.4c0-0.8,0-1.6,0-2.4c0-0.7,0-1.6,0-2.5H52.1z M60,22.4c0-0.6,0-1.3,0-2.2c0-0.1,0-0.1,0-0.1
		c0,0,0.1,0,0.1,0c0.1,0,0.3,0,0.4,0c0.1,0,0.2,0,0.4,0s0.2,0,0.4,0c0.1,0,0.1,0,0.1,0c0,0,0,0.1,0,0.1c0,0.9,0,1.6,0,2.2
		c0,0.6,0,1.3,0,2.2c0,0.1,0,0.1,0,0.1c0,0-0.1,0-0.1,0c-0.2,0-0.4,0-0.6,0s-0.4,0-0.6,0c-0.1,0-0.1,0-0.1,0c0,0,0-0.1,0-0.1
		C60,23.7,60,23,60,22.4z M69.3,23.7v-5.6c0,0-0.1-0.2-0.3-0.4c-0.2-0.2-0.4-0.4-0.7-0.7c-0.3-0.3-0.5-0.5-0.8-0.8
		c-0.3-0.3-0.5-0.5-0.7-0.7c-0.2-0.2-0.3-0.3-0.4-0.3c-0.8,0-1.5,0-2.1,0c-0.6,0-1.2,0-1.8,0s-1.3,0-2.1,0c0-0.2,0-0.5,0-0.7
		c0-0.2,0-0.5,0-0.7c0.1,0,0.4,0,0.9,0c0.5,0,1.2,0,1.9,0c0.8,0,1.6,0,2.4,0c0.8,0,1.6,0,2.4,0c0.7,0,1.6,0,2.5,0c0,0.9,0,1.8,0,2.5
		c0,0.7,0,1.5,0,2.4s0,1.6,0,2.4c0,0.7,0,1.6,0,2.5H69.3z M70.7,21.2c0,0.9,0,1.8,0,2.5c0,0.7,0,1.5,0,2.4c0,0.8,0,1.6,0,2.4
		c0,0.7,0,1.6,0,2.5c-0.9,0-1.8,0-2.5,0c-0.7,0-1.5,0-2.4,0c-0.8,0-1.7,0-2.4,0c-0.8,0-1.4,0-1.9,0c-0.5,0-0.8,0-0.9,0
		c0-0.2,0-0.5,0-0.7c0-0.2,0-0.5,0-0.7c0.8,0,1.5,0,2.1,0s1.2,0,1.8,0c0.6,0,1.3,0,2.1,0c0,0,0.2-0.1,0.4-0.3
		c0.2-0.2,0.4-0.4,0.7-0.7c0.3-0.3,0.6-0.5,0.8-0.8c0.3-0.3,0.5-0.5,0.7-0.7c0.2-0.2,0.3-0.3,0.3-0.4v-5.6H70.7z M70.7,26.4h-1.4
		c0-0.6,0-1.2,0-1.5s0-0.8,0-1.1s0-0.8,0-1.4c0-0.6,0-1,0-1.3c0-0.3,0-0.6,0-0.8s0-0.4,0-0.7c0-0.3,0-0.7,0-1.2h1.4V26.4z"/>
	<path class="st0" d="M31.8,19.1c0-0.5,0-1,0-1.6c0-0.6,0-1.2,0-1.8s0-1.2,0-1.9c0-0.6,0-1.2,0-1.8c0-0.6,0-1.2,0-1.7
		c0.7,0,1.4,0,1.9,0s1.1,0,1.6,0c0.5,0,1.2,0,1.9,0c0.1,0.2,0.1,0.4,0.1,0.7c0,0.3,0,0.5-0.1,0.7c-0.2,0-0.5,0-0.8,0s-0.6,0-1,0
		c-0.3,0-0.7,0-1.1,0c-0.4,0-0.8,0-1.2,0c0,1,0,1.8,0,2.6s0,1.5,0,2.2c0,0.7,0,1.6,0,2.6H31.8z M31.8,20.2c0-0.3,0-0.8,0-1.3
		c0-0.5,0-1.1,0-1.7s0-1.2,0-1.8c0-0.6,0-1,0-1.4c0,0,0.1,0,0.1,0c0,0,0.1,0,0.1,0c0,0,0.1,0,0.1,0c0.1,0,0.2,0,0.3,0s0.3,0,0.5,0
		c0.2,0,0.3,0,0.4,0c0.4,0,0.8,0,1.1,0c0.3,0,0.6,0,0.9,0c0.3,0,0.5,0,0.7,0c0.2,0,0.4,0,0.5,0c0.2,0,0.3,0,0.4,0c0.1,0,0.2,0,0.3,0
		c0,0.3,0,0.5,0,0.7s0,0.4,0,0.7c-0.5,0-1,0-1.4,0c-0.4,0-0.8,0-1.2,0c-0.4,0-0.9,0-1.4,0c0,0.4,0,0.7,0,1c0,0.2,0,0.4,0,0.5
		c0,0.1,0,0.2,0,0.3c0,0.4,0,0.7,0,1c0,0.3,0,0.7,0,1c0,0.4,0,0.7,0,1.1H31.8z M31.8,18.4h1.4c0,0.6,0,1.2,0,1.5c0,0.4,0,0.8,0,1.1
		c0,0.4,0,0.8,0,1.4c0,0.6,0,1,0,1.3c0,0.3,0,0.6,0,0.8c0,0.2,0,0.4,0,0.7c0,0.3,0,0.7,0,1.2h-1.4V18.4z M31.8,22.2h1.4
		c0,1,0,1.8,0,2.6s0,1.5,0,2.2c0,0.7,0,1.6,0,2.6c0.4,0,0.8,0,1.2,0c0.4,0,0.7,0,1.1,0c0.3,0,0.7,0,1,0s0.6,0,0.8,0
		c0.1,0.2,0.1,0.4,0.1,0.7c0,0.3,0,0.5-0.1,0.7c-0.7,0-1.4,0-1.9,0c-0.5,0-1.1,0-1.6,0s-1.2,0-1.9,0c0-0.5,0-1.1,0-1.7
		c0-0.6,0-1.2,0-1.8c0-0.6,0-1.2,0-1.9c0-0.6,0-1.2,0-1.8C31.8,23.2,31.8,22.7,31.8,22.2z M42.7,19.1h-1.4c0-1,0-1.8,0-2.6
		c0-0.7,0-1.5,0-2.2s0-1.6,0-2.6c-0.4,0-0.8,0-1.2,0c-0.4,0-0.7,0-1.1,0c-0.3,0-0.7,0-1,0c-0.3,0-0.6,0-0.8,0
		c-0.1-0.2-0.1-0.4-0.1-0.7c0-0.3,0-0.5,0.1-0.7c0.7,0,1.4,0,1.9,0s1.1,0,1.6,0s1.2,0,1.9,0c0,0.5,0,1.1,0,1.7c0,0.6,0,1.2,0,1.8
		c0,0.6,0,1.2,0,1.9s0,1.2,0,1.8C42.7,18.1,42.7,18.6,42.7,19.1z M42.7,22.2c0,0.5,0,1,0,1.6c0,0.6,0,1.2,0,1.8c0,0.6,0,1.2,0,1.9
		c0,0.6,0,1.2,0,1.8c0,0.6,0,1.2,0,1.7c-0.7,0-1.4,0-1.9,0s-1.1,0-1.6,0s-1.2,0-1.9,0c-0.1-0.2-0.1-0.4-0.1-0.7c0-0.3,0-0.5,0.1-0.7
		c0.2,0,0.5,0,0.8,0c0.3,0,0.6,0,1,0c0.3,0,0.7,0,1.1,0c0.4,0,0.8,0,1.2,0c0-1,0-1.8,0-2.6c0-0.7,0-1.5,0-2.2s0-1.6,0-2.6H42.7z
		 M42.7,20.2h-1.4c0-0.3,0-0.7,0-1.1c0-0.4,0-0.7,0-1c0-0.3,0-0.7,0-1c0-0.1,0-0.2,0-0.3c0-0.1,0-0.3,0-0.5c0-0.2,0-0.6,0-1
		c-0.8,0-1.5,0-2,0c-0.5,0-1.2,0-2,0c0-0.3,0-0.5,0-0.7s0-0.4,0-0.7c0.2,0,0.3,0,0.5,0s0.4,0,0.7,0c0.3,0,0.7,0,1.1,0
		c0.4,0,0.9,0,1.5,0c0.1,0,0.2,0,0.4,0c0.2,0,0.3,0,0.5,0s0.3,0,0.3,0c0,0,0.1,0,0.1,0c0,0,0.1,0,0.1,0c0,0,0.1,0,0.1,0
		c0,0.4,0,0.8,0,1.4c0,0.6,0,1.1,0,1.8s0,1.2,0,1.7C42.7,19.4,42.7,19.8,42.7,20.2z M42.7,18.4v8h-1.4c0-0.5,0-0.9,0-1.2
		c0-0.3,0-0.5,0-0.7c0-0.2,0-0.5,0-0.8c0-0.3,0-0.7,0-1.3c0-0.6,0-1,0-1.4c0-0.4,0-0.7,0-1.1c0-0.4,0-0.9,0-1.5H42.7z"/>
	<path class="st0" d="M71.7,21c-0.1-1-0.2-1.9-0.3-2.7c-0.1-0.8-0.2-1.6-0.2-2.5c-0.1-0.9-0.2-1.7-0.2-2.5c-0.1-0.8-0.2-1.7-0.3-2.7
		c1.1-0.1,2-0.2,2.8-0.3c0.8-0.1,1.7-0.2,2.7-0.2c0.9-0.1,1.8-0.2,2.7-0.2c0.8-0.1,1.8-0.2,2.8-0.3c0,0.2,0,0.5,0.1,0.7
		s0,0.5,0.1,0.8c-0.9,0.1-1.7,0.2-2.5,0.2s-1.5,0.1-2.3,0.2c-0.8,0.1-1.6,0.1-2.3,0.2c-0.7,0.1-1.5,0.1-2.5,0.2
		c0.1,0.9,0.2,1.6,0.2,2.3c0.1,0.7,0.1,1.4,0.2,2.2c0.1,0.8,0.1,1.5,0.2,2.2c0.1,0.7,0.1,1.5,0.2,2.3L71.7,21z M72.1,25.1l-0.7-7.9
		l1.5-0.1c0.1,0.8,0.1,1.5,0.2,2c0,0.5,0.1,1.2,0.2,2c0.1,0.8,0.1,1.5,0.2,2s0.1,1.2,0.2,2L72.1,25.1z M73.3,21.9
		c0.1,0.9,0.2,1.6,0.2,2.3c0.1,0.7,0.1,1.4,0.2,2.2c0.1,0.8,0.1,1.5,0.2,2.2c0.1,0.7,0.1,1.5,0.2,2.3c0.9-0.1,1.7-0.2,2.5-0.2
		c0.7-0.1,1.5-0.1,2.3-0.2s1.6-0.1,2.3-0.2c0.7-0.1,1.5-0.1,2.5-0.2c0,0.2,0,0.5,0.1,0.7c0,0.3,0,0.5,0.1,0.8
		c-1.1,0.1-2,0.2-2.8,0.3c-0.8,0.1-1.7,0.2-2.7,0.2c-0.9,0.1-1.8,0.2-2.7,0.2c-0.8,0.1-1.8,0.2-2.8,0.3c-0.1-1-0.2-1.9-0.3-2.7
		c-0.1-0.8-0.2-1.6-0.2-2.5c-0.1-0.9-0.2-1.7-0.2-2.5c-0.1-0.8-0.2-1.7-0.3-2.7L73.3,21.9z M83.4,30.8c-0.3-0.2-0.7-0.4-1-0.6
		c-0.3-0.9-0.6-1.6-0.8-2.3c-0.2-0.7-0.5-1.4-0.7-2.2c-0.3-0.8-0.5-1.5-0.7-2.2c-0.2-0.7-0.5-1.4-0.8-2.3c0.5-0.2,0.9-0.3,1.4-0.5
		c0.3,0.9,0.6,1.7,0.8,2.4c0.2,0.7,0.5,1.4,0.8,2.2c0.3,0.8,0.5,1.5,0.8,2.2c0.2,0.7,0.5,1.5,0.8,2.4C83.7,30.4,83.6,30.6,83.4,30.8
		z M81.7,10.2c0.3,0.2,0.7,0.4,1,0.6c0.3,0.9,0.6,1.6,0.8,2.3c0.2,0.7,0.5,1.4,0.7,2.2c0.3,0.8,0.5,1.5,0.7,2.2
		c0.2,0.7,0.5,1.4,0.8,2.3c-0.5,0.2-0.9,0.3-1.4,0.5c-0.3-0.9-0.6-1.7-0.8-2.4c-0.2-0.7-0.5-1.4-0.8-2.2c-0.3-0.8-0.5-1.5-0.8-2.2
		c-0.2-0.7-0.5-1.5-0.8-2.4C81.4,10.7,81.5,10.5,81.7,10.2z M91.7,19.2c-0.1-0.9-0.2-1.6-0.2-2.3c-0.1-0.7-0.1-1.4-0.2-2.2
		c-0.1-0.8-0.1-1.5-0.2-2.2S91,11,90.9,10.1c-0.9,0.1-1.7,0.2-2.5,0.2c-0.7,0.1-1.5,0.1-2.3,0.2c-0.8,0.1-1.6,0.1-2.3,0.2
		c-0.7,0.1-1.5,0.1-2.5,0.2c0-0.3,0-0.5-0.1-0.8c0-0.3,0-0.5-0.1-0.7c1.1-0.1,2-0.2,2.8-0.3c0.8-0.1,1.7-0.2,2.7-0.2
		c0.9-0.1,1.8-0.2,2.7-0.2c0.8-0.1,1.8-0.2,2.8-0.3c0.1,1,0.2,1.9,0.3,2.7s0.2,1.6,0.2,2.5c0.1,0.9,0.2,1.7,0.2,2.5
		c0.1,0.8,0.2,1.7,0.3,2.7L91.7,19.2z M93.4,20.1c0.1,1,0.2,1.9,0.3,2.7c0.1,0.8,0.2,1.6,0.2,2.5c0.1,0.9,0.2,1.7,0.2,2.5
		c0.1,0.8,0.2,1.7,0.3,2.7c-1.1,0.1-2,0.2-2.8,0.3c-0.8,0.1-1.7,0.2-2.7,0.2c-0.9,0.1-1.8,0.2-2.7,0.2c-0.8,0.1-1.8,0.2-2.8,0.3
		c0-0.3,0-0.5-0.1-0.8c0-0.3,0-0.5-0.1-0.7c0.9-0.1,1.7-0.2,2.5-0.2c0.7-0.1,1.5-0.1,2.3-0.2c0.8-0.1,1.6-0.1,2.3-0.2
		c0.7-0.1,1.5-0.1,2.5-0.2c-0.1-0.9-0.2-1.6-0.2-2.3c-0.1-0.7-0.1-1.4-0.2-2.2c-0.1-0.8-0.1-1.5-0.2-2.2c-0.1-0.7-0.1-1.5-0.2-2.3
		L93.4,20.1z M93.6,23.2l-1.5,0.1c-0.1-0.8-0.1-1.5-0.2-2c0-0.5-0.1-1.2-0.2-2s-0.1-1.5-0.2-2c0-0.5-0.1-1.2-0.2-2l1.5-0.1
		L93.6,23.2z"/>
	<path class="st0" d="M92.1,23c-0.1-1-0.2-1.9-0.3-2.7c-0.1-0.8-0.2-1.6-0.2-2.5c-0.1-0.9-0.2-1.7-0.2-2.5c-0.1-0.8-0.2-1.7-0.3-2.7
		c1-0.1,1.9-0.2,2.7-0.3c0.8-0.1,1.7-0.2,2.6-0.2c0.9-0.1,1.8-0.2,2.6-0.2c0.8-0.1,1.5-0.1,2.1-0.2c0.6-0.1,0.9-0.1,1-0.1
		c0,0.2,0,0.5,0.1,0.7c0,0.3,0,0.5,0.1,0.8c-0.9,0.1-1.6,0.1-2.3,0.2c-0.6,0.1-1.3,0.1-1.9,0.2c-0.6,0.1-1.4,0.1-2.3,0.2
		c0,0-0.2,0.1-0.4,0.3c-0.2,0.2-0.4,0.5-0.7,0.8c-0.3,0.3-0.5,0.6-0.8,1c-0.3,0.3-0.5,0.6-0.7,0.8c-0.2,0.2-0.3,0.4-0.3,0.4l0.6,6
		L92.1,23z M92.4,25.9l-0.8-8.7l1.5-0.1c0.1,0.6,0.1,1,0.1,1.3c0,0.3,0.1,0.6,0.1,0.8c0,0.2,0,0.5,0.1,0.8c0,0.3,0.1,0.8,0.1,1.4
		c0.1,0.6,0.1,1.1,0.1,1.5c0,0.4,0.1,0.8,0.1,1.2c0,0.4,0.1,1,0.2,1.7L92.4,25.9z M93.4,20.1l0.6,6c0,0,0.1,0.2,0.3,0.4
		c0.2,0.2,0.5,0.4,0.8,0.7c0.3,0.3,0.6,0.5,1,0.8c0.3,0.3,0.6,0.5,0.8,0.6c0.2,0.2,0.4,0.3,0.4,0.2c0.9-0.1,1.6-0.1,2.3-0.2
		c0.6-0.1,1.3-0.1,1.9-0.2s1.4-0.1,2.3-0.2c0,0.2,0,0.5,0.1,0.7c0,0.3,0,0.5,0.1,0.8c-0.1,0-0.4,0-1,0.1c-0.6,0.1-1.3,0.1-2.1,0.2
		c-0.8,0.1-1.7,0.2-2.6,0.2c-0.9,0.1-1.8,0.2-2.6,0.2s-1.7,0.2-2.7,0.3c-0.1-1-0.2-1.9-0.3-2.7c-0.1-0.8-0.2-1.6-0.2-2.5
		c-0.1-0.9-0.2-1.7-0.2-2.5c-0.1-0.8-0.2-1.7-0.3-2.7L93.4,20.1z M102,20.7c-0.1-0.6-0.1-1.4-0.2-2.3c0-0.1,0-0.1,0-0.1
		c0,0,0.1,0,0.1,0c0.1,0,0.3,0,0.4,0s0.3,0,0.4,0c0.1,0,0.3,0,0.4,0c0.1,0,0.1,0,0.1,0s0,0.1,0,0.1c0.1,0.9,0.2,1.7,0.2,2.3
		c0.1,0.6,0.1,1.4,0.2,2.3c0,0.1,0,0.1,0,0.1c0,0-0.1,0-0.1,0c-0.2,0-0.4,0-0.6,0.1c-0.2,0-0.4,0-0.6,0.1c-0.1,0-0.1,0-0.1,0
		c0,0,0-0.1,0-0.1C102.1,22.1,102,21.3,102,20.7z M112.1,21.2l-0.6-6c0,0-0.1-0.2-0.3-0.4c-0.2-0.2-0.5-0.4-0.8-0.7
		c-0.3-0.3-0.6-0.5-1-0.8c-0.3-0.3-0.6-0.5-0.8-0.6c-0.2-0.2-0.4-0.3-0.4-0.2c-0.9,0.1-1.6,0.1-2.3,0.2c-0.6,0.1-1.3,0.1-1.9,0.2
		c-0.6,0.1-1.4,0.1-2.3,0.2c0-0.3,0-0.5-0.1-0.8c0-0.3,0-0.5-0.1-0.7c0.1,0,0.4,0,1-0.1c0.6-0.1,1.3-0.1,2.1-0.2
		c0.8-0.1,1.7-0.2,2.6-0.2c0.9-0.1,1.8-0.2,2.6-0.2c0.8-0.1,1.7-0.2,2.7-0.3c0.1,1,0.2,1.9,0.3,2.7c0.1,0.8,0.2,1.6,0.2,2.5
		c0.1,0.9,0.2,1.7,0.2,2.5c0.1,0.8,0.2,1.7,0.3,2.7L112.1,21.2z M113.4,18.3c0.1,1,0.2,1.9,0.3,2.7s0.2,1.6,0.2,2.5
		c0.1,0.9,0.2,1.7,0.2,2.5c0.1,0.8,0.2,1.7,0.3,2.7c-1,0.1-1.9,0.2-2.7,0.3c-0.8,0.1-1.7,0.2-2.6,0.2c-0.9,0.1-1.8,0.2-2.6,0.2
		c-0.8,0.1-1.5,0.1-2.1,0.2c-0.6,0.1-0.9,0.1-1,0.1c0-0.3,0-0.5-0.1-0.8c0-0.3,0-0.5-0.1-0.7c0.9-0.1,1.6-0.1,2.3-0.2
		c0.6-0.1,1.3-0.1,1.9-0.2c0.6-0.1,1.4-0.1,2.3-0.2c0,0,0.2-0.1,0.4-0.3c0.2-0.2,0.4-0.5,0.7-0.8c0.3-0.3,0.5-0.6,0.8-1
		c0.3-0.3,0.5-0.6,0.7-0.8c0.2-0.2,0.3-0.4,0.3-0.4l-0.6-6L113.4,18.3z M113.9,24l-1.5,0.1c-0.1-0.7-0.1-1.2-0.2-1.7
		c0-0.4-0.1-0.8-0.1-1.2s-0.1-0.9-0.1-1.5c-0.1-0.6-0.1-1.1-0.1-1.4c0-0.3-0.1-0.6-0.1-0.8c0-0.2,0-0.5-0.1-0.8
		c0-0.3-0.1-0.7-0.1-1.3l1.5-0.1L113.9,24z"/>
	<path class="st0" d="M112.2,21.6c-0.1-1-0.2-2-0.3-2.8c-0.1-0.8-0.2-1.7-0.2-2.6c-0.1-0.9-0.2-1.8-0.2-2.6
		c-0.1-0.8-0.2-1.8-0.3-2.8c1.2-0.1,2.3-0.2,3.3-0.3c1-0.1,2-0.2,3.1-0.3c1.1-0.1,2.1-0.2,3.1-0.3c1-0.1,1.8-0.2,2.5-0.2
		c0.7-0.1,1-0.1,1.1-0.1c0,0.3,0,0.5,0.1,0.7c0,0.2,0,0.5,0.1,0.8c-1.1,0.1-2.1,0.2-3,0.3c-0.9,0.1-1.8,0.2-2.8,0.3
		c-1,0.1-1.9,0.2-2.8,0.3c-0.9,0.1-1.9,0.2-3,0.3c0.1,1.3,0.2,2.4,0.3,3.3c0.1,0.9,0.2,1.9,0.3,2.8c0.1,0.9,0.2,2,0.3,3.3
		L112.2,21.6z M111.6,15.5l1.5-0.1c0.1,0.7,0.1,1.2,0.2,1.7c0,0.4,0.1,0.8,0.1,1.2c0,0.4,0.1,0.9,0.1,1.5c0.1,0.6,0.1,1.1,0.1,1.4
		c0,0.3,0.1,0.6,0.1,0.8c0,0.2,0,0.5,0.1,0.8c0,0.3,0.1,0.7,0.1,1.3l-1.5,0.1L111.6,15.5z M125.5,27.8c-1.2,0.1-2.3,0.2-3.3,0.3
		c-1,0.1-2,0.2-3.1,0.3c-1.1,0.1-2.1,0.2-3.1,0.3c-1,0.1-2,0.2-3.3,0.3c-0.1-1.6-0.3-3-0.4-4.2c-0.1-1.2-0.2-2.3-0.3-3.3
		c-0.1-1-0.2-2-0.3-3l1.5-0.1l0.6,6c0,0,0.1,0.2,0.3,0.4c0.2,0.2,0.5,0.4,0.8,0.7c0.3,0.3,0.6,0.5,1,0.8c0.3,0.3,0.6,0.5,0.8,0.6
		c0.2,0.2,0.4,0.3,0.4,0.2c0.8-0.1,1.4-0.1,2-0.2c0.6-0.1,1.1-0.1,1.7-0.2c0.6-0.1,1.2-0.1,2-0.2c0.3-0.5,0.5-0.9,0.7-1.2
		c0.2-0.3,0.4-0.7,0.6-1c0.2-0.3,0.4-0.8,0.7-1.2l0.2,0c0.2,0.5,0.4,1,0.5,1.6c0.1,0.6,0.2,1.1,0.2,1.7
		C125.7,26.7,125.6,27.3,125.5,27.8z M119.5,11c0.4,0,0.8-0.1,1.2-0.1c0,0,0.1,0,0.1,0c0,0,0,0,0,0c0,0,0,0,0,0c0,0,0,0,0,0.1
		c0.1,0.8,0.1,1.5,0.2,2.1c0.1,0.6,0.1,1.3,0.2,2c0.1,0.7,0.1,1.3,0.2,2c0.1,0.6,0.1,1.3,0.2,2.1c0,0.1,0,0.1,0,0.1c0,0,0,0,0,0
		c0,0-0.1,0-0.1,0c-0.4,0-0.8,0.1-1.2,0.1c-0.1,0-0.1,0-0.1,0c0,0,0,0,0,0c0,0,0-0.1,0-0.1c-0.1-0.8-0.1-1.5-0.2-2.1
		c-0.1-0.6-0.1-1.3-0.2-2c-0.1-0.7-0.1-1.3-0.2-2c-0.1-0.6-0.1-1.3-0.2-2.1c0,0,0-0.1,0-0.1c0,0,0,0,0,0C119.4,11,119.4,11,119.5,11
		C119.5,11,119.5,11,119.5,11z M136,19.4c-0.1-1.3-0.2-2.4-0.3-3.3c-0.1-0.9-0.2-1.9-0.3-2.8c-0.1-0.9-0.2-2-0.3-3.3
		c-1.1,0.1-2.1,0.2-3,0.3s-1.8,0.2-2.8,0.3c-1,0.1-1.9,0.2-2.8,0.3s-1.9,0.2-3,0.3c0-0.3-0.1-0.5-0.1-0.8c0-0.2,0-0.5-0.1-0.7
		c0.1,0,0.4,0,1.1-0.1c0.6-0.1,1.5-0.1,2.5-0.2c1-0.1,2-0.2,3.1-0.3c1.1-0.1,2.1-0.2,3.1-0.3c1-0.1,2.1-0.2,3.3-0.3
		c0.1,1,0.2,2,0.3,2.8c0.1,0.8,0.2,1.7,0.2,2.6c0.1,0.9,0.2,1.8,0.2,2.6s0.2,1.8,0.3,2.8L136,19.4z M125,26.2
		c-0.1-0.6-0.2-1.1-0.2-1.7c0-0.6,0.1-1.1,0.2-1.6l0.2,0c0.3,0.4,0.6,0.8,0.9,1.1c0.3,0.3,0.5,0.6,0.8,0.9c0.3,0.3,0.6,0.7,0.9,1.1
		c0.8-0.1,1.4-0.1,2-0.2c0.6-0.1,1.1-0.1,1.7-0.2c0.6-0.1,1.2-0.1,2-0.2c0,0,0.2-0.1,0.4-0.3c0.2-0.2,0.4-0.5,0.7-0.8
		c0.3-0.3,0.5-0.6,0.8-1c0.3-0.3,0.5-0.6,0.7-0.8c0.2-0.2,0.3-0.4,0.3-0.4l-0.6-6l1.5-0.1c0.1,1,0.2,2,0.3,3c0.1,1,0.2,2.1,0.3,3.3
		c0.1,1.2,0.2,2.6,0.4,4.2c-1.2,0.1-2.3,0.2-3.3,0.3c-1,0.1-2,0.2-3.1,0.3c-1.1,0.1-2.1,0.2-3.1,0.3c-1,0.1-2,0.2-3.3,0.3
		C125.3,27.3,125.2,26.8,125,26.2z M128.1,10.2C128.1,10.2,128.1,10.2,128.1,10.2C128.1,10.2,128.1,10.3,128.1,10.2
		c0.1,0.1,0.1,0.1,0.1,0.1c0.1,0.8,0.1,1.5,0.2,2.1c0.1,0.6,0.1,1.3,0.2,2c0.1,0.7,0.1,1.3,0.2,2c0.1,0.6,0.1,1.3,0.2,2.1
		c0,0.1,0,0.1,0,0.1c0,0,0,0,0,0c0,0-0.1,0-0.1,0c-0.4,0-0.8,0.1-1.2,0.1c-0.1,0-0.1,0-0.1,0c0,0,0,0,0,0c0,0,0-0.1,0-0.1
		c-0.1-0.8-0.1-1.5-0.2-2.1c-0.1-0.6-0.1-1.3-0.2-2c-0.1-0.7-0.1-1.3-0.2-2c-0.1-0.6-0.1-1.3-0.2-2.1c0,0,0-0.1,0-0.1c0,0,0,0,0,0
		c0,0,0,0,0,0c0,0,0,0,0.1,0C127.2,10.3,127.6,10.3,128.1,10.2C128,10.2,128.1,10.2,128.1,10.2z M137,13.1l0.8,8.7l-1.5,0.1
		c-0.1-0.6-0.1-1-0.1-1.3c0-0.3-0.1-0.6-0.1-0.8c0-0.2,0-0.5-0.1-0.8c0-0.3-0.1-0.8-0.1-1.4c-0.1-0.6-0.1-1.1-0.1-1.5
		c0-0.4-0.1-0.8-0.1-1.2c0-0.4-0.1-1-0.2-1.7L137,13.1z"/>
</g>
</svg>
