<?xml version="1.0" encoding="utf-8"?>
<!-- Generator: Adobe Illustrator 22.1.0, SVG Export Plug-In . SVG Version: 6.00 Build 0)  -->
<svg version="1.1" id="Capa_1" xmlns="http://www.w3.org/2000/svg" xmlns:xlink="http://www.w3.org/1999/xlink" x="0px" y="0px"
	 viewBox="0 0 142.9 48.6" style="enable-background:new 0 0 142.9 48.6;" xml:space="preserve">
<style type="text/css">
	.st0{fill:#FFFFFF;}
	.st1{fill:#FEED00;}
</style>
<rect class="st0" width="142.8" height="48.4"/>
<g>
	<rect x="72.2" y="9.9" class="st1" width="64.9" height="24.1"/>
	
		<rect x="76.5" y="12.5" transform="matrix(0.9958 -9.174180e-02 9.174180e-02 0.9958 -1.6735 7.9928)" width="19.2" height="19.4"/>
	
		<rect x="96.3" y="12.6" transform="matrix(0.9958 -9.174180e-02 9.174180e-02 0.9958 -1.4384 10.8132)" width="41.2" height="16.9"/>
	<path class="st0" d="M75.7,22.7c-0.1-1-0.2-1.8-0.2-2.6s-0.1-1.6-0.2-2.4s-0.2-1.7-0.2-2.4c-0.1-0.8-0.1-1.6-0.2-2.6
		c1-0.1,1.9-0.2,2.7-0.2s1.6-0.2,2.5-0.2c0.9-0.1,1.7-0.2,2.5-0.2s1.7-0.2,2.7-0.2c0,0.2,0,0.5,0.1,0.7s0,0.5,0.1,0.7
		c-0.9,0.1-1.7,0.2-2.3,0.2s-1.4,0.1-2.2,0.2c-0.8,0.1-1.5,0.1-2.2,0.2c-0.7,0.1-1.5,0.1-2.3,0.2c0.1,0.8,0.1,1.6,0.2,2.2
		c0.1,0.7,0.1,1.3,0.2,2.1c0.1,0.7,0.1,1.4,0.2,2.1s0.1,1.4,0.2,2.2L75.7,22.7z M76.1,26.6l-0.7-7.5l1.4-0.1
		c0.1,0.8,0.1,1.4,0.2,1.9c0,0.5,0.1,1.1,0.2,1.9s0.1,1.4,0.2,1.9c0,0.5,0.1,1.1,0.2,1.9L76.1,26.6z M77.2,23.6
		c0.1,0.8,0.1,1.6,0.2,2.2c0.1,0.7,0.1,1.3,0.2,2.1c0.1,0.7,0.1,1.4,0.2,2.1s0.1,1.4,0.2,2.2c0.9-0.1,1.7-0.2,2.3-0.2
		s1.4-0.1,2.2-0.2s1.5-0.1,2.2-0.2s1.5-0.1,2.3-0.2c0,0.2,0,0.5,0.1,0.7c0,0.2,0,0.5,0.1,0.7c-1,0.1-1.9,0.2-2.7,0.2
		c-0.8,0.1-1.6,0.2-2.5,0.2c-0.9,0.1-1.7,0.2-2.5,0.2c-0.8,0.1-1.7,0.2-2.7,0.2c-0.1-1-0.2-1.8-0.2-2.6c-0.1-0.8-0.1-1.6-0.2-2.4
		s-0.2-1.7-0.2-2.4s-0.1-1.6-0.2-2.6L77.2,23.6z M86.8,32c-0.3-0.2-0.7-0.4-1-0.5c-0.3-0.8-0.5-1.5-0.7-2.2
		c-0.2-0.6-0.4-1.3-0.7-2.1c-0.2-0.7-0.5-1.4-0.7-2.1c-0.2-0.6-0.5-1.4-0.7-2.2c0.4-0.2,0.9-0.3,1.3-0.5c0.3,0.9,0.5,1.6,0.8,2.3
		c0.2,0.7,0.5,1.4,0.7,2.1c0.3,0.7,0.5,1.5,0.7,2.1c0.2,0.7,0.5,1.4,0.8,2.3C87.1,31.5,87,31.8,86.8,32z M85.1,12.4
		c0.3,0.2,0.6,0.4,1,0.5c0.3,0.8,0.5,1.5,0.7,2.2c0.2,0.6,0.4,1.3,0.7,2.1c0.2,0.7,0.5,1.4,0.7,2.1c0.2,0.6,0.5,1.4,0.7,2.2
		c-0.4,0.1-0.9,0.3-1.3,0.5c-0.3-0.9-0.5-1.6-0.8-2.3c-0.2-0.7-0.5-1.4-0.7-2.1c-0.3-0.7-0.5-1.5-0.7-2.1c-0.2-0.7-0.5-1.4-0.8-2.3
		C84.9,12.9,85,12.7,85.1,12.4z M94.7,20.9c-0.1-0.8-0.1-1.6-0.2-2.2c-0.1-0.7-0.1-1.3-0.2-2.1c-0.1-0.7-0.1-1.4-0.2-2.1
		s-0.1-1.4-0.2-2.2c-0.9,0.1-1.7,0.2-2.3,0.2c-0.7,0.1-1.4,0.1-2.2,0.2s-1.5,0.1-2.2,0.2c-0.7,0.1-1.5,0.1-2.3,0.2
		c0-0.2,0-0.5-0.1-0.7s0-0.5-0.1-0.7c1-0.1,1.9-0.2,2.7-0.2s1.6-0.2,2.5-0.2c0.9-0.1,1.7-0.2,2.5-0.2c0.8-0.1,1.7-0.2,2.7-0.2
		c0.1,1,0.2,1.8,0.2,2.6s0.1,1.6,0.2,2.4s0.2,1.7,0.2,2.4s0.1,1.6,0.2,2.6L94.7,20.9z M96.2,21.8c0.1,1,0.2,1.8,0.2,2.6
		s0.1,1.6,0.2,2.4s0.2,1.7,0.2,2.4c0.1,0.8,0.1,1.6,0.2,2.6c-1,0.1-1.9,0.2-2.7,0.2c-0.8,0.1-1.6,0.2-2.5,0.2
		c-0.9,0.1-1.7,0.2-2.5,0.2c-0.8,0.1-1.7,0.2-2.7,0.2c0-0.2,0-0.5-0.1-0.7c0-0.2,0-0.5-0.1-0.7c0.9-0.1,1.7-0.2,2.3-0.2
		c0.7-0.1,1.4-0.1,2.2-0.2c0.8-0.1,1.5-0.1,2.2-0.2s1.5-0.1,2.3-0.2c-0.1-0.8-0.1-1.6-0.2-2.2c-0.1-0.7-0.1-1.3-0.2-2.1
		c-0.1-0.7-0.1-1.4-0.2-2.1s-0.1-1.4-0.2-2.2L96.2,21.8z M96.5,24.7l-1.4,0.1C95,24,95,23.4,94.9,22.9c0-0.5-0.1-1.1-0.2-1.9
		s-0.1-1.4-0.2-1.9c0-0.5-0.1-1.1-0.2-1.9l1.4-0.1L96.5,24.7z"/>
	<path class="st0" d="M95,24.6c-0.1-1-0.2-1.8-0.2-2.6c-0.1-0.8-0.1-1.6-0.2-2.4s-0.2-1.7-0.2-2.4c-0.1-0.8-0.1-1.6-0.2-2.6
		c1-0.1,1.8-0.2,2.6-0.2c0.8-0.1,1.6-0.1,2.4-0.2c0.9-0.1,1.7-0.2,2.5-0.2c0.8-0.1,1.5-0.1,2-0.2c0.5,0,0.8-0.1,0.9-0.1
		c0,0.2,0,0.5,0.1,0.7c0,0.2,0,0.5,0.1,0.7c-0.8,0.1-1.5,0.1-2.2,0.2c-0.6,0.1-1.2,0.1-1.8,0.2c-0.6,0.1-1.3,0.1-2.2,0.2
		c0,0-0.1,0.1-0.3,0.3c-0.2,0.2-0.4,0.4-0.7,0.8c-0.3,0.3-0.5,0.6-0.8,0.9c-0.2,0.3-0.5,0.6-0.6,0.8C96,18.6,96,18.7,96,18.8
		l0.5,5.7L95,24.6z M95.3,27.3l-0.8-8.2L96,19c0.1,0.5,0.1,1,0.1,1.2s0,0.5,0.1,0.7c0,0.2,0,0.5,0.1,0.8c0,0.3,0.1,0.8,0.1,1.4
		c0.1,0.6,0.1,1,0.1,1.4s0.1,0.7,0.1,1.1s0.1,0.9,0.1,1.6L95.3,27.3z M96.2,21.8l0.5,5.7c0,0,0.1,0.1,0.3,0.3
		c0.2,0.2,0.5,0.4,0.8,0.7c0.3,0.3,0.6,0.5,0.9,0.8c0.3,0.2,0.6,0.5,0.8,0.6c0.2,0.2,0.3,0.2,0.4,0.2c0.8-0.1,1.5-0.1,2.2-0.2
		c0.6-0.1,1.2-0.1,1.8-0.2c0.6-0.1,1.3-0.1,2.2-0.2c0,0.2,0,0.5,0.1,0.7c0,0.2,0,0.5,0.1,0.7c-0.1,0-0.4,0-0.9,0.1
		c-0.5,0-1.2,0.1-2,0.2s-1.6,0.1-2.5,0.2s-1.7,0.2-2.4,0.2c-0.8,0.1-1.6,0.2-2.6,0.2c-0.1-1-0.2-1.8-0.2-2.6
		c-0.1-0.8-0.1-1.6-0.2-2.4s-0.2-1.7-0.2-2.4c-0.1-0.8-0.1-1.6-0.2-2.6L96.2,21.8z M104.4,22.4c-0.1-0.6-0.1-1.3-0.2-2.2
		c0-0.1,0-0.1,0-0.1h0.1c0.1,0,0.3,0,0.4,0s0.3,0,0.4,0s0.3,0,0.4,0s0.1,0,0.1,0v0.1c0.1,0.9,0.2,1.6,0.2,2.2
		c0.1,0.6,0.1,1.3,0.2,2.2c0,0.1,0,0.1,0,0.1h-0.1c-0.2,0-0.4,0-0.6,0.1c-0.2,0-0.4,0-0.6,0.1c-0.1,0-0.1,0-0.1,0v-0.1
		C104.5,23.7,104.5,22.9,104.4,22.4z M114,22.8l-0.5-5.7c0,0-0.1-0.1-0.3-0.3c-0.2-0.2-0.5-0.4-0.8-0.7c-0.3-0.3-0.6-0.5-0.9-0.8
		c-0.3-0.2-0.6-0.5-0.8-0.6c-0.2-0.2-0.3-0.2-0.4-0.2c-0.8,0.1-1.5,0.1-2.2,0.2c-0.6,0.1-1.2,0.1-1.8,0.2c-0.6,0.1-1.3,0.1-2.2,0.2
		c0-0.2,0-0.5-0.1-0.7c0-0.2,0-0.5-0.1-0.7c0.1,0,0.4,0,0.9-0.1c0.5,0,1.2-0.1,2-0.2c0.8-0.1,1.6-0.1,2.5-0.2s1.7-0.2,2.4-0.2
		c0.8-0.1,1.6-0.2,2.6-0.2c0.1,1,0.2,1.8,0.2,2.6c0.1,0.8,0.1,1.6,0.2,2.4s0.2,1.7,0.2,2.4c0.1,0.8,0.1,1.6,0.2,2.6L114,22.8z
		 M115.2,20.1c0.1,1,0.2,1.8,0.2,2.6c0.1,0.8,0.1,1.6,0.2,2.4s0.2,1.7,0.2,2.4c0.1,0.8,0.1,1.6,0.2,2.6c-1,0.1-1.8,0.2-2.6,0.2
		c-0.8,0.1-1.6,0.1-2.4,0.2c-0.9,0.1-1.7,0.2-2.5,0.2c-0.8,0.1-1.5,0.1-2,0.2c-0.5,0-0.8,0.1-0.9,0.1c0-0.2,0-0.5-0.1-0.7
		c0-0.2,0-0.5-0.1-0.7c0.8-0.1,1.5-0.1,2.2-0.2c0.6-0.1,1.2-0.1,1.8-0.2c0.6-0.1,1.3-0.1,2.2-0.2c0,0,0.1-0.1,0.3-0.3
		c0.2-0.2,0.4-0.4,0.7-0.7c0.3-0.3,0.5-0.6,0.8-0.9c0.2-0.3,0.5-0.6,0.6-0.8c0.2-0.2,0.2-0.3,0.2-0.4l-0.5-5.7L115.2,20.1z
		 M115.7,25.5l-1.4,0.1c-0.1-0.7-0.1-1.2-0.1-1.6s-0.1-0.8-0.1-1.1c0-0.4-0.1-0.8-0.1-1.4c-0.1-0.6-0.1-1.1-0.1-1.4
		s-0.1-0.6-0.1-0.8c0-0.2,0-0.5-0.1-0.7s-0.1-0.7-0.1-1.2l1.4-0.1L115.7,25.5z"/>
	<path class="st0" d="M114.1,23.2c-0.1-1-0.2-1.9-0.2-2.7c-0.1-0.8-0.1-1.6-0.2-2.5s-0.2-1.7-0.2-2.5c-0.1-0.8-0.2-1.7-0.2-2.7
		c1.2-0.1,2.2-0.2,3.1-0.3s1.9-0.2,2.9-0.3s2-0.2,3-0.3c0.9-0.1,1.7-0.2,2.3-0.2c0.6-0.1,1-0.1,1-0.1c0,0.3,0,0.5,0.1,0.7
		c0,0.2,0,0.5,0.1,0.7c-1.1,0.1-2,0.2-2.8,0.3s-1.7,0.2-2.6,0.2c-0.9,0.1-1.8,0.2-2.6,0.2c-0.8,0.1-1.8,0.2-2.8,0.3
		c0.1,1.2,0.2,2.3,0.3,3.1c0.1,0.9,0.2,1.8,0.2,2.7c0.1,0.9,0.2,1.9,0.3,3.1L114.1,23.2z M113.5,17.4l1.4-0.1
		c0.1,0.7,0.1,1.2,0.1,1.6s0.1,0.8,0.1,1.1c0,0.4,0.1,0.8,0.1,1.4c0.1,0.6,0.1,1.1,0.1,1.4s0.1,0.6,0.1,0.8c0,0.2,0,0.5,0.1,0.7
		c0,0.3,0.1,0.7,0.1,1.2l-1.4,0.1L113.5,17.4z M126.7,29.1c-1.2,0.1-2.2,0.2-3.1,0.3c-0.9,0.1-1.9,0.2-2.9,0.3c-1,0.1-2,0.2-2.9,0.3
		c-0.9,0.1-1.9,0.2-3.1,0.3c-0.1-1.5-0.3-2.8-0.4-4s-0.2-2.2-0.3-3.2c-0.1-1-0.2-1.9-0.3-2.8l1.4-0.1l0.5,5.7c0,0,0.1,0.1,0.3,0.3
		c0.2,0.2,0.5,0.4,0.8,0.7c0.3,0.3,0.6,0.5,0.9,0.8c0.3,0.2,0.6,0.5,0.8,0.6c0.2,0.2,0.3,0.2,0.4,0.2c0.7-0.1,1.3-0.1,1.9-0.2
		c0.5,0,1.1-0.1,1.6-0.1s1.1-0.1,1.9-0.2c0.2-0.5,0.5-0.9,0.7-1.2c0.2-0.3,0.4-0.7,0.6-1s0.4-0.7,0.7-1.2h0.2c0.2,0.5,0.4,1,0.5,1.5
		s0.2,1,0.1,1.6C126.9,28.1,126.8,28.6,126.7,29.1z M121,13.2c0.4,0,0.8-0.1,1.1-0.1h0.1l0,0l0,0c0,0,0,0,0,0.1
		c0.1,0.7,0.1,1.4,0.2,2s0.1,1.2,0.2,1.9s0.1,1.3,0.2,1.9s0.1,1.2,0.2,2v0.1l0,0h-0.1c-0.4,0-0.8,0.1-1.1,0.1h-0.1l0,0v-0.1
		c-0.1-0.7-0.1-1.4-0.2-2s-0.1-1.2-0.2-1.9c-0.1-0.7-0.1-1.3-0.2-1.9c-0.1-0.6-0.1-1.2-0.2-2L121,13.2L121,13.2
		C120.9,13.2,120.9,13.2,121,13.2L121,13.2z M136.7,21.1c-0.1-1.2-0.2-2.3-0.3-3.1c-0.1-0.9-0.2-1.8-0.2-2.7
		c-0.1-0.9-0.2-1.9-0.3-3.1c-1.1,0.1-2,0.2-2.8,0.3s-1.7,0.2-2.6,0.2c-0.9,0.1-1.8,0.2-2.6,0.2c-0.8,0.1-1.8,0.2-2.8,0.3
		c0-0.3,0-0.5-0.1-0.7c0-0.2,0-0.4-0.1-0.7c0.1,0,0.4,0,1-0.1s1.4-0.1,2.3-0.2s1.9-0.2,3-0.3s2-0.2,2.9-0.3s2-0.2,3.1-0.3
		c0.1,1,0.2,1.9,0.2,2.7c0.1,0.8,0.1,1.6,0.2,2.5c0.1,0.9,0.2,1.7,0.2,2.5c0.1,0.8,0.2,1.7,0.2,2.7L136.7,21.1z M126.3,27.6
		c-0.1-0.5-0.1-1-0.1-1.6c0-0.5,0.1-1,0.2-1.5h0.2c0.3,0.4,0.6,0.8,0.9,1s0.5,0.6,0.7,0.9s0.5,0.6,0.9,1c0.7-0.1,1.3-0.1,1.9-0.2
		c0.5,0,1.1-0.1,1.6-0.1s1.1-0.1,1.9-0.2c0,0,0.1-0.1,0.3-0.3c0.2-0.2,0.4-0.4,0.7-0.7c0.3-0.3,0.5-0.6,0.8-0.9
		c0.2-0.3,0.5-0.6,0.6-0.8c0.2-0.2,0.2-0.3,0.2-0.4l-0.5-5.7L138,18c0.1,0.9,0.2,1.9,0.3,2.8c0.1,1,0.2,2,0.3,3.2s0.2,2.5,0.4,4
		c-1.2,0.1-2.2,0.2-3.1,0.3c-0.9,0.1-1.9,0.2-2.9,0.3c-1,0.1-2,0.2-2.9,0.3c-0.9,0.1-1.9,0.2-3.1,0.3
		C126.5,28.6,126.4,28.1,126.3,27.6z M129.2,12.4L129.2,12.4C129.2,12.5,129.2,12.5,129.2,12.4c0.1,0.1,0.1,0.1,0.1,0.1
		c0.1,0.7,0.1,1.4,0.2,2c0.1,0.6,0.1,1.2,0.2,1.9c0.1,0.7,0.1,1.3,0.2,1.9c0.1,0.6,0.1,1.2,0.2,2v0.1l0,0H130
		c-0.4,0-0.8,0.1-1.1,0.1h-0.1l0,0v-0.1c-0.1-0.7-0.1-1.4-0.2-2c-0.1-0.6-0.1-1.2-0.2-1.9c-0.1-0.7-0.1-1.3-0.2-1.9
		c-0.1-0.6-0.1-1.2-0.2-2v-0.1l0,0l0,0c0,0,0,0,0.1,0C128.3,12.5,128.7,12.5,129.2,12.4C129.1,12.4,129.1,12.4,129.2,12.4z
		 M137.6,15.2l0.8,8.2l-1.4,0.1c-0.1-0.6-0.1-1-0.1-1.2c0-0.3,0-0.5-0.1-0.7s0-0.5-0.1-0.8c0-0.3-0.1-0.8-0.1-1.4
		c-0.1-0.6-0.1-1-0.1-1.4s-0.1-0.7-0.1-1.1s-0.1-0.9-0.1-1.6L137.6,15.2z"/>
	<polyline points="12.2,39.9 34.9,39.9 38.9,36.1 16.2,36.1 	"/>
	<rect x="16.3" y="8" width="22.6" height="28"/>
	<rect x="17.8" y="9.9" class="st1" width="56.1" height="24.1"/>
	<rect x="6" y="11.9" class="st1" width="6.3" height="28"/>
	<polygon points="16.3,36 12.2,39.9 12.2,11.9 16.3,8 	"/>
	<polygon class="st0" points="13.7,38.4 16.4,36.3 36.3,36.2 34.1,38.2 	"/>
	<rect x="21.8" y="13.1" class="st0" width="15.2" height="18"/>
	<path d="M20.6,20.7c0-0.8,0-1.5,0-2.1s0-1.3,0-2c0-0.7,0-1.4,0-2s0-1.3,0-2.1c0.9,0,1.7,0,2.3,0s1.4,0,2.2,0c0.8,0,1.5,0,2.2,0
		s1.5,0,2.3,0c0,0.2,0,0.4,0,0.7s0,0.5,0,0.7c-1,0-1.9,0-2.7,0s-1.5,0-2.3,0s-1.7,0-2.7,0c0,0.9,0,1.7,0,2.4c0,0.7,0,1.4,0,2.1
		s0,1.5,0,2.4L20.6,20.7L20.6,20.7z M20.6,25.6v-7H22c0,0.7,0,1.3,0,1.7c0,0.5,0,1,0,1.7s0,1.3,0,1.7c0,0.5,0,1,0,1.7h-1.4V25.6z
		 M29.3,31.9c-0.5,0-1.1,0-1.8,0c-0.7,0-1.5,0-2.3,0s-1.5,0-2.3,0s-1.5,0-2.4,0v-8.6H22v7.2c0.8,0,1.4,0,1.9,0s1.1,0,1.9,0
		s1.4,0,1.9,0s1.1,0,1.9,0c0-0.1,0-0.3,0-0.6s0-0.7,0-1.4s0-1.5,0-2.7c1,0,1.8,0,2.6,0c0.7,0,1.4,0,2.2,0c0.7,0,1.6,0,2.6,0
		c0-0.7,0-1.3,0-1.8s0-1,0-1.6c0-0.5,0-1.1,0-1.8h1.3v11.2c-0.8,0-1.4,0-2.1,0c-0.6,0-1.3,0-1.9,0s-1.3,0-2,0c-0.6,0-1.1,0-1.5,0
		s-0.6,0-0.7,0C30.1,31.9,29.8,31.9,29.3,31.9z M36.9,20.7c0-0.9,0-1.7,0-2.4s0-1.4,0-2.1s0-1.5,0-2.4c-1,0-1.9,0-2.7,0
		s-1.5,0-2.3,0s-1.7,0-2.7,0c0-0.2,0-0.4,0-0.7s0-0.4,0-0.7c0.9,0,1.7,0,2.3,0c0.7,0,1.4,0,2.2,0s1.5,0,2.2,0s1.5,0,2.3,0
		c0,0.8,0,1.5,0,2.1s0,1.3,0,2c0,0.7,0,1.4,0,2s0,1.3,0,2.1L36.9,20.7L36.9,20.7z M31.3,19.1L31.3,19.1h0.1c0.9,0,1.7,0,2.4,0
		s1.3,0,2,0s1.5,0,2.4,0h0.1l0,0c0,0,0,0,0,0.1s0,0.3,0,0.4s0,0.2,0,0.3c0,0.1,0,0.2,0,0.4c0,0.1,0,0.1,0,0.1s0,0-0.1,0
		c-0.9,0-1.7,0-2.4,0s-1.3,0-2,0s-1.5,0-2.4,0h-0.1l0,0c0,0,0,0,0-0.1C31.2,19.9,31.2,19.6,31.3,19.1C31.2,19.2,31.2,19.1,31.3,19.1
		z"/>
	<polygon points="23.2,45 20.5,42.6 17.5,45 17.5,37.5 23.2,37.5 	"/>
	<rect x="38.1" y="12.8" class="st0" width="17" height="18.3"/>
	<rect x="55.1" y="16.5" class="st0" width="18.3" height="14.6"/>
	<path d="M45.9,21v-8.6c0.7,0,1.3,0,1.8,0s1,0,1.6,0s1,0,1.3,0c0.4,0,0.6,0,0.6,0s0.2,0,0.6,0c0.3,0,0.8,0,1.3,0s1,0,1.5,0
		s1,0,1.7,0V21H55v-7.2c-0.8,0-1.4,0-1.9,0s-0.8,0-1.1,0s-0.5,0-0.7,0c-0.8,0-1.5,0-2,0s-1.2,0-2,0V21H45.9z M45.9,17.2h1.3
		c0,1.7,0,3.6,0,5.6V23v0.2c0,2.2,0,4.3,0,6.3h-1.3V17.2z M45.9,22.9h1.3v4.9c0,0,0.1,0.1,0.3,0.3c0.2,0.2,0.4,0.4,0.6,0.7
		c0.3,0.3,0.5,0.5,0.8,0.8s0.5,0.5,0.7,0.6c0.2,0.2,0.3,0.2,0.3,0.2c0.7,0,1.3,0,1.8,0s1,0,1.5,0s1.1,0,1.8,0c0-0.5,0-0.9,0-1.4
		s0-0.9,0-1.4s0-0.9,0-1.4s0-0.9,0-1.4v-2h1.3v8.9c-0.7,0-1.3,0-1.8,0s-1,0-1.5,0s-1,0-1.3,0c-0.4,0-0.6,0-0.6,0s-0.2,0-0.6,0
		c-0.4,0-0.8,0-1.3,0s-1,0-1.5,0s-1.1,0-1.8,0V22.9z M56.2,20v7.6h-1.3c0-0.5,0-0.9,0-1.2c0-0.3,0-0.5,0-0.7s0-0.4,0-0.7
		s0-0.7,0-1.3c0-0.5,0-1,0-1.3s0-0.7,0-1.1s0-0.9,0-1.5h1.3V20z"/>
	<path d="M54.9,25.1c0-0.9,0-1.7,0-2.4c0-0.7,0-1.4,0-2.2s0-1.5,0-2.2s0-1.5,0-2.4c0.9,0,1.7,0,2.4,0s1.5,0,2.3,0s1.6,0,2.3,0
		s1.4,0,1.8,0c0.5,0,0.8,0,0.9,0c0,0.2,0,0.4,0,0.7s0,0.5,0,0.7c-0.8,0-1.4,0-2,0s-1.1,0-1.7,0s-1.2,0-2,0c0,0-0.1,0.1-0.3,0.2
		c-0.2,0.2-0.4,0.4-0.7,0.6c-0.3,0.3-0.5,0.5-0.8,0.8s-0.5,0.5-0.6,0.7c-0.2,0.2-0.3,0.3-0.3,0.3v5.3h-1.3V25.1z M54.9,27.6V20h1.3
		c0,0.5,0,0.9,0,1.2c0,0.3,0,0.5,0,0.7s0,0.4,0,0.7c0,0.3,0,0.7,0,1.3c0,0.5,0,1,0,1.3s0,0.7,0,1.1s0,0.9,0,1.5h-1.3V27.6z
		 M56.2,22.6v5.3c0,0,0.1,0.1,0.3,0.3c0.2,0.2,0.4,0.4,0.6,0.7c0.3,0.3,0.5,0.5,0.8,0.8s0.5,0.5,0.7,0.6c0.2,0.2,0.3,0.2,0.3,0.2
		c0.8,0,1.4,0,2,0s1.1,0,1.7,0c0.6,0,1.2,0,2,0c0,0.2,0,0.4,0,0.7c0,0.2,0,0.5,0,0.7c-0.1,0-0.4,0-0.9,0s-1.1,0-1.8,0s-1.5,0-2.3,0
		s-1.6,0-2.3,0s-1.5,0-2.4,0c0-0.9,0-1.7,0-2.4c0-0.7,0-1.4,0-2.2c0-0.8,0-1.5,0-2.2s0-1.5,0-2.4h1.3V22.6z M63.7,23.8
		c0-0.5,0-1.2,0-2.1c0-0.1,0-0.1,0-0.1s0,0,0.1,0s0.2,0,0.4,0s0.2,0,0.3,0s0.2,0,0.4,0c0.1,0,0.1,0,0.1,0s0,0,0,0.1
		c0,0.8,0,1.5,0,2.1c0,0.5,0,1.2,0,2.1c0,0.1,0,0.1,0,0.1s0,0-0.1,0c-0.2,0-0.4,0-0.5,0s-0.4,0-0.5,0s-0.1,0-0.1,0s0,0,0-0.1
		C63.7,25,63.7,24.4,63.7,23.8z M72.5,25.1v-5.3c0,0-0.1-0.1-0.3-0.3c-0.2-0.2-0.4-0.4-0.6-0.7c-0.3-0.3-0.5-0.5-0.8-0.8
		s-0.5-0.5-0.7-0.6c-0.2-0.2-0.3-0.2-0.3-0.2c-0.8,0-1.4,0-2,0s-1.1,0-1.7,0s-1.2,0-2,0c0-0.2,0-0.4,0-0.7s0-0.4,0-0.7
		c0.1,0,0.4,0,0.9,0s1.1,0,1.8,0c0.7,0,1.5,0,2.3,0s1.6,0,2.3,0c0.7,0,1.5,0,2.4,0c0,0.9,0,1.7,0,2.4s0,1.4,0,2.2s0,1.5,0,2.2
		s0,1.5,0,2.4h-1.3V25.1z M73.8,22.6c0,0.9,0,1.7,0,2.4s0,1.4,0,2.2c0,0.8,0,1.5,0,2.2s0,1.5,0,2.4c-0.9,0-1.7,0-2.4,0
		c-0.7,0-1.5,0-2.3,0s-1.6,0-2.3,0c-0.7,0-1.4,0-1.8,0c-0.5,0-0.8,0-0.9,0c0-0.2,0-0.4,0-0.7c0-0.2,0-0.4,0-0.7c0.8,0,1.4,0,2,0
		s1.1,0,1.7,0s1.2,0,2,0c0,0,0.1-0.1,0.3-0.2c0.2-0.2,0.4-0.4,0.7-0.6c0.3-0.3,0.5-0.5,0.8-0.8s0.5-0.5,0.6-0.7
		c0.2-0.2,0.3-0.3,0.3-0.3v-5.3h1.3V22.6z M73.8,27.6h-1.3c0-0.6,0-1.1,0-1.5s0-0.7,0-1.1s0-0.8,0-1.3c0-0.6,0-1,0-1.3s0-0.5,0-0.7
		s0-0.4,0-0.7c0-0.3,0-0.6,0-1.2h1.3V27.6z"/>
	<path d="M36.9,20.7c0-0.5,0-0.9,0-1.5c0-0.5,0-1.1,0-1.7s0-1.2,0-1.8c0-0.6,0-1.2,0-1.7c0-0.6,0-1.1,0-1.6c0.7,0,1.3,0,1.8,0
		s1,0,1.5,0s1.1,0,1.8,0c0.1,0.2,0.1,0.4,0.1,0.7s0,0.5-0.1,0.7c-0.2,0-0.5,0-0.8,0s-0.6,0-0.9,0c-0.3,0-0.7,0-1,0
		c-0.4,0-0.7,0-1.1,0c0,0.9,0,1.7,0,2.4c0,0.7,0,1.4,0,2.1s0,1.5,0,2.4C38.2,20.7,36.9,20.7,36.9,20.7z M36.9,21.7
		c0-0.3,0-0.7,0-1.3s0-1.1,0-1.7s0-1.1,0-1.7c0-0.5,0-1,0-1.3H37h0.1h0.1c0.1,0,0.2,0,0.3,0s0.3,0,0.4,0c0.2,0,0.3,0,0.3,0
		c0.4,0,0.7,0,1,0s0.6,0,0.8,0s0.5,0,0.6,0c0.2,0,0.4,0,0.5,0s0.3,0,0.4,0s0.2,0,0.3,0c0,0.3,0,0.5,0,0.6c0,0.2,0,0.4,0,0.6
		c-0.5,0-1,0-1.4,0s-0.8,0-1.1,0s-0.8,0-1.4,0c0,0.4,0,0.7,0,0.9c0,0.2,0,0.4,0,0.5s0,0.2,0,0.3c0,0.4,0,0.7,0,1s0,0.6,0,1
		s0,0.7,0,1h-1V21.7z M36.9,20h1.3c0,0.6,0,1.1,0,1.5s0,0.7,0,1.1s0,0.8,0,1.3c0,0.6,0,1,0,1.3s0,0.5,0,0.7s0,0.4,0,0.7
		c0,0.3,0,0.6,0,1.2h-1.3V20z M36.9,23.6h1.3c0,0.9,0,1.7,0,2.4s0,1.4,0,2.1s0,1.5,0,2.4c0.4,0,0.8,0,1.1,0c0.4,0,0.7,0,1,0
		s0.6,0,0.9,0s0.5,0,0.8,0c0.1,0.2,0.1,0.4,0.1,0.7c0,0.3,0,0.5-0.1,0.7c-0.7,0-1.3,0-1.8,0s-1,0-1.5,0s-1.1,0-1.8,0
		c0-0.5,0-1,0-1.6s0-1.1,0-1.7s0-1.2,0-1.8c0-0.6,0-1.1,0-1.7C36.9,24.6,36.9,24.1,36.9,23.6z M47.3,20.7H46c0-0.9,0-1.7,0-2.4
		s0-1.4,0-2.1s0-1.5,0-2.4c-0.4,0-0.7,0-1.1,0c-0.4,0-0.7,0-1,0s-0.6,0-0.9,0s-0.5,0-0.8,0C42,13.6,42,13.4,42,13.1
		c0-0.3,0-0.5,0.1-0.7c0.7,0,1.3,0,1.8,0s1,0,1.5,0s1.1,0,1.8,0c0,0.5,0,1,0,1.6s0,1.1,0,1.7c0,0.6,0,1.2,0,1.8c0,0.6,0,1.1,0,1.7
		C47.3,19.7,47.3,20.2,47.3,20.7z M47.3,23.6c0,0.5,0,0.9,0,1.5c0,0.5,0,1.1,0,1.7s0,1.2,0,1.8c0,0.6,0,1.2,0,1.7c0,0.6,0,1.1,0,1.6
		c-0.7,0-1.3,0-1.8,0s-1,0-1.5,0s-1.1,0-1.8,0C42,31.7,42,31.5,42,31.2s0-0.5,0.1-0.7c0.2,0,0.5,0,0.8,0s0.6,0,0.9,0
		c0.3,0,0.7,0,1,0c0.4,0,0.7,0,1.1,0c0-0.9,0-1.7,0-2.4s0-1.4,0-2.1s0-1.5,0-2.4H47.3z M47.3,21.7H46c0-0.3,0-0.7,0-1s0-0.7,0-1
		s0-0.6,0-1c0-0.1,0-0.2,0-0.3c0-0.1,0-0.3,0-0.5s0-0.5,0-0.9c-0.8,0-1.4,0-1.9,0s-1.1,0-1.9,0c0-0.3,0-0.5,0-0.6c0-0.2,0-0.4,0-0.6
		c0.2,0,0.3,0,0.5,0s0.4,0,0.7,0s0.6,0,1,0s0.9,0,1.4,0c0.1,0,0.2,0,0.3,0c0.2,0,0.3,0,0.4,0c0.1,0,0.2,0,0.3,0h0.1H47h0.1
		c0,0.3,0,0.8,0,1.3s0,1.1,0,1.7s0,1.1,0,1.7S47.3,21.4,47.3,21.7z M47.3,20v7.6H46c0-0.5,0-0.9,0-1.2c0-0.3,0-0.5,0-0.7
		s0-0.4,0-0.7c0-0.3,0-0.7,0-1.3c0-0.5,0-1,0-1.3s0-0.7,0-1.1s0-0.9,0-1.5h1.3V20z"/>
</g>
</svg>
