<?xml version="1.0" encoding="utf-8"?>
<!-- Generator: Adobe Illustrator 22.1.0, SVG Export Plug-In . SVG Version: 6.00 Build 0)  -->
<svg version="1.1" id="Capa_1" xmlns="http://www.w3.org/2000/svg" xmlns:xlink="http://www.w3.org/1999/xlink" x="0px" y="0px"
	 viewBox="0 0 142.9 48.6" style="enable-background:new 0 0 142.9 48.6;" xml:space="preserve">
<style type="text/css">
	.st0{fill:#FFFFFF;}
	.st1{fill:#884099;}
	.st2{fill:#1F201D;}
</style>
<rect class="st0" width="142.8" height="48.5"/>
<g>
	<rect x="58.8" y="10.6" class="st1" width="79.4" height="21.3"/>
	
		<rect x="64.6" y="13.2" transform="matrix(0.9958 -9.174339e-02 9.174339e-02 0.9958 -1.6503 6.7582)" width="16.2" height="16.3"/>
	<path class="st0" d="M64,21.7c-0.1-0.8-0.1-1.5-0.2-2.2c-0.1-0.6-0.1-1.3-0.2-2c-0.1-0.7-0.1-1.4-0.2-2c-0.1-0.6-0.1-1.4-0.2-2.2
		c0.8-0.1,1.6-0.1,2.3-0.2s1.4-0.1,2.1-0.2c0.8-0.1,1.5-0.1,2.1-0.2s1.4-0.1,2.3-0.2c0,0.2,0,0.4,0.1,0.6s0,0.4,0.1,0.6
		c-0.7,0.1-1.4,0.1-2,0.2c-0.6,0.1-1.2,0.1-1.8,0.2c-0.6,0.1-1.3,0.1-1.8,0.2c-0.6,0.1-1.2,0.1-2,0.2c0.1,0.7,0.1,1.3,0.2,1.9
		c0.1,0.5,0.1,1.1,0.2,1.7c0.1,0.6,0.1,1.2,0.2,1.7c0.1,0.5,0.1,1.2,0.2,1.9L64,21.7z M64.3,25l-0.6-6.3l1.2-0.1
		c0.1,0.6,0.1,1.2,0.1,1.6c0,0.4,0.1,0.9,0.1,1.6c0.1,0.6,0.1,1.2,0.1,1.6c0,0.4,0.1,0.9,0.1,1.6L64.3,25z M65.2,22.5
		c0.1,0.7,0.1,1.3,0.2,1.9c0.1,0.5,0.1,1.1,0.2,1.7c0.1,0.6,0.1,1.2,0.2,1.7c0.1,0.5,0.1,1.2,0.2,1.9c0.7-0.1,1.4-0.1,2-0.2
		s1.2-0.1,1.8-0.2c0.6-0.1,1.3-0.1,1.8-0.2c0.6-0.1,1.2-0.1,2-0.2c0,0.2,0,0.4,0.1,0.6c0,0.2,0,0.4,0.1,0.6
		c-0.8,0.1-1.6,0.1-2.3,0.2c-0.7,0.1-1.4,0.1-2.1,0.2c-0.8,0.1-1.5,0.1-2.1,0.2c-0.7,0.1-1.4,0.1-2.3,0.2c-0.1-0.8-0.1-1.5-0.2-2.2
		c-0.1-0.6-0.1-1.3-0.2-2c-0.1-0.7-0.1-1.4-0.2-2c-0.1-0.6-0.1-1.4-0.2-2.2L65.2,22.5z M73.3,29.6c-0.3-0.2-0.5-0.3-0.8-0.5
		c-0.2-0.7-0.4-1.3-0.6-1.8c-0.2-0.5-0.4-1.1-0.6-1.7c-0.2-0.6-0.4-1.2-0.6-1.7c-0.2-0.5-0.4-1.2-0.6-1.8c0.4-0.1,0.7-0.3,1.1-0.4
		c0.2,0.7,0.5,1.4,0.6,1.9c0.2,0.6,0.4,1.2,0.6,1.8c0.2,0.6,0.4,1.2,0.6,1.8c0.2,0.6,0.4,1.2,0.6,1.9C73.5,29.2,73.4,29.4,73.3,29.6
		z M71.9,13.2c0.3,0.1,0.5,0.3,0.8,0.5c0.2,0.7,0.4,1.3,0.6,1.8c0.2,0.5,0.4,1.1,0.6,1.7c0.2,0.6,0.4,1.2,0.6,1.7
		c0.2,0.5,0.4,1.2,0.6,1.8c-0.4,0.1-0.7,0.3-1.1,0.4c-0.2-0.7-0.5-1.4-0.6-1.9c-0.2-0.6-0.4-1.2-0.6-1.8c-0.2-0.6-0.4-1.2-0.6-1.8
		c-0.2-0.6-0.4-1.2-0.6-1.9C71.7,13.5,71.8,13.3,71.9,13.2z M79.9,20.3c-0.1-0.7-0.1-1.3-0.2-1.9c-0.1-0.5-0.1-1.1-0.2-1.7
		c-0.1-0.6-0.1-1.2-0.2-1.7c-0.1-0.5-0.1-1.2-0.2-1.9c-0.7,0.1-1.4,0.1-2,0.2c-0.6,0.1-1.2,0.1-1.8,0.2c-0.6,0.1-1.3,0.1-1.8,0.2
		c-0.6,0.1-1.2,0.1-2,0.2c0-0.2,0-0.4-0.1-0.6c0-0.2,0-0.4-0.1-0.6c0.8-0.1,1.6-0.1,2.3-0.2c0.7-0.1,1.4-0.1,2.1-0.2
		c0.8-0.1,1.5-0.1,2.1-0.2c0.7-0.1,1.4-0.1,2.3-0.2c0.1,0.8,0.1,1.5,0.2,2.2c0.1,0.6,0.1,1.3,0.2,2c0.1,0.7,0.1,1.4,0.2,2
		c0.1,0.6,0.1,1.4,0.2,2.2L79.9,20.3z M81.2,21c0.1,0.8,0.1,1.5,0.2,2.2c0.1,0.6,0.1,1.3,0.2,2c0.1,0.7,0.1,1.4,0.2,2
		c0.1,0.6,0.1,1.4,0.2,2.2c-0.8,0.1-1.6,0.1-2.3,0.2c-0.7,0.1-1.4,0.1-2.1,0.2c-0.8,0.1-1.5,0.1-2.1,0.2c-0.7,0.1-1.4,0.1-2.3,0.2
		c0-0.2,0-0.4-0.1-0.6c0-0.2,0-0.4-0.1-0.6c0.7-0.1,1.4-0.1,2-0.2c0.6-0.1,1.2-0.1,1.8-0.2c0.6-0.1,1.3-0.1,1.8-0.2
		c0.6-0.1,1.2-0.1,2-0.2c-0.1-0.7-0.1-1.3-0.2-1.9c-0.1-0.5-0.1-1.1-0.2-1.7c-0.1-0.6-0.1-1.2-0.2-1.7c-0.1-0.5-0.1-1.2-0.2-1.9
		L81.2,21z M81.4,23.4l-1.2,0.1c-0.1-0.6-0.1-1.2-0.1-1.6c0-0.4-0.1-0.9-0.1-1.6c-0.1-0.6-0.1-1.2-0.1-1.6c0-0.4-0.1-0.9-0.1-1.6
		l1.2-0.1L81.4,23.4z"/>
	<polyline points="37.7,37.1 57.7,37.1 61.2,33.7 41.2,33.7 	"/>
	<rect x="41.3" y="9" width="19.9" height="24.7"/>
	<rect x="42.7" y="10.6" width="18.5" height="21.3"/>
	<rect x="40.6" y="10.6" class="st1" width="19.4" height="21.3"/>
	<polygon points="41.3,33.7 37.7,37.1 37.7,12.4 41.3,9 	"/>
	<polygon class="st0" points="39,35.8 41.4,33.9 59,33.8 57,35.6 	"/>
	<rect x="46.2" y="13.4" class="st0" width="13.4" height="15.9"/>
	<path d="M45.1,20.1c0-0.7,0-1.3,0-1.9c0-0.6,0-1.1,0-1.8c0-0.6,0-1.2,0-1.8s0-1.2,0-1.9c0.8,0,1.5,0,2.1,0s1.2,0,1.9,0
		c0.7,0,1.3,0,1.9,0c0.6,0,1.3,0,2.1,0c0,0.2,0,0.4,0,0.6c0,0.2,0,0.4,0,0.6c-0.9,0-1.7,0-2.4,0s-1.3,0-2,0c-0.7,0-1.5,0-2.4,0
		c0,0.8,0,1.5,0,2.1s0,1.2,0,1.8c0,0.6,0,1.3,0,2.1H45.1z M45.1,24.5v-6.1h1.2c0,0.6,0,1.1,0,1.5c0,0.4,0,0.9,0,1.5
		c0,0.6,0,1.1,0,1.5c0,0.4,0,0.9,0,1.5H45.1z M52.8,30c-0.4,0-0.9,0-1.6,0c-0.6,0-1.3,0-2,0c-0.7,0-1.4,0-2,0c-0.6,0-1.3,0-2.1,0
		v-7.5h1.2v6.4c0.7,0,1.2,0,1.7,0s1,0,1.7,0c0.7,0,1.2,0,1.7,0c0.4,0,1,0,1.7,0c0-0.1,0-0.3,0-0.5c0-0.2,0-0.6,0-1.2s0-1.4,0-2.4
		c0.9,0,1.6,0,2.3,0c0.6,0,1.3,0,1.9,0c0.6,0,1.4,0,2.3,0c0-0.6,0-1.2,0-1.6s0-0.9,0-1.4c0-0.5,0-1,0-1.6h1.2V30c-0.7,0-1.3,0-1.8,0
		c-0.5,0-1.1,0-1.7,0c-0.6,0-1.2,0-1.7,0c-0.5,0-1,0-1.4,0c-0.4,0-0.5,0-0.6,0C53.5,30,53.2,30,52.8,30z M59.5,20.1
		c0-0.8,0-1.5,0-2.1c0-0.6,0-1.2,0-1.8s0-1.3,0-2.1c-0.9,0-1.7,0-2.4,0s-1.3,0-2,0s-1.5,0-2.4,0c0-0.2,0-0.4,0-0.6
		c0-0.2,0-0.4,0-0.6c0.8,0,1.5,0,2.1,0c0.6,0,1.2,0,1.9,0c0.7,0,1.3,0,1.9,0c0.6,0,1.3,0,2.1,0c0,0.7,0,1.3,0,1.9s0,1.1,0,1.8
		c0,0.6,0,1.2,0,1.8c0,0.6,0,1.2,0,1.9H59.5z M54.5,18.8C54.5,18.7,54.5,18.7,54.5,18.8c0,0,0.1,0,0.1,0c0.8,0,1.5,0,2.1,0
		c0.6,0,1.2,0,1.8,0c0.6,0,1.3,0,2.1,0c0,0,0.1,0,0.1,0c0,0,0,0,0,0c0,0,0,0,0,0.1c0,0.1,0,0.2,0,0.3s0,0.2,0,0.3c0,0.1,0,0.2,0,0.3
		c0,0.1,0,0.1,0,0.1c0,0,0,0-0.1,0c-0.8,0-1.5,0-2.1,0c-0.6,0-1.2,0-1.8,0c-0.6,0-1.3,0-2.1,0c0,0-0.1,0-0.1,0c0,0,0,0,0,0
		c0,0,0,0,0-0.1C54.5,19.5,54.5,19.1,54.5,18.8C54.5,18.8,54.5,18.8,54.5,18.8z"/>
	<polygon class="st2" points="47.4,41.6 45,39.5 42.4,41.6 42.4,34.9 47.4,34.9 	"/>
	<rect x="4.8" y="12.4" class="st1" width="33" height="24.7"/>
</g>
</svg>
