<?xml version="1.0" encoding="utf-8"?>
<!-- Generator: Adobe Illustrator 22.1.0, SVG Export Plug-In . SVG Version: 6.00 Build 0)  -->
<svg version="1.1" id="Capa_1" xmlns="http://www.w3.org/2000/svg" xmlns:xlink="http://www.w3.org/1999/xlink" x="0px" y="0px"
	 viewBox="0 0 142.9 48.6" style="enable-background:new 0 0 142.9 48.6;" xml:space="preserve">
<style type="text/css">
	.st0{fill:#FFFFFF;}
	.st1{fill:#FEED00;}
	.st2{fill:#884099;}
	.st3{fill:#1F201D;}
</style>
<rect class="st0" width="142.8" height="48.5"/>
<g>
	<rect x="58.3" y="11.6" class="st1" width="79.1" height="21.3"/>
	
		<rect x="64.1" y="14.2" transform="matrix(0.9958 -9.174339e-02 9.174339e-02 0.9958 -1.7413 6.7165)" width="16.1" height="16.3"/>
	
		<rect x="80.7" y="14.3" transform="matrix(0.9958 -9.174339e-02 9.174339e-02 0.9958 -1.5491 9.0775)" width="34.5" height="14.2"/>
	<path class="st0" d="M63.5,22.7c-0.1-0.8-0.1-1.5-0.2-2.2s-0.1-1.3-0.2-2c-0.1-0.7-0.1-1.4-0.2-2c-0.1-0.6-0.1-1.4-0.2-2.2
		c0.8-0.1,1.6-0.1,2.3-0.2c0.7-0.1,1.4-0.1,2.1-0.2c0.7-0.1,1.5-0.1,2.1-0.2c0.7-0.1,1.4-0.1,2.3-0.2c0,0.2,0,0.4,0.1,0.6
		s0,0.4,0.1,0.6c-0.7,0.1-1.4,0.1-2,0.2c-0.6,0.1-1.2,0.1-1.8,0.2s-1.2,0.1-1.8,0.2c-0.6,0.1-1.2,0.1-2,0.2c0.1,0.7,0.1,1.3,0.2,1.9
		c0.1,0.5,0.1,1.1,0.2,1.7c0.1,0.6,0.1,1.2,0.2,1.7c0.1,0.5,0.1,1.2,0.2,1.9L63.5,22.7z M63.8,26l-0.6-6.3l1.2-0.1
		c0.1,0.6,0.1,1.2,0.1,1.6c0,0.4,0.1,0.9,0.1,1.6c0.1,0.6,0.1,1.2,0.1,1.6c0,0.4,0.1,0.9,0.1,1.6L63.8,26z M64.8,23.4
		c0.1,0.7,0.1,1.3,0.2,1.9c0.1,0.5,0.1,1.1,0.2,1.7c0.1,0.6,0.1,1.2,0.2,1.7c0.1,0.5,0.1,1.2,0.2,1.9c0.7-0.1,1.4-0.1,2-0.2
		c0.6-0.1,1.2-0.1,1.8-0.2s1.2-0.1,1.8-0.2c0.6-0.1,1.2-0.1,2-0.2c0,0.2,0,0.4,0.1,0.6c0,0.2,0,0.4,0.1,0.6
		c-0.8,0.1-1.6,0.1-2.3,0.2c-0.7,0.1-1.4,0.1-2.1,0.2c-0.8,0.1-1.5,0.1-2.1,0.2c-0.7,0.1-1.4,0.1-2.3,0.2c-0.1-0.8-0.1-1.5-0.2-2.2
		c-0.1-0.6-0.1-1.3-0.2-2c-0.1-0.7-0.1-1.4-0.2-2c-0.1-0.6-0.1-1.4-0.2-2.2L64.8,23.4z M72.8,30.5c-0.3-0.2-0.5-0.3-0.8-0.5
		c-0.2-0.7-0.4-1.3-0.6-1.8c-0.2-0.5-0.4-1.1-0.6-1.7c-0.2-0.6-0.4-1.2-0.6-1.7c-0.2-0.5-0.4-1.1-0.6-1.8c0.4-0.1,0.7-0.3,1.1-0.4
		c0.2,0.7,0.4,1.4,0.6,1.9c0.2,0.6,0.4,1.1,0.6,1.8c0.2,0.6,0.4,1.2,0.6,1.8c0.2,0.6,0.4,1.2,0.6,1.9C73,30.1,72.9,30.3,72.8,30.5z
		 M71.4,14.2c0.3,0.1,0.5,0.3,0.8,0.5c0.2,0.7,0.4,1.3,0.6,1.8c0.2,0.5,0.4,1.1,0.6,1.7c0.2,0.6,0.4,1.2,0.6,1.7
		c0.2,0.5,0.4,1.1,0.6,1.8c-0.4,0.1-0.7,0.3-1.1,0.4c-0.2-0.7-0.4-1.4-0.6-1.9c-0.2-0.6-0.4-1.1-0.6-1.8c-0.2-0.6-0.4-1.2-0.6-1.8
		c-0.2-0.6-0.4-1.2-0.6-1.9C71.2,14.5,71.3,14.3,71.4,14.2z M79.4,21.2c-0.1-0.7-0.1-1.3-0.2-1.9c-0.1-0.5-0.1-1.1-0.2-1.7
		c-0.1-0.6-0.1-1.2-0.2-1.7s-0.1-1.2-0.2-1.9c-0.7,0.1-1.4,0.1-2,0.2c-0.6,0.1-1.2,0.1-1.8,0.2c-0.6,0.1-1.2,0.1-1.8,0.2
		c-0.6,0.1-1.2,0.1-2,0.2c0-0.2,0-0.4-0.1-0.6s0-0.4-0.1-0.6c0.8-0.1,1.6-0.1,2.3-0.2c0.7-0.1,1.4-0.1,2.1-0.2
		c0.7-0.1,1.5-0.1,2.1-0.2c0.7-0.1,1.4-0.1,2.3-0.2c0.1,0.8,0.1,1.5,0.2,2.2c0.1,0.6,0.1,1.3,0.2,2c0.1,0.7,0.1,1.4,0.2,2
		s0.1,1.4,0.2,2.2L79.4,21.2z M80.7,22c0.1,0.8,0.1,1.5,0.2,2.2c0.1,0.6,0.1,1.3,0.2,2c0.1,0.7,0.1,1.4,0.2,2
		c0.1,0.6,0.1,1.4,0.2,2.2c-0.8,0.1-1.6,0.1-2.3,0.2c-0.7,0.1-1.4,0.1-2.1,0.2c-0.8,0.1-1.5,0.1-2.1,0.2c-0.7,0.1-1.4,0.1-2.3,0.2
		c0-0.2,0-0.4-0.1-0.6c0-0.2,0-0.4-0.1-0.6c0.7-0.1,1.4-0.1,2-0.2c0.6-0.1,1.2-0.1,1.8-0.2c0.6-0.1,1.2-0.1,1.8-0.2
		c0.6-0.1,1.2-0.1,2-0.2c-0.1-0.7-0.1-1.3-0.2-1.9c-0.1-0.5-0.1-1.1-0.2-1.7c-0.1-0.6-0.1-1.2-0.2-1.7c-0.1-0.5-0.1-1.2-0.2-1.9
		L80.7,22z M80.9,24.4l-1.2,0.1c-0.1-0.6-0.1-1.2-0.1-1.6c0-0.4-0.1-0.9-0.1-1.6c-0.1-0.6-0.1-1.2-0.1-1.6c0-0.4-0.1-0.9-0.1-1.6
		l1.2-0.1L80.9,24.4z"/>
	<path class="st0" d="M79.7,24.3c-0.1-0.8-0.1-1.5-0.2-2.2c-0.1-0.6-0.1-1.3-0.2-2s-0.1-1.4-0.2-2c-0.1-0.6-0.1-1.4-0.2-2.2
		c0.8-0.1,1.5-0.1,2.2-0.2s1.3-0.1,2-0.2c0.7-0.1,1.4-0.1,2.1-0.2c0.7-0.1,1.2-0.1,1.7-0.2c0.4,0,0.7-0.1,0.8-0.1
		c0,0.2,0,0.4,0.1,0.6c0,0.2,0,0.4,0.1,0.6c-0.7,0.1-1.3,0.1-1.8,0.2c-0.5,0-1,0.1-1.5,0.1s-1.1,0.1-1.8,0.2c0,0-0.1,0.1-0.3,0.3
		c-0.2,0.2-0.3,0.4-0.6,0.6c-0.2,0.3-0.4,0.5-0.6,0.8c-0.2,0.3-0.4,0.5-0.5,0.7c-0.1,0.2-0.2,0.3-0.2,0.3l0.4,4.8L79.7,24.3z
		 M79.9,26.6l-0.6-6.9l1.2-0.1c0,0.5,0.1,0.8,0.1,1c0,0.2,0,0.4,0.1,0.6c0,0.2,0,0.4,0.1,0.7c0,0.3,0.1,0.6,0.1,1.1
		c0,0.5,0.1,0.9,0.1,1.2s0.1,0.6,0.1,1s0.1,0.8,0.1,1.3L79.9,26.6z M80.7,22l0.4,4.8c0,0,0.1,0.1,0.3,0.3c0.2,0.2,0.4,0.3,0.6,0.6
		c0.3,0.2,0.5,0.4,0.8,0.6c0.3,0.2,0.5,0.4,0.7,0.5c0.2,0.1,0.3,0.2,0.3,0.2c0.7-0.1,1.3-0.1,1.8-0.2c0.5,0,1-0.1,1.5-0.1
		s1.1-0.1,1.8-0.2c0,0.2,0,0.4,0.1,0.6c0,0.2,0,0.4,0.1,0.6c-0.1,0-0.3,0-0.8,0.1c-0.5,0-1,0.1-1.7,0.2c-0.7,0.1-1.4,0.1-2.1,0.2
		c-0.7,0.1-1.4,0.1-2,0.2s-1.4,0.1-2.2,0.2c-0.1-0.8-0.1-1.5-0.2-2.2c-0.1-0.6-0.1-1.3-0.2-2c-0.1-0.7-0.1-1.4-0.2-2
		c-0.1-0.6-0.1-1.4-0.2-2.2L80.7,22z M87.5,22.4c0-0.5-0.1-1.1-0.2-1.9c0-0.1,0-0.1,0-0.1c0,0,0,0,0.1,0c0.1,0,0.2,0,0.3,0
		s0.2,0,0.3,0c0.1,0,0.2,0,0.3,0c0.1,0,0.1,0,0.1,0c0,0,0,0,0,0.1c0.1,0.7,0.1,1.4,0.2,1.9c0,0.5,0.1,1.1,0.2,1.9c0,0.1,0,0.1,0,0.1
		c0,0,0,0-0.1,0c-0.2,0-0.3,0-0.5,0c-0.2,0-0.3,0-0.5,0c-0.1,0-0.1,0-0.1,0c0,0,0,0,0-0.1C87.6,23.5,87.6,22.9,87.5,22.4z
		 M95.6,22.8l-0.4-4.8c0,0-0.1-0.1-0.3-0.3c-0.2-0.2-0.4-0.3-0.6-0.6c-0.3-0.2-0.5-0.4-0.8-0.6c-0.3-0.2-0.5-0.4-0.7-0.5
		c-0.2-0.1-0.3-0.2-0.3-0.2c-0.7,0.1-1.3,0.1-1.8,0.2c-0.5,0-1,0.1-1.5,0.1c-0.5,0-1.1,0.1-1.8,0.2c0-0.2,0-0.4-0.1-0.6
		c0-0.2,0-0.4-0.1-0.6c0.1,0,0.3,0,0.8-0.1c0.4,0,1-0.1,1.7-0.2c0.7-0.1,1.4-0.1,2.1-0.2s1.4-0.1,2-0.2s1.4-0.1,2.2-0.2
		c0.1,0.8,0.1,1.5,0.2,2.2c0.1,0.6,0.1,1.3,0.2,2s0.1,1.4,0.2,2c0.1,0.6,0.1,1.4,0.2,2.2L95.6,22.8z M96.6,20.5
		c0.1,0.8,0.1,1.5,0.2,2.2c0.1,0.6,0.1,1.3,0.2,2c0.1,0.7,0.1,1.4,0.2,2c0.1,0.6,0.1,1.4,0.2,2.2c-0.8,0.1-1.5,0.1-2.2,0.2
		c-0.6,0.1-1.3,0.1-2,0.2c-0.7,0.1-1.4,0.1-2.1,0.2c-0.7,0.1-1.2,0.1-1.7,0.2c-0.5,0-0.7,0.1-0.8,0.1c0-0.2,0-0.4-0.1-0.6
		c0-0.2,0-0.4-0.1-0.6c0.7-0.1,1.3-0.1,1.8-0.2s1-0.1,1.5-0.1c0.5,0,1.1-0.1,1.8-0.2c0,0,0.1-0.1,0.3-0.3c0.2-0.2,0.3-0.4,0.6-0.6
		c0.2-0.3,0.4-0.5,0.6-0.8c0.2-0.3,0.4-0.5,0.5-0.7c0.1-0.2,0.2-0.3,0.2-0.3l-0.4-4.8L96.6,20.5z M97,25l-1.2,0.1
		c-0.1-0.5-0.1-1-0.1-1.3c0-0.3-0.1-0.6-0.1-1s-0.1-0.7-0.1-1.2c0-0.5-0.1-0.9-0.1-1.1c0-0.3,0-0.5-0.1-0.7c0-0.2,0-0.4-0.1-0.6
		c0-0.2-0.1-0.6-0.1-1l1.2-0.1L97,25z"/>
	<path class="st0" d="M95.6,23.1c-0.1-0.8-0.1-1.6-0.2-2.2s-0.1-1.4-0.2-2.1c-0.1-0.7-0.1-1.4-0.2-2.1c-0.1-0.7-0.1-1.4-0.2-2.2
		c1-0.1,1.8-0.2,2.6-0.2c0.8-0.1,1.6-0.1,2.5-0.2s1.7-0.2,2.5-0.2c0.8-0.1,1.4-0.1,2-0.2c0.5,0,0.8-0.1,0.8-0.1c0,0.2,0,0.4,0.1,0.6
		c0,0.2,0,0.4,0.1,0.6c-0.9,0.1-1.7,0.2-2.4,0.2c-0.7,0.1-1.4,0.1-2.2,0.2s-1.5,0.1-2.2,0.2c-0.7,0.1-1.5,0.1-2.4,0.2
		c0.1,1,0.2,1.9,0.2,2.6c0.1,0.7,0.1,1.5,0.2,2.2c0.1,0.7,0.1,1.6,0.2,2.6L95.6,23.1z M95.1,18.3l1.2-0.1c0.1,0.6,0.1,1,0.1,1.3
		s0.1,0.6,0.1,1c0,0.3,0.1,0.7,0.1,1.2c0,0.5,0.1,0.9,0.1,1.1c0,0.3,0,0.5,0.1,0.7c0,0.2,0,0.4,0.1,0.6c0,0.2,0.1,0.6,0.1,1
		l-1.2,0.1L95.1,18.3z M106.2,28.1c-1,0.1-1.8,0.2-2.6,0.2c-0.8,0.1-1.6,0.1-2.4,0.2c-0.9,0.1-1.7,0.2-2.4,0.2
		c-0.8,0.1-1.6,0.1-2.6,0.2c-0.1-1.3-0.2-2.4-0.3-3.3s-0.2-1.8-0.2-2.7s-0.1-1.6-0.2-2.4l1.2-0.1l0.4,4.8c0,0,0.1,0.1,0.3,0.3
		c0.2,0.2,0.4,0.3,0.6,0.6c0.3,0.2,0.5,0.4,0.8,0.6c0.3,0.2,0.5,0.4,0.7,0.5c0.2,0.1,0.3,0.2,0.3,0.2c0.6-0.1,1.1-0.1,1.6-0.1
		c0.4,0,0.9-0.1,1.3-0.1c0.4,0,1-0.1,1.6-0.1c0.2-0.4,0.4-0.7,0.5-1c0.2-0.3,0.3-0.6,0.5-0.8c0.2-0.3,0.3-0.6,0.5-1l0.2,0
		c0.2,0.4,0.3,0.8,0.4,1.2c0.1,0.4,0.1,0.9,0.1,1.3C106.3,27.2,106.3,27.6,106.2,28.1z M101.4,14.8c0.3,0,0.6-0.1,1-0.1
		c0,0,0.1,0,0.1,0c0,0,0,0,0,0c0,0,0,0,0,0c0,0,0,0,0,0.1c0.1,0.6,0.1,1.2,0.2,1.7c0,0.5,0.1,1,0.1,1.6c0.1,0.6,0.1,1.1,0.1,1.6
		c0,0.5,0.1,1,0.2,1.7c0,0,0,0.1,0,0.1c0,0,0,0,0,0s0,0-0.1,0c-0.3,0-0.6,0.1-1,0.1c0,0-0.1,0-0.1,0c0,0,0,0,0,0c0,0,0,0,0-0.1
		c-0.1-0.6-0.1-1.2-0.2-1.7c0-0.5-0.1-1-0.1-1.6c-0.1-0.5-0.1-1.1-0.1-1.6c0-0.5-0.1-1-0.2-1.7c0,0,0-0.1,0-0.1c0,0,0,0,0,0
		C101.3,14.8,101.3,14.8,101.4,14.8C101.4,14.8,101.4,14.8,101.4,14.8z M114.5,21.4c-0.1-1-0.2-1.9-0.2-2.6
		c-0.1-0.7-0.1-1.5-0.2-2.2c-0.1-0.7-0.1-1.6-0.2-2.6c-0.9,0.1-1.7,0.2-2.4,0.2c-0.7,0.1-1.4,0.1-2.2,0.2c-0.8,0.1-1.5,0.1-2.2,0.2
		s-1.5,0.1-2.4,0.2c0-0.2,0-0.4-0.1-0.6c0-0.2,0-0.4-0.1-0.6c0.1,0,0.3,0,0.8-0.1c0.5,0,1.2-0.1,1.9-0.2c0.8-0.1,1.6-0.1,2.5-0.2
		s1.7-0.2,2.5-0.2s1.6-0.2,2.6-0.2c0.1,0.8,0.1,1.6,0.2,2.2c0.1,0.7,0.1,1.4,0.2,2.1c0.1,0.7,0.1,1.4,0.2,2.1s0.1,1.4,0.2,2.2
		L114.5,21.4z M105.8,26.8c-0.1-0.4-0.1-0.9-0.1-1.3c0-0.4,0.1-0.9,0.1-1.3l0.2,0c0.3,0.3,0.5,0.6,0.7,0.9c0.2,0.2,0.4,0.5,0.6,0.7
		c0.2,0.2,0.4,0.5,0.7,0.9c0.6-0.1,1.1-0.1,1.6-0.1c0.4,0,0.9-0.1,1.3-0.1c0.4,0,1-0.1,1.6-0.1c0,0,0.1-0.1,0.3-0.3
		c0.2-0.2,0.3-0.4,0.6-0.6c0.2-0.3,0.4-0.5,0.6-0.8c0.2-0.3,0.4-0.5,0.5-0.7c0.1-0.2,0.2-0.3,0.2-0.3l-0.4-4.8l1.2-0.1
		c0.1,0.8,0.1,1.6,0.2,2.4s0.2,1.7,0.2,2.7s0.2,2.1,0.3,3.3c-1,0.1-1.8,0.2-2.6,0.2c-0.8,0.1-1.6,0.1-2.4,0.2
		c-0.9,0.1-1.7,0.2-2.4,0.2c-0.8,0.1-1.6,0.1-2.6,0.2C106,27.7,105.9,27.3,105.8,26.8z M108.2,14.1
		C108.2,14.1,108.2,14.1,108.2,14.1C108.2,14.2,108.3,14.2,108.2,14.1c0.1,0.1,0.1,0.1,0.1,0.1c0.1,0.6,0.1,1.2,0.2,1.7
		c0,0.5,0.1,1,0.1,1.6c0.1,0.6,0.1,1.1,0.1,1.6c0,0.5,0.1,1,0.2,1.7c0,0,0,0.1,0,0.1s0,0,0,0c0,0,0,0-0.1,0c-0.3,0-0.6,0.1-1,0.1
		c0,0-0.1,0-0.1,0c0,0,0,0,0,0c0,0,0,0,0-0.1c-0.1-0.6-0.1-1.2-0.2-1.7c0-0.5-0.1-1-0.1-1.6c-0.1-0.5-0.1-1.1-0.1-1.6
		c0-0.5-0.1-1-0.2-1.7c0,0,0-0.1,0-0.1c0,0,0,0,0,0c0,0,0,0,0,0c0,0,0,0,0.1,0C107.5,14.2,107.8,14.2,108.2,14.1
		C108.2,14.1,108.2,14.1,108.2,14.1z M115.2,16.4l0.6,6.9l-1.2,0.1c0-0.5-0.1-0.8-0.1-1c0-0.2,0-0.4-0.1-0.6s0-0.4-0.1-0.7
		c0-0.3-0.1-0.6-0.1-1.1c0-0.5-0.1-0.9-0.1-1.2s-0.1-0.6-0.1-1s-0.1-0.8-0.1-1.3L115.2,16.4z"/>
	<polyline points="37.4,38 57.2,38 60.7,34.6 40.8,34.6 	"/>
	<rect x="40.9" y="10" width="19.8" height="24.6"/>
	<rect x="42.3" y="11.6" width="18.5" height="21.2"/>
	<rect x="40.2" y="11.6" class="st2" width="19.4" height="21.2"/>
	<polygon points="40.9,34.6 37.4,38 37.4,13.4 40.9,10 	"/>
	<polygon class="st0" points="38.7,36.7 41,34.9 58.5,34.7 56.5,36.5 	"/>
	<rect x="45.8" y="14.4" class="st0" width="13.4" height="15.8"/>
	<path d="M44.7,21.1c0-0.7,0-1.3,0-1.9c0-0.5,0-1.1,0-1.8c0-0.6,0-1.2,0-1.8s0-1.2,0-1.9c0.8,0,1.4,0,2,0c0.6,0,1.2,0,1.9,0
		c0.7,0,1.3,0,1.9,0c0.6,0,1.3,0,2,0c0,0.2,0,0.4,0,0.6s0,0.4,0,0.6c-0.9,0-1.7,0-2.4,0s-1.3,0-2,0c-0.7,0-1.5,0-2.4,0
		c0,0.8,0,1.5,0,2.1c0,0.6,0,1.2,0,1.8c0,0.6,0,1.3,0,2.1H44.7z M44.7,25.5v-6.1h1.2c0,0.6,0,1.1,0,1.5s0,0.9,0,1.5
		c0,0.6,0,1.1,0,1.5s0,0.9,0,1.5H44.7z M52.4,30.9c-0.4,0-0.9,0-1.6,0c-0.6,0-1.3,0-2,0s-1.4,0-2,0s-1.3,0-2.1,0v-7.5h1.2v6.3
		c0.7,0,1.2,0,1.7,0c0.4,0,1,0,1.7,0c0.7,0,1.2,0,1.7,0c0.4,0,1,0,1.7,0c0-0.1,0-0.3,0-0.5s0-0.6,0-1.2s0-1.4,0-2.4
		c0.9,0,1.6,0,2.2,0c0.6,0,1.3,0,1.9,0c0.6,0,1.4,0,2.2,0c0-0.6,0-1.2,0-1.6s0-0.9,0-1.4c0-0.5,0-1,0-1.6h1.2v9.9
		c-0.7,0-1.3,0-1.8,0c-0.5,0-1.1,0-1.7,0c-0.6,0-1.2,0-1.7,0c-0.5,0-1,0-1.3,0c-0.4,0-0.5,0-0.6,0C53,30.9,52.8,30.9,52.4,30.9z
		 M59.1,21.1c0-0.8,0-1.5,0-2.1c0-0.6,0-1.2,0-1.8c0-0.6,0-1.3,0-2.1c-0.9,0-1.7,0-2.4,0c-0.7,0-1.3,0-2,0c-0.7,0-1.5,0-2.4,0
		c0-0.2,0-0.4,0-0.6s0-0.4,0-0.6c0.8,0,1.4,0,2,0c0.6,0,1.2,0,1.9,0c0.7,0,1.3,0,1.9,0c0.6,0,1.3,0,2,0c0,0.7,0,1.3,0,1.9
		s0,1.1,0,1.8c0,0.6,0,1.2,0,1.8c0,0.5,0,1.2,0,1.9H59.1z M54.1,19.7C54.1,19.7,54.1,19.7,54.1,19.7c0,0,0.1,0,0.1,0
		c0.8,0,1.5,0,2.1,0c0.6,0,1.2,0,1.8,0c0.6,0,1.3,0,2.1,0c0,0,0.1,0,0.1,0c0,0,0,0,0,0c0,0,0,0,0,0.1c0,0.1,0,0.2,0,0.3s0,0.2,0,0.3
		s0,0.2,0,0.3c0,0.1,0,0.1,0,0.1c0,0,0,0-0.1,0c-0.8,0-1.5,0-2.1,0c-0.6,0-1.2,0-1.8,0c-0.6,0-1.3,0-2.1,0c0,0-0.1,0-0.1,0
		c0,0,0,0,0,0c0,0,0,0,0-0.1C54.1,20.4,54.1,20.1,54.1,19.7C54.1,19.8,54.1,19.7,54.1,19.7z"/>
	<polygon class="st3" points="47,42.4 44.6,40.4 42,42.4 42,35.9 47,35.9 	"/>
	<rect x="4.5" y="13.4" class="st2" width="32.9" height="24.5"/>
</g>
</svg>
