<?xml version="1.0" encoding="utf-8"?>
<!-- Generator: Adobe Illustrator 22.1.0, SVG Export Plug-In . SVG Version: 6.00 Build 0)  -->
<svg version="1.1" id="Capa_1" xmlns="http://www.w3.org/2000/svg" xmlns:xlink="http://www.w3.org/1999/xlink" x="0px" y="0px"
	 viewBox="0 0 142.9 48.6" style="enable-background:new 0 0 142.9 48.6;" xml:space="preserve">
<style type="text/css">
	.st0{fill:#FFFFFF;}
	.st1{fill:#FEED00;}
	.st2{fill:#1F201D;}
</style>
<rect class="st0" width="142.8" height="48.5"/>
<g>
	<rect x="58.6" y="10.8" class="st1" width="77.4" height="20.8"/>
	
		<rect x="64.3" y="13.2" transform="matrix(0.9958 -9.174339e-02 9.174339e-02 0.9958 -1.6389 6.7146)" width="15.7" height="15.9"/>
	<path class="st0" d="M63.7,21.6c-0.1-0.8-0.1-1.5-0.2-2.1c-0.1-0.6-0.1-1.3-0.2-2c-0.1-0.7-0.1-1.4-0.2-2S63,14.2,63,13.4
		c0.8-0.1,1.6-0.1,2.2-0.2c0.7-0.1,1.3-0.1,2.1-0.2c0.7-0.1,1.4-0.1,2.1-0.2c0.7-0.1,1.4-0.1,2.2-0.2c0,0.2,0,0.4,0.1,0.6
		c0,0.2,0,0.4,0.1,0.6c-0.7,0.1-1.4,0.1-1.9,0.2c-0.6,0.1-1.2,0.1-1.8,0.2c-0.6,0.1-1.2,0.1-1.8,0.2c-0.6,0.1-1.2,0.1-1.9,0.2
		c0.1,0.7,0.1,1.3,0.2,1.8c0,0.5,0.1,1.1,0.2,1.7c0.1,0.6,0.1,1.2,0.2,1.7c0,0.5,0.1,1.1,0.2,1.8L63.7,21.6z M64,24.8l-0.6-6.2
		l1.2-0.1c0.1,0.6,0.1,1.1,0.1,1.5c0,0.4,0.1,0.9,0.1,1.5s0.1,1.1,0.1,1.5c0,0.4,0.1,0.9,0.1,1.5L64,24.8z M65,22.3
		c0.1,0.7,0.1,1.3,0.2,1.8c0,0.5,0.1,1.1,0.2,1.7c0.1,0.6,0.1,1.2,0.2,1.7c0,0.5,0.1,1.1,0.2,1.8c0.7-0.1,1.4-0.1,1.9-0.2
		c0.6-0.1,1.2-0.1,1.8-0.2c0.6-0.1,1.2-0.1,1.8-0.2c0.6-0.1,1.2-0.1,1.9-0.2c0,0.2,0,0.4,0.1,0.6c0,0.2,0,0.4,0.1,0.6
		c-0.8,0.1-1.6,0.1-2.2,0.2c-0.7,0.1-1.3,0.1-2.1,0.2c-0.7,0.1-1.4,0.1-2.1,0.2c-0.7,0.1-1.4,0.1-2.2,0.2c-0.1-0.8-0.1-1.5-0.2-2.1
		c-0.1-0.6-0.1-1.3-0.2-2c-0.1-0.7-0.1-1.4-0.2-2s-0.1-1.3-0.2-2.1L65,22.3z M72.8,29.2c-0.3-0.2-0.5-0.3-0.8-0.4
		c-0.2-0.7-0.4-1.3-0.6-1.8c-0.2-0.5-0.4-1.1-0.6-1.7c-0.2-0.6-0.4-1.2-0.6-1.7c-0.2-0.5-0.4-1.1-0.6-1.8c0.4-0.1,0.7-0.3,1.1-0.4
		c0.2,0.7,0.4,1.3,0.6,1.9c0.2,0.5,0.4,1.1,0.6,1.7c0.2,0.6,0.4,1.2,0.6,1.7c0.2,0.5,0.4,1.2,0.6,1.9C73.1,28.8,72.9,29,72.8,29.2z
		 M71.4,13.2c0.3,0.1,0.5,0.3,0.8,0.4c0.2,0.7,0.4,1.3,0.6,1.8s0.4,1.1,0.6,1.7c0.2,0.6,0.4,1.2,0.6,1.7c0.2,0.5,0.4,1.1,0.6,1.8
		c-0.4,0.1-0.7,0.2-1.1,0.4c-0.2-0.7-0.4-1.3-0.6-1.9c-0.2-0.5-0.4-1.1-0.6-1.7c-0.2-0.6-0.4-1.2-0.6-1.7c-0.2-0.5-0.4-1.2-0.6-1.9
		C71.2,13.6,71.3,13.4,71.4,13.2z M79.3,20.2c-0.1-0.7-0.1-1.3-0.2-1.8c0-0.5-0.1-1.1-0.2-1.7c-0.1-0.6-0.1-1.2-0.2-1.7
		c0-0.5-0.1-1.1-0.2-1.8c-0.7,0.1-1.4,0.1-1.9,0.2c-0.6,0.1-1.2,0.1-1.8,0.2c-0.6,0.1-1.2,0.1-1.8,0.2c-0.6,0.1-1.2,0.1-1.9,0.2
		c0-0.2,0-0.4-0.1-0.6s0-0.4-0.1-0.6c0.8-0.1,1.6-0.1,2.2-0.2c0.7-0.1,1.3-0.1,2.1-0.2c0.7-0.1,1.4-0.1,2.1-0.2
		c0.7-0.1,1.4-0.1,2.2-0.2c0.1,0.8,0.1,1.5,0.2,2.1c0.1,0.6,0.1,1.3,0.2,2c0.1,0.7,0.1,1.4,0.2,2c0.1,0.6,0.1,1.3,0.2,2.1L79.3,20.2
		z M80.5,20.9c0.1,0.8,0.1,1.5,0.2,2.1c0.1,0.6,0.1,1.3,0.2,2c0.1,0.7,0.1,1.4,0.2,2c0.1,0.6,0.1,1.3,0.2,2.1
		c-0.8,0.1-1.6,0.1-2.2,0.2c-0.6,0.1-1.3,0.1-2.1,0.2c-0.7,0.1-1.4,0.1-2.1,0.2c-0.7,0.1-1.4,0.1-2.2,0.2c0-0.2,0-0.4-0.1-0.6
		c0-0.2,0-0.4-0.1-0.6c0.7-0.1,1.4-0.1,1.9-0.2c0.6-0.1,1.2-0.1,1.8-0.2c0.6-0.1,1.2-0.1,1.8-0.2c0.6-0.1,1.2-0.1,1.9-0.2
		c-0.1-0.7-0.1-1.3-0.2-1.8c0-0.5-0.1-1.1-0.2-1.7c-0.1-0.6-0.1-1.2-0.2-1.7c0-0.5-0.1-1.1-0.2-1.8L80.5,20.9z M80.7,23.2l-1.2,0.1
		c-0.1-0.6-0.1-1.1-0.1-1.5c0-0.4-0.1-0.9-0.1-1.5c-0.1-0.6-0.1-1.1-0.1-1.5c0-0.4-0.1-0.9-0.1-1.5l1.2-0.1L80.7,23.2z"/>
	<polyline points="38.2,36.5 57.6,36.5 61,33.2 41.5,33.2 	"/>
	<rect x="41.6" y="9.2" width="19.4" height="24.1"/>
	<rect x="42.9" y="10.7" width="18.1" height="20.7"/>
	<rect x="41" y="10.7" class="st1" width="18.9" height="20.7"/>
	<polygon points="41.6,33.2 38.2,36.5 38.2,12.5 41.6,9.2 	"/>
	<polygon class="st0" points="39.4,35.3 41.7,33.5 58.8,33.4 56.9,35.1 	"/>
	<rect x="46.4" y="13.5" class="st0" width="13.1" height="15.5"/>
	<path d="M45.4,20c0-0.7,0-1.3,0-1.8c0-0.5,0-1.1,0-1.7c0-0.6,0-1.2,0-1.7s0-1.1,0-1.8c0.8,0,1.4,0,2,0c0.6,0,1.2,0,1.9,0
		c0.7,0,1.3,0,1.9,0c0.6,0,1.3,0,2,0c0,0.2,0,0.4,0,0.6c0,0.2,0,0.4,0,0.6c-0.9,0-1.7,0-2.3,0c-0.7,0-1.3,0-2,0c-0.7,0-1.4,0-2.3,0
		c0,0.8,0,1.5,0,2.1c0,0.6,0,1.2,0,1.8c0,0.6,0,1.3,0,2.1H45.4z M45.4,24.3v-6h1.1c0,0.6,0,1.1,0,1.5c0,0.4,0,0.9,0,1.5
		c0,0.6,0,1.1,0,1.5c0,0.4,0,0.9,0,1.5H45.4z M52.8,29.6c-0.4,0-0.9,0-1.5,0c-0.6,0-1.3,0-2,0s-1.3,0-1.9,0c-0.6,0-1.3,0-2.1,0v-7.3
		h1.1v6.2c0.7,0,1.2,0,1.7,0c0.4,0,1,0,1.7,0c0.7,0,1.2,0,1.7,0c0.4,0,1,0,1.7,0c0-0.1,0-0.3,0-0.5c0-0.2,0-0.6,0-1.2
		c0-0.6,0-1.3,0-2.3c0.8,0,1.6,0,2.2,0c0.6,0,1.2,0,1.9,0c0.6,0,1.4,0,2.2,0c0-0.6,0-1.1,0-1.6s0-0.9,0-1.3s0-1,0-1.6h1.1v9.7
		c-0.7,0-1.2,0-1.8,0c-0.5,0-1.1,0-1.7,0c-0.6,0-1.2,0-1.7,0s-1,0-1.3,0c-0.3,0-0.5,0-0.6,0C53.5,29.6,53.2,29.6,52.8,29.6z
		 M59.4,20c0-0.8,0-1.5,0-2.1c0-0.6,0-1.2,0-1.8c0-0.6,0-1.3,0-2.1c-0.9,0-1.7,0-2.3,0c-0.7,0-1.3,0-2,0s-1.4,0-2.3,0
		c0-0.2,0-0.4,0-0.6c0-0.2,0-0.4,0-0.6c0.7,0,1.4,0,2,0c0.6,0,1.2,0,1.9,0c0.7,0,1.3,0,1.9,0c0.6,0,1.3,0,2,0c0,0.7,0,1.3,0,1.8
		s0,1.1,0,1.7c0,0.6,0,1.2,0,1.7c0,0.5,0,1.1,0,1.8H59.4z M54.5,18.7C54.5,18.7,54.5,18.6,54.5,18.7c0,0,0.1,0,0.1,0
		c0.8,0,1.5,0,2,0c0.6,0,1.2,0,1.7,0c0.6,0,1.3,0,2,0c0,0,0.1,0,0.1,0c0,0,0,0,0,0c0,0,0,0,0,0.1c0,0.1,0,0.2,0,0.3s0,0.2,0,0.3
		s0,0.2,0,0.3c0,0.1,0,0.1,0,0.1c0,0,0,0-0.1,0c-0.8,0-1.5,0-2,0c-0.6,0-1.2,0-1.7,0c-0.6,0-1.3,0-2,0c0,0-0.1,0-0.1,0c0,0,0,0,0,0
		c0,0,0,0,0-0.1C54.5,19.4,54.5,19.1,54.5,18.7C54.5,18.7,54.5,18.7,54.5,18.7z"/>
	<polygon class="st2" points="47.6,40.9 45.2,38.9 42.7,40.9 42.7,34.4 47.6,34.4 	"/>
	<rect x="6" y="12.5" class="st1" width="32.1" height="24"/>
</g>
</svg>
