<?xml version="1.0" encoding="utf-8"?>
<!-- Generator: Adobe Illustrator 22.1.0, SVG Export Plug-In . SVG Version: 6.00 Build 0)  -->
<svg version="1.1" id="Capa_1" xmlns="http://www.w3.org/2000/svg" xmlns:xlink="http://www.w3.org/1999/xlink" x="0px" y="0px"
	 viewBox="0 0 31.2 13.3" style="enable-background:new 0 0 31.2 13.3;" xml:space="preserve">
<style type="text/css">
	.st0{fill:#FFFFFF;}
</style>
<rect x="8.1" y="5.2" width="18.1" height="3.1"/>
<rect x="14.9" y="4.5" width="4.4" height="3.8"/>
<rect x="4.3" y="4.5" width="3.7" height="3.9"/>
<g>
	<path class="st0" d="M4.3,6.3c0-0.2,0-0.4,0-0.5c0-0.1,0-0.3,0-0.5c0-0.2,0-0.3,0-0.5s0-0.3,0-0.5c0.2,0,0.4,0,0.5,0
		c0.2,0,0.3,0,0.5,0s0.3,0,0.5,0c0.2,0,0.3,0,0.5,0c0,0,0,0.1,0,0.1s0,0.1,0,0.1c-0.2,0-0.3,0-0.5,0c-0.1,0-0.3,0-0.4,0
		c-0.1,0-0.3,0-0.4,0c-0.1,0-0.3,0-0.5,0c0,0.2,0,0.3,0,0.4c0,0.1,0,0.3,0,0.4s0,0.3,0,0.4s0,0.3,0,0.4H4.3z M4.3,5.7h0.3
		c0,0.1,0,0.3,0,0.4s0,0.2,0,0.4c0,0.1,0,0.3,0,0.4c0,0.1,0,0.2,0,0.4H4.3V5.7z M4.3,7h0.3v0.2c0,0,0,0,0.1,0.1
		c0.1,0.1,0.1,0.2,0.2,0.3C5,7.6,5.1,7.7,5.2,7.8C5.3,7.9,5.3,8,5.4,8.1c0.1,0.1,0.1,0.1,0.1,0.1c0.2,0,0.3,0,0.4,0
		c0.1,0,0.2,0,0.4,0c0,0,0,0.1,0,0.1c0,0,0,0.1,0,0.1c-0.1,0-0.2,0-0.3,0c-0.1,0-0.2,0-0.3,0s-0.1,0-0.2,0c-0.1,0-0.1,0-0.2,0
		c0,0-0.1,0-0.1,0c0,0,0,0,0,0c0,0,0,0-0.1,0c0,0-0.1,0-0.1,0s-0.1,0-0.2,0c-0.1,0-0.1,0-0.2,0c-0.1,0-0.1,0-0.2,0
		c-0.1,0-0.1,0-0.2,0L4.3,7z M6.1,4.6c0.1,0,0.1,0,0.2,0c0,0,0,0,0,0c0,0,0,0,0,0c0,0,0,0,0,0c0,0,0,0,0,0c0,0.2,0,0.5,0,0.7
		s0,0.4,0,0.6s0,0.4,0,0.6s0,0.4,0,0.7c0,0,0,0,0,0c0,0,0,0,0,0s0,0,0,0c-0.1,0-0.1,0-0.2,0c0,0,0,0,0,0c0,0,0,0,0,0c0,0,0,0,0,0
		c0-0.2,0-0.5,0-0.7s0-0.4,0-0.6s0-0.4,0-0.6S6.1,4.9,6.1,4.6C6.1,4.7,6.1,4.7,6.1,4.6C6.1,4.6,6.1,4.6,6.1,4.6
		C6.1,4.6,6.1,4.6,6.1,4.6C6.1,4.6,6.1,4.6,6.1,4.6z M7.9,6.3c0-0.2,0-0.3,0-0.4s0-0.3,0-0.4s0-0.3,0-0.4c0-0.1,0-0.3,0-0.4
		c-0.2,0-0.3,0-0.5,0c-0.1,0-0.3,0-0.4,0c-0.1,0-0.3,0-0.4,0c-0.1,0-0.3,0-0.5,0c0,0,0-0.1,0-0.1s0-0.1,0-0.1c0.2,0,0.4,0,0.5,0
		s0.3,0,0.5,0c0.2,0,0.3,0,0.5,0c0.2,0,0.3,0,0.5,0c0,0.2,0,0.4,0,0.5s0,0.3,0,0.5c0,0.2,0,0.3,0,0.5c0,0.1,0,0.3,0,0.5H7.9z M8.2,7
		l0,1.4c-0.1,0-0.1,0-0.2,0c-0.1,0-0.1,0-0.2,0c-0.1,0-0.1,0-0.2,0c-0.1,0-0.1,0-0.2,0s-0.1,0-0.1,0c0,0-0.1,0-0.1,0c0,0,0,0,0,0
		c0,0-0.1,0-0.1,0c0,0-0.1,0-0.2,0c-0.1,0-0.1,0-0.2,0s-0.2,0-0.3,0s-0.2,0-0.3,0c0,0,0-0.1,0-0.1c0,0,0-0.1,0-0.1
		c0.2,0,0.3,0,0.4,0c0.1,0,0.2,0,0.4,0c0,0,0,0,0.1-0.1C7.1,8,7.2,7.9,7.3,7.8c0.1-0.1,0.2-0.2,0.3-0.3c0.1-0.1,0.2-0.2,0.2-0.3
		c0.1-0.1,0.1-0.1,0.1-0.1V7H8.2z M8.2,5.7v1.5H7.9c0-0.1,0-0.3,0-0.4c0-0.1,0-0.2,0-0.4c0-0.1,0-0.3,0-0.4s0-0.2,0-0.4H8.2z"/>
	<path class="st0" d="M7.9,7c0-0.1,0-0.2,0-0.4c0-0.1,0-0.3,0-0.4c0-0.1,0-0.3,0-0.4c0-0.1,0-0.3,0-0.4c0-0.1,0-0.2,0-0.4
		c0.2,0,0.3,0,0.5,0c0.1,0,0.3,0,0.5,0c0.2,0,0.3,0,0.5,0c0.1,0,0.3,0,0.5,0c0,0,0,0.1,0,0.1s0,0.1,0,0.1c0,0-0.1,0-0.1,0
		c-0.1,0-0.1,0-0.2,0s-0.2,0-0.3,0s-0.2,0-0.3,0c-0.1,0-0.1,0-0.2,0c0,0,0,0-0.1,0.1c0,0-0.1,0.1-0.1,0.1C8.5,5.6,8.5,5.7,8.4,5.7
		C8.4,5.8,8.3,5.8,8.3,5.9c0,0-0.1,0.1-0.1,0.1V7H7.9z M7.9,6h0.3c0,0.1,0,0.2,0,0.3s0,0.1,0,0.2c0,0.1,0,0.2,0,0.3
		c0,0.1,0,0.2,0,0.3c0,0.1,0,0.1,0,0.2c0,0,0,0.1,0,0.1c0,0.1,0,0.1,0,0.2H7.9V6z M7.9,6.5h0.3v1.1c0,0,0,0,0.1,0.1
		c0,0,0.1,0.1,0.1,0.1C8.5,7.9,8.5,7.9,8.6,8c0.1,0.1,0.1,0.1,0.1,0.1c0,0,0.1,0.1,0.1,0.1c0,0,0.1,0,0.2,0c0.1,0,0.2,0,0.3,0
		s0.2,0,0.3,0s0.2,0,0.2,0c0.1,0,0.1,0,0.1,0c0,0,0,0.1,0,0.1c0,0,0,0.1,0,0.1c-0.2,0-0.3,0-0.5,0c-0.1,0-0.3,0-0.5,0
		c-0.2,0-0.3,0-0.5,0c-0.1,0-0.3,0-0.5,0c0-0.1,0-0.3,0-0.4c0-0.1,0-0.2,0-0.4c0-0.1,0-0.3,0-0.4c0-0.1,0-0.3,0-0.4
		C7.9,6.7,7.9,6.6,7.9,6.5z M10.3,6.2C10.3,6.2,10.3,6.2,10.3,6.2C10.3,6.3,10.3,6.3,10.3,6.2c0,0.1,0,0.1,0,0.2c0,0,0,0,0,0.1
		c0,0,0,0,0,0c0,0,0,0,0,0c-0.2,0-0.3,0-0.4,0c-0.1,0-0.3,0-0.4,0c0,0,0,0,0,0c0,0,0,0,0,0c0,0,0-0.1,0-0.1c0,0,0,0,0-0.1
		c0,0,0,0,0-0.1c0,0,0,0,0,0c0,0,0,0,0,0c0.2,0,0.3,0,0.4,0C9.9,6.2,10.1,6.2,10.3,6.2C10.2,6.2,10.3,6.2,10.3,6.2z M11.6,7h-0.3
		V5.9c0,0,0,0-0.1-0.1c0,0-0.1-0.1-0.1-0.1c-0.1-0.1-0.1-0.1-0.2-0.2c-0.1-0.1-0.1-0.1-0.1-0.1c0,0-0.1-0.1-0.1-0.1c0,0-0.1,0-0.2,0
		s-0.2,0-0.3,0c-0.1,0-0.2,0-0.3,0s-0.2,0-0.2,0c-0.1,0-0.1,0-0.1,0c0,0,0-0.1,0-0.1s0-0.1,0-0.1c0.2,0,0.3,0,0.5,0
		c0.1,0,0.3,0,0.5,0c0.2,0,0.3,0,0.5,0c0.1,0,0.3,0,0.5,0c0,0.1,0,0.3,0,0.4c0,0.1,0,0.2,0,0.4c0,0.1,0,0.3,0,0.4c0,0.1,0,0.3,0,0.4
		C11.6,6.8,11.6,6.9,11.6,7z M11.6,6.7c0,0.2,0,0.3,0,0.4c0,0.1,0,0.3,0,0.4s0,0.3,0,0.4c0,0.1,0,0.3,0,0.4c-0.2,0-0.3,0-0.5,0
		c-0.1,0-0.3,0-0.5,0c-0.2,0-0.3,0-0.5,0c-0.1,0-0.3,0-0.5,0c0,0,0-0.1,0-0.1c0,0,0-0.1,0-0.1c0.2,0,0.4,0,0.6,0c0.2,0,0.3,0,0.5,0
		c0.2,0,0.3,0,0.6,0c0-0.2,0-0.4,0-0.5s0-0.3,0-0.4c0-0.1,0-0.3,0-0.5H11.6z M11.5,7.3h-0.1c0,0,0-0.1,0-0.1c-0.2,0-0.4,0.1-0.5,0.1
		c-0.1,0-0.3,0-0.4,0.1c-0.1,0-0.3,0-0.5,0.1c0,0,0,0,0-0.1s0,0,0-0.1c0,0,0-0.1,0-0.1c0,0,0,0,0-0.1c0.2,0,0.4-0.1,0.5-0.1
		c0.1,0,0.3,0,0.4-0.1C11,7,11.2,7,11.4,7c0,0,0-0.1,0-0.1h0.1V7.3z"/>
	<path class="st0" d="M11.4,6.8c0-0.2,0-0.3,0-0.4c0-0.1,0-0.3,0-0.4c0-0.1,0-0.3,0-0.4c0-0.1,0-0.3,0-0.4c0.2,0,0.3,0,0.5,0
		c0.1,0,0.3,0,0.5,0c0.2,0,0.3,0,0.5,0s0.3,0,0.5,0c0,0,0,0.1,0,0.1s0,0.1,0,0.2s0,0.2,0,0.3c0,0.1,0,0.2,0,0.2c0,0.1,0,0.1,0,0.2
		c-0.1-0.2-0.1-0.3-0.2-0.4c0-0.1-0.1-0.2-0.2-0.4c-0.2,0-0.3,0-0.4,0c-0.1,0-0.3,0-0.4,0c-0.1,0-0.3,0-0.4,0c0,0.2,0,0.4,0,0.5
		s0,0.3,0,0.4s0,0.3,0,0.5H11.4z M13.2,8.5c-0.1,0-0.2,0-0.4,0c-0.2,0-0.3,0-0.5,0c-0.2,0-0.3,0-0.5,0c-0.1,0-0.3,0-0.5,0V6.7h0.3
		v1.5c0.2,0,0.3,0,0.4,0c0.1,0,0.2,0,0.4,0c0.2,0,0.3,0,0.4,0c0.1,0,0.2,0,0.4,0c0,0,0-0.1,0-0.1c0-0.1,0-0.2,0-0.3
		c0-0.1,0-0.3,0-0.6c0.2,0,0.4,0,0.5,0c0.2,0,0.3,0,0.5,0c0.2,0,0.3,0,0.5,0c0-0.1,0-0.3,0-0.4c0-0.1,0-0.2,0-0.3c0-0.1,0-0.2,0-0.4
		h0.3v2.4c-0.2,0-0.3,0-0.4,0c-0.1,0-0.3,0-0.4,0c-0.1,0-0.3,0-0.4,0c-0.1,0-0.2,0-0.3,0c-0.1,0-0.1,0-0.1,0
		C13.3,8.5,13.3,8.5,13.2,8.5z M14.8,6.5C14.8,6.5,14.8,6.5,14.8,6.5c0-0.1,0-0.2,0-0.2c0-0.1,0-0.2,0-0.3s0-0.3,0-0.5
		c-0.1,0-0.2,0-0.3,0c-0.1,0-0.2,0-0.3,0s-0.2,0-0.3,0c-0.1,0-0.2,0-0.3,0c-0.1,0.2-0.1,0.3-0.2,0.4c-0.1,0.1-0.1,0.2-0.2,0.4
		c0-0.2,0-0.3-0.1-0.4c0-0.1,0-0.2-0.1-0.4c0,0,0-0.1,0-0.1c0,0,0-0.1,0-0.1c0,0,0-0.1,0-0.1c0.2,0,0.3,0,0.5,0s0.3,0,0.5,0
		c0.2,0,0.3,0,0.5,0s0.3,0,0.5,0c0,0.1,0,0.3,0,0.4c0,0.1,0,0.2,0,0.3c0,0.1,0,0.2,0,0.3c0,0.1,0,0.2,0,0.4H14.8z"/>
	<path class="st0" d="M17.1,4.6c0,0.1,0,0.1,0,0.2c0,0.1,0,0.1,0,0.2c0,0.1,0,0.1,0,0.2c0,0.1,0,0.1,0,0.2h0C17,5.2,17,5.1,16.9,5.1
		c0-0.1-0.1-0.1-0.1-0.2c0-0.1-0.1-0.1-0.1-0.2c-0.2,0-0.4,0-0.6,0c-0.2,0-0.4,0-0.5,0c-0.2,0-0.3,0-0.5,0c0,0,0,0.1,0,0.1
		c0,0.1,0,0.1,0,0.3c0,0.1,0,0.3,0,0.5c0,0.2,0,0.5,0,0.8h-0.3c0-0.1,0-0.2,0-0.3c0-0.1,0-0.2,0-0.3c0-0.1,0-0.2,0-0.3
		c0-0.1,0-0.2,0-0.3s0-0.2,0-0.3s0-0.2,0-0.3c0.2,0,0.4,0,0.6,0s0.4,0,0.6,0c0.2,0,0.4,0,0.6,0c0.2,0,0.4,0,0.6,0
		C17.1,4.4,17.1,4.5,17.1,4.6z M14.8,7.2V5.7h0.3c0,0.1,0,0.3,0,0.4c0,0.1,0,0.2,0,0.4c0,0.1,0,0.3,0,0.4s0,0.2,0,0.4H14.8z
		 M15.1,6.5c0,0.2,0,0.4,0,0.6s0,0.3,0,0.5s0,0.4,0,0.6c0.2,0,0.4,0,0.5,0c0.2,0,0.3,0,0.5,0c0.2,0,0.4,0,0.5,0s0.3,0,0.5,0
		c0,0.1,0,0.1,0,0.1c0,0,0,0.1,0,0.1c0,0-0.1,0-0.2,0c-0.1,0-0.3,0-0.5,0c-0.2,0-0.4,0-0.6,0s-0.4,0-0.6,0c-0.2,0-0.4,0-0.6,0
		c0-0.2,0-0.4,0-0.5c0-0.2,0-0.3,0-0.5c0-0.2,0-0.3,0-0.5c0-0.2,0-0.3,0-0.5H15.1z M16.7,8.3c-0.1,0-0.1-0.1-0.2-0.1
		c0-0.2-0.1-0.3-0.1-0.4c0-0.1-0.1-0.3-0.1-0.4c0-0.1-0.1-0.3-0.1-0.4c0-0.1-0.1-0.3-0.1-0.4c0.1,0,0.2,0,0.3-0.1
		c0,0.2,0.1,0.3,0.1,0.5c0,0.1,0.1,0.3,0.1,0.4c0,0.1,0.1,0.3,0.1,0.4c0,0.1,0.1,0.3,0.1,0.5C16.7,8.2,16.7,8.3,16.7,8.3z M19.4,6.5
		c0,0.2,0,0.4,0,0.5c0,0.2,0,0.3,0,0.5c0,0.2,0,0.3,0,0.5c0,0.2,0,0.3,0,0.5c-0.2,0-0.4,0-0.6,0c-0.2,0-0.4,0-0.6,0
		c-0.2,0-0.4,0-0.6,0c-0.2,0-0.3,0-0.5,0c-0.1,0-0.2,0-0.2,0c0-0.1,0-0.1,0-0.1c0,0,0-0.1,0-0.1c0.2,0,0.4,0,0.5,0
		c0.2,0,0.3,0,0.5,0c0.2,0,0.4,0,0.5,0s0.3,0,0.5,0c0-0.2,0-0.4,0-0.6s0-0.3,0-0.5s0-0.4,0-0.6H19.4z M17.1,4.4c0.2,0,0.4,0,0.6,0
		c0.2,0,0.4,0,0.6,0c0.2,0,0.4,0,0.6,0c0.2,0,0.4,0,0.6,0c0,0.1,0,0.2,0,0.3s0,0.2,0,0.3s0,0.2,0,0.3c0,0.1,0,0.2,0,0.3
		c0,0.1,0,0.2,0,0.3c0,0.1,0,0.2,0,0.3h-0.3c0-0.3,0-0.6,0-0.8c0-0.2,0-0.4,0-0.5c0-0.1,0-0.2,0-0.3c0-0.1,0-0.1,0-0.1
		c-0.2,0-0.3,0-0.5,0s-0.3,0-0.5,0c-0.2,0-0.4,0-0.6,0c-0.1,0.1-0.1,0.2-0.1,0.2c0,0.1-0.1,0.1-0.1,0.2c0,0.1-0.1,0.1-0.1,0.2h0
		c0-0.1,0-0.1,0-0.2c0-0.1,0-0.1,0-0.2c0-0.1,0-0.1,0-0.2c0-0.1,0-0.1,0-0.2C17.1,4.5,17.1,4.4,17.1,4.4z M17.6,7.7
		c0-0.1,0.1-0.3,0.1-0.4c0-0.1,0.1-0.3,0.1-0.4c0-0.1,0.1-0.3,0.1-0.5c0.1,0,0.2,0,0.3,0.1c0,0.2-0.1,0.3-0.1,0.4
		c0,0.1-0.1,0.3-0.1,0.4c0,0.1-0.1,0.3-0.1,0.4c0,0.1-0.1,0.3-0.1,0.4c-0.1,0-0.1,0.1-0.2,0.1c0,0-0.1-0.1-0.1-0.1
		C17.5,8,17.5,7.9,17.6,7.7z M19.4,7.2h-0.3c0-0.1,0-0.3,0-0.4s0-0.2,0-0.4c0-0.1,0-0.3,0-0.4c0-0.1,0-0.2,0-0.4h0.3V7.2z"/>
	<path class="st0" d="M19.2,6.8c0-0.2,0-0.3,0-0.4c0-0.1,0-0.3,0-0.4c0-0.1,0-0.3,0-0.4c0-0.1,0-0.3,0-0.4c0.2,0,0.3,0,0.5,0
		c0.1,0,0.3,0,0.5,0c0.2,0,0.3,0,0.5,0c0.1,0,0.3,0,0.5,0c0,0,0,0.1,0,0.1s0,0.1,0,0.1c-0.2,0-0.4,0-0.6,0s-0.3,0-0.5,0
		c-0.2,0-0.3,0-0.6,0c0,0.2,0,0.4,0,0.5s0,0.3,0,0.4s0,0.3,0,0.5H19.2z M19.2,6.5h0.3v1.1c0,0,0,0,0.1,0.1c0,0,0.1,0.1,0.1,0.1
		c0.1,0.1,0.1,0.1,0.2,0.2c0.1,0.1,0.1,0.1,0.1,0.1c0,0,0.1,0.1,0.1,0.1c0,0,0.1,0,0.2,0c0.1,0,0.2,0,0.3,0s0.2,0,0.3,0s0.2,0,0.2,0
		c0.1,0,0.1,0,0.1,0c0,0,0,0.1,0,0.1c0,0,0,0.1,0,0.1c-0.2,0-0.3,0-0.5,0c-0.1,0-0.3,0-0.5,0c-0.2,0-0.3,0-0.5,0c-0.1,0-0.3,0-0.5,0
		c0-0.1,0-0.3,0-0.4c0-0.1,0-0.2,0-0.4c0-0.1,0-0.3,0-0.4c0-0.1,0-0.3,0-0.4C19.2,6.7,19.2,6.6,19.2,6.5z M19.3,6.3h0.1
		c0,0,0,0.1,0,0.1c0.2,0,0.4-0.1,0.5-0.1c0.1,0,0.3,0,0.4-0.1s0.3,0,0.5-0.1c0,0,0,0,0,0.1c0,0,0,0,0,0.1s0,0.1,0,0.1s0,0,0,0.1
		c-0.2,0-0.4,0.1-0.5,0.1c-0.1,0-0.3,0-0.4,0.1c-0.1,0-0.3,0-0.5,0.1c0,0,0,0.1,0,0.1h-0.1V6.3z M19.7,5.2
		C19.7,5.2,19.7,5.2,19.7,5.2c0-0.1,0-0.1,0-0.1c0,0,0-0.1,0-0.2c0-0.1,0-0.2,0-0.3c0.2,0,0.5-0.1,0.7-0.1c0.2,0,0.4,0,0.6-0.1
		c0.2,0,0.4,0,0.6-0.1c0.2,0,0.4,0,0.7-0.1c0,0.1,0,0.2,0,0.3s0,0.2,0,0.2c0,0.1,0,0.1,0,0.2c0,0,0,0.1,0,0.1c0,0,0,0.1,0,0.1H22
		c0,0,0-0.1,0-0.1c0,0,0-0.1,0-0.1c0,0,0-0.1,0-0.1c0-0.1,0-0.1,0-0.2c-0.2,0-0.4,0-0.5,0c-0.2,0-0.3,0-0.5,0c-0.2,0-0.3,0-0.5,0
		c-0.2,0-0.3,0-0.5,0C20,4.9,20,5,20,5c0,0,0,0.1,0,0.1c0,0,0,0.1,0,0.1H19.7z M20.6,7.4C20.6,7.4,20.6,7.4,20.6,7.4
		C20.6,7.3,20.6,7.3,20.6,7.4c0-0.1,0-0.1,0-0.2c0,0,0,0,0-0.1c0,0,0,0,0,0c0,0,0,0,0,0c0.2,0,0.3,0,0.4,0c0.1,0,0.3,0,0.4,0
		c0,0,0,0,0,0c0,0,0,0,0,0c0,0,0,0.1,0,0.1c0,0,0,0,0,0.1c0,0,0,0,0,0.1c0,0,0,0,0,0c0,0,0,0,0,0c-0.2,0-0.3,0-0.4,0
		C20.9,7.4,20.8,7.4,20.6,7.4C20.6,7.4,20.6,7.4,20.6,7.4z M22.9,7h-0.3V5.9c0,0,0,0-0.1-0.1c0,0-0.1-0.1-0.1-0.1
		c-0.1-0.1-0.1-0.1-0.2-0.2c-0.1-0.1-0.1-0.1-0.1-0.1c0,0-0.1-0.1-0.1-0.1c0,0-0.1,0-0.2,0s-0.2,0-0.3,0c-0.1,0-0.2,0-0.3,0
		s-0.2,0-0.2,0c-0.1,0-0.1,0-0.1,0c0,0,0-0.1,0-0.1s0-0.1,0-0.1c0.2,0,0.3,0,0.5,0s0.3,0,0.5,0c0.2,0,0.3,0,0.5,0c0.1,0,0.3,0,0.5,0
		c0,0.1,0,0.3,0,0.4c0,0.1,0,0.2,0,0.4c0,0.1,0,0.3,0,0.4c0,0.1,0,0.3,0,0.4C22.9,6.8,22.9,6.9,22.9,7z M22.9,6.7c0,0.2,0,0.3,0,0.4
		c0,0.1,0,0.3,0,0.4s0,0.3,0,0.4c0,0.1,0,0.3,0,0.4c-0.2,0-0.3,0-0.5,0c-0.1,0-0.3,0-0.5,0c-0.2,0-0.3,0-0.5,0s-0.3,0-0.5,0
		c0,0,0-0.1,0-0.1c0,0,0-0.1,0-0.1c0.2,0,0.4,0,0.6,0c0.2,0,0.3,0,0.5,0c0.2,0,0.3,0,0.6,0c0-0.2,0-0.4,0-0.5s0-0.3,0-0.4
		c0-0.1,0-0.3,0-0.5H22.9z M22.9,7.6h-0.3c0-0.1,0-0.2,0-0.3c0-0.1,0-0.1,0-0.2c0-0.1,0-0.2,0-0.3c0-0.1,0-0.2,0-0.3
		c0-0.1,0-0.1,0-0.2c0,0,0-0.1,0-0.1c0-0.1,0-0.1,0-0.2h0.3V7.6z"/>
	<path class="st0" d="M22.6,7c0-0.1,0-0.2,0-0.4c0-0.1,0-0.3,0-0.4c0-0.1,0-0.3,0-0.4c0-0.1,0-0.3,0-0.4c0-0.1,0-0.2,0-0.4
		c0.2,0,0.3,0,0.5,0c0.1,0,0.3,0,0.5,0c0.2,0,0.3,0,0.5,0c0.1,0,0.3,0,0.5,0c0,0,0,0.1,0,0.1s0,0.1,0,0.1c0,0-0.1,0-0.1,0
		c-0.1,0-0.1,0-0.2,0s-0.2,0-0.3,0s-0.2,0-0.3,0c-0.1,0-0.1,0-0.2,0c0,0,0,0-0.1,0.1c0,0-0.1,0.1-0.1,0.1c-0.1,0.1-0.1,0.1-0.2,0.2
		C23,5.8,23,5.8,22.9,5.9c0,0-0.1,0.1-0.1,0.1V7H22.6z M22.9,6.7c0,0.2,0,0.4,0,0.5c0,0.1,0,0.3,0,0.4s0,0.3,0,0.5
		c0.2,0,0.4,0,0.6,0c0.2,0,0.3,0,0.5,0c0.2,0,0.3,0,0.6,0c0,0,0,0.1,0,0.1c0,0,0,0.1,0,0.1c-0.2,0-0.3,0-0.5,0c-0.1,0-0.3,0-0.5,0
		c-0.2,0-0.3,0-0.5,0c-0.1,0-0.3,0-0.5,0c0-0.2,0-0.3,0-0.4c0-0.1,0-0.3,0-0.4s0-0.3,0-0.4c0-0.1,0-0.3,0-0.4H22.9z M22.7,7.3V6.8
		h0.1c0,0,0,0.1,0,0.1c0.2,0,0.4,0.1,0.5,0.1c0.1,0,0.3,0,0.4,0.1c0.1,0,0.3,0,0.5,0.1c0,0,0,0,0,0.1c0,0,0,0,0,0.1s0,0.1,0,0.1
		c0,0,0,0,0,0.1c-0.2,0-0.4-0.1-0.5-0.1c-0.1,0-0.3,0-0.4-0.1c-0.1,0-0.3,0-0.5-0.1c0,0,0,0.1,0,0.1H22.7z M26,6.8
		c0-0.2,0-0.4,0-0.5s0-0.3,0-0.4s0-0.3,0-0.5c-0.2,0-0.4,0-0.6,0c-0.2,0-0.3,0-0.5,0c-0.2,0-0.3,0-0.6,0c0,0,0-0.1,0-0.1
		s0-0.1,0-0.1c0.2,0,0.3,0,0.5,0s0.3,0,0.5,0c0.2,0,0.3,0,0.5,0c0.1,0,0.3,0,0.5,0c0,0.2,0,0.3,0,0.4c0,0.1,0,0.3,0,0.4
		c0,0.1,0,0.3,0,0.4c0,0.1,0,0.3,0,0.4H26z M26.3,6.5c0,0.1,0,0.2,0,0.4c0,0.1,0,0.3,0,0.4c0,0.1,0,0.3,0,0.4c0,0.1,0,0.3,0,0.4
		c0,0.1,0,0.2,0,0.4c-0.2,0-0.3,0-0.5,0c-0.1,0-0.3,0-0.5,0c-0.2,0-0.3,0-0.5,0s-0.3,0-0.5,0c0,0,0-0.1,0-0.1c0,0,0-0.1,0-0.1
		c0,0,0,0,0.1,0c0.1,0,0.1,0,0.2,0s0.2,0,0.3,0c0.1,0,0.2,0,0.3,0s0.1,0,0.2,0c0,0,0,0,0.1-0.1c0,0,0.1-0.1,0.1-0.1
		c0.1-0.1,0.1-0.1,0.2-0.2c0.1-0.1,0.1-0.1,0.1-0.1c0,0,0.1-0.1,0.1-0.1V6.5H26.3z M26.2,6.3v0.5H26c0,0,0-0.1,0-0.1
		c-0.2,0-0.4-0.1-0.5-0.1c-0.1,0-0.3,0-0.4-0.1c-0.1,0-0.3,0-0.5-0.1c0,0,0,0,0-0.1c0,0,0,0,0-0.1c0,0,0-0.1,0-0.1c0,0,0,0,0-0.1
		c0.2,0,0.4,0.1,0.5,0.1s0.3,0,0.4,0.1c0.1,0,0.3,0,0.5,0.1c0,0,0-0.1,0-0.1H26.2z"/>
</g>
</svg>
